<svg width="55" height="55" viewBox="0 0 55 55" fill="none" xmlns="http://www.w3.org/2000/svg">
<path d="M2 20.7895H53M2 20.7895V50.3158C2 51.0277 2.2828 51.7105 2.78619 52.2139C3.28957 52.7173 3.97231 53.0001 4.68421 53.0001H50.3158C51.0277 53.0001 51.7104 52.7173 52.2138 52.2139C52.7172 51.7105 53 51.0277 53 50.3158V20.7895M2 20.7895V8.71058C2 7.99868 2.2828 7.31594 2.78619 6.81255C3.28957 6.30917 3.97231 6.02637 4.68421 6.02637H50.3158C51.0277 6.02637 51.7104 6.30917 52.2138 6.81255C52.7172 7.31594 53 7.99868 53 8.71058V20.7895" stroke="#856086" stroke-width="4" stroke-linejoin="round"/>
<path d="M16.7632 36.8948L24.8158 44.9474L40.9211 28.8422" stroke="#856086" stroke-width="4" stroke-linecap="round" stroke-linejoin="round"/>
<path d="M16.7632 2V12.7368M38.2369 2V12.7368" stroke="#856086" stroke-width="4" stroke-linecap="round"/>
</svg>
