<svg width="58" height="55" viewBox="0 0 58 55" fill="none" xmlns="http://www.w3.org/2000/svg">
<path fill-rule="evenodd" clip-rule="evenodd" d="M9.22419 0C6.77778 0 4.43157 0.965771 2.7017 2.68485C0.971831 4.40394 0 6.73552 0 9.16667V45.8333C0 48.2645 0.971831 50.5961 2.7017 52.3151C4.43157 54.0342 6.77778 55 9.22419 55H46.1209C48.5673 55 50.9135 54.0342 52.6434 52.3151C54.3733 50.5961 55.3451 48.2645 55.3451 45.8333V30.5556C55.3451 29.7452 55.0212 28.968 54.4445 28.395C53.8679 27.8219 53.0859 27.5 52.2704 27.5C51.4549 27.5 50.6728 27.8219 50.0962 28.395C49.5196 28.968 49.1957 29.7452 49.1957 30.5556V45.8333C49.1957 46.6437 48.8717 47.4209 48.2951 47.9939C47.7185 48.567 46.9364 48.8889 46.1209 48.8889H9.22419C8.40872 48.8889 7.62665 48.567 7.05002 47.9939C6.4734 47.4209 6.14946 46.6437 6.14946 45.8333V9.16667C6.14946 8.35628 6.4734 7.57909 7.05002 7.00606C7.62665 6.43304 8.40872 6.11111 9.22419 6.11111H33.822C34.6375 6.11111 35.4196 5.78919 35.9962 5.21616C36.5728 4.64313 36.8967 3.86594 36.8967 3.05556C36.8967 2.24517 36.5728 1.46798 35.9962 0.894951C35.4196 0.321924 34.6375 0 33.822 0H9.22419ZM56.4459 9.30417C57.1543 8.9036 57.6736 8.23992 57.8898 7.45898C58.106 6.67804 58.0014 5.84374 57.5989 5.13944C57.1901 4.44073 56.5217 3.92928 55.7375 3.71502C54.9533 3.50076 54.1158 3.60079 53.405 3.99361C52.3196 4.60472 51.2711 5.28917 50.238 5.97972C47.6189 7.73205 45.0913 9.61569 42.6649 11.6233C37.6162 15.7972 31.5529 21.6761 26.5564 29.095C25.0067 27.0592 23.2027 25.2274 21.188 23.6439C19.875 22.6264 18.4145 21.6272 16.8372 21.0589C16.0715 20.7797 15.2225 20.8143 14.4824 21.1549C13.7423 21.4956 13.1687 22.1145 12.8877 22.8754C12.6068 23.6364 12.6416 24.4771 12.9844 25.2125C13.3272 25.948 13.9499 26.518 14.7156 26.7972C14.7925 26.8278 15.8533 27.2556 17.4091 28.4625C19.1863 29.8375 21.6399 32.2483 24.0075 36.2756C24.2798 36.7392 24.6703 37.1234 25.1396 37.3893C25.6089 37.6553 26.1404 37.7937 26.6806 37.7906C27.2208 37.7875 27.7507 37.643 28.2169 37.3717C28.683 37.1003 29.069 36.7117 29.336 36.245C34.2064 27.7169 40.98 20.9672 46.5975 16.3228C49.3955 14.0097 51.886 12.2406 53.6632 11.055C54.5703 10.4469 55.4927 9.85111 56.4428 9.30722L56.4459 9.30417Z" fill="#0085FF"/>
</svg>
