<svg width="56" height="68" viewBox="0 0 56 68" fill="none" xmlns="http://www.w3.org/2000/svg">
<path d="M40 0C41.104 0 42 0.88796 42 1.98791C42 3.83983 42.292 6.86369 43.888 9.37157C45.388 11.7235 48.22 13.9154 54 13.9154C55.104 13.9154 56 14.8033 56 15.9033C55.9979 16.4319 55.7861 16.9382 55.4111 17.3108C55.0362 17.6835 54.5287 17.8923 54 17.8912C52.524 17.8912 49.44 18.7831 46.72 20.8591C44.068 22.879 42 25.8228 42 29.8186C41.9968 30.3466 41.7846 30.8518 41.4097 31.2236C41.0349 31.5955 40.528 31.8036 40 31.8026C39.4713 31.8036 38.9638 31.5949 38.5889 31.2222C38.2139 30.8495 38.0021 30.3433 38 29.8146C38 27.8147 37.38 24.7709 35.576 22.279C33.848 19.8951 30.948 17.8912 26 17.8912C25.4713 17.8923 24.9638 17.6835 24.5889 17.3108C24.2139 16.9382 24.0021 16.4319 24 15.9033C24 14.8033 24.896 13.9154 26 13.9154C28.048 13.9154 31.02 13.8754 33.492 12.4474C35.748 11.1395 38 8.39962 38 1.98791C38 0.88796 38.896 0 40 0ZM40.16 10.9195C39.0167 13.2235 37.1512 15.0903 34.848 16.2353C36.484 17.2512 37.792 18.5392 38.824 19.9551C39.344 20.6751 39.784 21.419 40.16 22.171C41.251 20.4442 42.6471 18.9303 44.28 17.7032C44.908 17.2232 45.56 16.7912 46.22 16.4033C43.6609 15.281 41.5356 13.3579 40.164 10.9235M11.144 38.1223C8.92672 36.4625 7.12668 34.3089 5.88662 31.8324C4.64657 29.3559 4.00062 26.6245 4 23.8549C4 13.9754 12.06 5.96773 22 5.96773C25.6 5.96773 28.956 7.01968 31.768 8.8276C32.208 8.51961 32.648 8.06763 33.028 7.33167C33.268 6.85169 33.516 6.21172 33.696 5.33176C30.1888 3.14127 26.1351 1.98372 22 1.99191C9.848 1.99191 0 11.7795 0 23.8549C0 30.5186 3 36.4823 7.724 40.4942L2.852 58.2494C2.172 60.7292 3.16 63.6291 5.812 64.8091C12.36 67.7169 24.412 70.2128 37.692 64.8451C40.532 63.6931 41.772 60.5892 40.948 57.8454L35.916 41.1741C35.8865 41.074 35.8491 40.9763 35.804 40.8821C37.6132 39.4309 39.1819 37.703 40.452 35.7624C39.0035 35.8739 37.5638 35.456 36.4 34.5864C34.7185 36.8138 32.5425 38.62 30.0434 39.8625C27.5444 41.105 24.7909 41.7498 22 41.7461C18.0824 41.7539 14.2694 40.483 11.14 38.1263M32.34 43.166L37.116 58.9973C37.408 59.9573 36.94 60.8612 36.18 61.1652C24.128 66.045 13.224 63.7531 7.444 61.1812C6.872 60.9292 6.464 60.2013 6.712 59.3013L11.208 42.918C14.5053 44.7623 18.2219 45.7266 22 45.7179C25.736 45.7179 29.256 44.79 32.34 43.158" fill="#FF6060"/>
</svg>
