<svg width="55" height="55" viewBox="0 0 55 55" fill="none" xmlns="http://www.w3.org/2000/svg">
<path d="M29.1519 0L28.4164 0.657895L1.61198 27.7561L0 29.3726L1.61433 31.0644L23.9377 53.3858L25.6295 55L27.2509 53.3858L54.3444 26.5836L55 25.8459V0H29.1519ZM31.1352 4.69925H50.3004V23.8628L25.6272 48.3882L6.60771 29.3703L31.1352 4.69925ZM43.2509 9.3985C42.6277 9.3985 42.03 9.64604 41.5893 10.0867C41.1486 10.5273 40.9011 11.125 40.9011 11.7481C40.9011 12.3713 41.1486 12.9689 41.5893 13.4096C42.03 13.8502 42.6277 14.0977 43.2509 14.0977C43.8741 14.0977 44.4718 13.8502 44.9125 13.4096C45.3531 12.9689 45.6007 12.3713 45.6007 11.7481C45.6007 11.125 45.3531 10.5273 44.9125 10.0867C44.4718 9.64604 43.8741 9.3985 43.2509 9.3985Z" fill="#008D9F"/>
</svg>
