<svg width="58" height="54" viewBox="0 0 58 54" fill="none" xmlns="http://www.w3.org/2000/svg">
<path d="M58 41.4286V37.2857H53.6479C53.3808 35.9891 52.8659 34.7561 52.1316 33.6545L55.2181 30.5681L52.2891 27.6391L49.2026 30.7255C48.101 29.9912 46.8681 29.4764 45.5714 29.2092V24.8572H41.4286V29.2092C40.1319 29.4764 38.899 29.9912 37.7974 30.7255L34.7109 27.6391L31.7819 30.5681L34.8684 33.6545C34.1341 34.7561 33.6192 35.9891 33.3521 37.2857H29V41.4286H33.3521C33.6192 42.7253 34.1341 43.9582 34.8684 45.0598L31.7819 48.1462L34.7109 51.0752L37.7974 47.9888C38.899 48.7231 40.1319 49.238 41.4286 49.5051V53.8572H45.5714V49.5051C46.8681 49.238 48.101 48.7231 49.2026 47.9888L52.2891 51.0752L55.2181 48.1462L52.1316 45.0598C52.8659 43.9582 53.3808 42.7253 53.6479 41.4286H58ZM43.5 45.5715C42.2709 45.5715 41.0695 45.207 40.0475 44.5242C39.0256 43.8413 38.2291 42.8708 37.7587 41.7353C37.2884 40.5998 37.1653 39.3503 37.4051 38.1448C37.6449 36.9394 38.2368 35.8321 39.1058 34.963C39.9749 34.0939 41.0822 33.5021 42.2877 33.2623C43.4931 33.0225 44.7426 33.1456 45.8781 33.6159C47.0136 34.0863 47.9842 34.8828 48.667 35.9047C49.3498 36.9266 49.7143 38.1281 49.7143 39.3572C49.7126 41.0048 49.0574 42.5845 47.8923 43.7495C46.7273 44.9146 45.1476 45.5698 43.5 45.5715Z" fill="#FFB800"/>
<path d="M53.8571 0H4.14286C3.04444 0.00109677 1.99132 0.437928 1.21463 1.21463C0.437927 1.99133 0.00109677 3.04444 0 4.14286V45.5714C0.00109677 46.6698 0.437927 47.723 1.21463 48.4997C1.99132 49.2764 3.04444 49.7132 4.14286 49.7143H24.8571V45.5714H4.14286V16.5714H53.8571V22.7857H58V4.14286C57.9989 3.04444 57.5621 1.99133 56.7854 1.21463C56.0087 0.437928 54.9556 0.00109677 53.8571 0ZM53.8571 12.4286H4.14286V4.14286H53.8571V12.4286Z" fill="#FFB800"/>
<path d="M37.2857 10.3571C38.4297 10.3571 39.3572 9.42968 39.3572 8.28566C39.3572 7.14164 38.4297 6.21423 37.2857 6.21423C36.1417 6.21423 35.2143 7.14164 35.2143 8.28566C35.2143 9.42968 36.1417 10.3571 37.2857 10.3571Z" fill="#FFB800"/>
<path d="M43.5 10.3571C44.644 10.3571 45.5714 9.42968 45.5714 8.28566C45.5714 7.14164 44.644 6.21423 43.5 6.21423C42.356 6.21423 41.4286 7.14164 41.4286 8.28566C41.4286 9.42968 42.356 10.3571 43.5 10.3571Z" fill="#FFB800"/>
<path d="M49.7143 10.3571C50.8583 10.3571 51.7857 9.42968 51.7857 8.28566C51.7857 7.14164 50.8583 6.21423 49.7143 6.21423C48.5703 6.21423 47.6429 7.14164 47.6429 8.28566C47.6429 9.42968 48.5703 10.3571 49.7143 10.3571Z" fill="#FFB800"/>
</svg>
