<svg width="35" height="24" viewBox="0 0 35 24" fill="none" xmlns="http://www.w3.org/2000/svg">
<path d="M17.5 7.2C18.7658 7.2 19.9798 7.70571 20.8748 8.60589C21.7699 9.50606 22.2727 10.727 22.2727 12C22.2727 13.273 21.7699 14.4939 20.8748 15.3941C19.9798 16.2943 18.7658 16.8 17.5 16.8C16.2342 16.8 15.0202 16.2943 14.1252 15.3941C13.2301 14.4939 12.7273 13.273 12.7273 12C12.7273 10.727 13.2301 9.50606 14.1252 8.60589C15.0202 7.70571 16.2342 7.2 17.5 7.2ZM17.5 0C25.4545 0 32.2477 4.976 35 12C32.2477 19.024 25.4545 24 17.5 24C9.54545 24 2.75227 19.024 0 12C2.75227 4.976 9.54545 0 17.5 0ZM3.46818 12C4.75404 14.6405 6.75071 16.8652 9.23122 18.4212C11.7117 19.9772 14.5765 20.8021 17.5 20.8021C20.4235 20.8021 23.2883 19.9772 25.7688 18.4212C28.2493 16.8652 30.246 14.6405 31.5318 12C30.246 9.35951 28.2493 7.1348 25.7688 5.57879C23.2883 4.02278 20.4235 3.19789 17.5 3.19789C14.5765 3.19789 11.7117 4.02278 9.23122 5.57879C6.75071 7.1348 4.75404 9.35951 3.46818 12Z" fill="black"/>
</svg>
