<svg width="123" height="124" viewBox="0 0 123 124" fill="none" xmlns="http://www.w3.org/2000/svg">
<path d="M118.651 42.4761C126.008 35.0594 122.653 26.3968 118.651 22.1841L100.994 4.38416C93.5775 -3.0325 85.0431 0.349494 80.8642 4.38416L70.8584 14.5301H55.6142C44.4312 14.5301 37.9569 20.4635 34.6608 27.2868L8.52794 53.6308V77.3641L4.34903 81.5174C-3.0082 88.9934 0.346694 97.5967 4.34903 101.809L22.0064 119.609C25.1847 122.813 28.5985 124 31.8356 124C36.0146 124 39.8403 121.923 42.1358 119.609L58.0274 103.53H79.1574C89.1632 103.53 94.225 97.2407 96.0496 91.07C102.701 89.29 106.35 84.1874 107.821 79.2034C116.944 76.8301 120.358 68.1081 120.358 61.9967V44.1968H116.885L118.651 42.4761ZM108.586 61.9967C108.586 64.6667 107.468 67.9301 102.701 67.9301H96.8147V73.8634C96.8147 76.5334 95.6964 79.7967 90.9289 79.7967H85.0431V85.73C85.0431 88.4 83.9248 91.6634 79.1574 91.6634H53.201L33.8957 111.125C32.0711 112.845 31.0116 111.837 30.3642 111.184L12.7657 93.5027C11.0588 91.6634 12.0594 90.5954 12.7068 89.9427L20.2995 82.2294V58.4961L32.0711 46.6294V56.0634C32.0711 63.2427 36.7797 73.8634 49.7284 73.8634C62.6772 73.8634 67.3858 63.2427 67.3858 56.0634H108.586V61.9967ZM110.293 34.0508L100.287 44.1968H55.6142V56.0634C55.6142 58.7334 54.4959 61.9967 49.7284 61.9967C44.9609 61.9967 43.8426 58.7334 43.8426 56.0634V38.2634C43.8426 35.5341 44.8432 26.3968 55.6142 26.3968H75.6847L89.1043 12.8688C90.9289 11.1481 91.9884 12.1568 92.6358 12.8095L110.234 30.4908C111.941 32.3301 110.941 33.3981 110.293 34.0508Z" fill="#000"/>
</svg>
