<svg width="134" height="134" viewBox="0 0 134 134" fill="none" xmlns="http://www.w3.org/2000/svg">
<path d="M121.818 42.6319C125.049 42.6319 128.147 43.9154 130.432 46.2C132.717 48.4847 134 51.5833 134 54.8143V79.1791C134 82.4101 132.717 85.5088 130.432 87.7934C128.147 90.078 125.049 91.3615 121.818 91.3615H115.35C113.865 103.138 108.134 113.967 99.2316 121.818C90.3296 129.668 78.8688 134 67 134V121.818C76.6925 121.818 85.9879 117.967 92.8415 111.113C99.6951 104.259 103.545 94.9633 103.545 85.2703V48.7231C103.545 39.0302 99.6951 29.7342 92.8415 22.8803C85.9879 16.0264 76.6925 12.1759 67 12.1759C57.3075 12.1759 48.0121 16.0264 41.1585 22.8803C34.3049 29.7342 30.4545 39.0302 30.4545 48.7231V91.3615H12.1818C8.951 91.3615 5.85251 90.078 3.56797 87.7934C1.28344 85.5088 0 82.4101 0 79.1791V54.8143C0 51.5833 1.28344 48.4847 3.56797 46.2C5.85251 43.9154 8.951 42.6319 12.1818 42.6319H18.6504C20.1367 30.857 25.8686 20.0291 34.7704 12.18C43.6722 4.33086 55.1322 0 67 0C78.8678 0 90.3278 4.33086 99.2296 12.18C108.131 20.0291 113.863 30.857 115.35 42.6319H121.818ZM41.1745 90.0519L47.6309 79.7213C53.436 83.3579 60.15 85.2814 67 85.2703C73.85 85.2814 80.564 83.3579 86.3691 79.7213L92.8255 90.0519C85.0855 94.9014 76.1336 97.4668 67 97.4528C57.8664 97.4671 48.9144 94.9017 41.1745 90.0519Z" fill="#000"/>
</svg>
