<svg width="125" height="118" viewBox="0 0 125 118" fill="none" xmlns="http://www.w3.org/2000/svg">
<path d="M59.5149 101.007L14.1512 56.4676C11.159 53.5812 8.80214 50.1118 7.22896 46.2779C5.65578 42.4441 4.90037 38.3288 5.01031 34.1914C5.12024 30.0539 6.09314 25.9838 7.86774 22.2374C9.64233 18.4909 12.1802 15.1494 15.3215 12.423C18.4628 9.69672 22.1394 7.64472 26.12 6.39627C30.1006 5.14781 34.2987 4.72994 38.4502 5.16897C42.6017 5.608 46.6165 6.89441 50.2418 8.9472C53.8671 11 57.0244 13.7747 59.5149 17.0966C64.3354 10.741 71.5052 6.54409 79.4471 5.42915C87.389 4.3142 95.4524 6.37254 101.863 11.1514C108.274 15.9302 112.508 23.038 113.633 30.9113C114.757 38.7845 112.681 46.7782 107.861 53.1338M89.7574 107.004L113.951 83.0188M83.7089 95.0112C83.7089 99.7821 85.6206 104.358 89.0235 107.731C92.4265 111.105 97.0419 113 101.854 113C106.667 113 111.282 111.105 114.685 107.731C118.088 104.358 120 99.7821 120 95.0112C120 90.2404 118.088 85.6649 114.685 82.2914C111.282 78.9178 106.667 77.0226 101.854 77.0226C97.0419 77.0226 92.4265 78.9178 89.0235 82.2914C85.6206 85.6649 83.7089 90.2404 83.7089 95.0112Z" stroke="#0BC9B4" stroke-width="10" stroke-linecap="round" stroke-linejoin="round"/>
</svg>
