<svg width="37" height="31" viewBox="0 0 37 31" fill="none" xmlns="http://www.w3.org/2000/svg">
<path d="M18.5 31C18.2566 31.0014 18.0152 30.9554 17.7899 30.8646C17.5645 30.7739 17.3595 30.6401 17.1867 30.4711L2.8141 16.2837C1.01126 14.4878 0 12.0631 0 9.53645C0 7.00976 1.01126 4.58512 2.8141 2.78921C4.63104 1.00304 7.09226 0 9.65818 0C12.2241 0 14.6853 1.00304 16.5023 2.78921L18.5 4.75868L20.4977 2.78921C22.3147 1.00304 24.7759 0 27.3418 0C29.9077 0 32.369 1.00304 34.1859 2.78921C35.9887 4.58512 37 7.00976 37 9.53645C37 12.0631 35.9887 14.4878 34.1859 16.2837L19.8133 30.4711C19.6405 30.6401 19.4355 30.7739 19.2101 30.8646C18.9848 30.9554 18.7434 31.0014 18.5 31Z" fill="black"/>
</svg>
