<svg width="31" height="27" viewBox="0 0 31 27" fill="none" xmlns="http://www.w3.org/2000/svg">
<path d="M3.18669 3.17622C4.79296 1.57605 6.94738 0.640119 9.21763 0.556219C11.4879 0.472318 13.706 1.24666 15.4269 2.72386C17.1463 1.24912 19.3615 0.47565 21.629 0.558303C23.8966 0.640956 26.0491 1.57363 27.6556 3.16961C29.2622 4.76558 30.2042 6.90707 30.2931 9.16535C30.382 11.4236 29.6113 13.632 28.1352 15.3484L17.3834 26.0918C16.8894 26.584 16.2269 26.872 15.5287 26.8981C14.8305 26.9242 14.1482 26.6864 13.6186 26.2325L13.4663 26.0932L2.71591 15.3484C1.24056 13.6335 0.469444 11.4271 0.556725 9.17044C0.644007 6.91374 1.58326 4.773 3.18669 3.17622ZM5.14457 5.12631C4.01227 6.25442 3.35957 7.77347 3.32193 9.36819C3.28428 10.9629 3.86459 12.5108 4.94242 13.6907L5.14457 13.9031L15.4255 24.1431L22.7683 16.8268L17.8736 11.953L16.4059 13.4149C15.627 14.191 14.5704 14.6272 13.4686 14.6275C12.3669 14.6277 11.3101 14.192 10.5308 13.4163C9.75157 12.6405 9.31364 11.5881 9.31338 10.4907C9.31312 9.39332 9.75055 8.34077 10.5294 7.56461L13.44 4.6643C12.2817 3.74356 10.8319 3.26406 9.35068 3.31182C7.8695 3.35959 6.45388 3.93151 5.35781 4.92496L5.14457 5.12631ZM16.8946 9.02649C17.1543 8.76794 17.5064 8.6227 17.8736 8.6227C18.2407 8.6227 18.5929 8.76794 18.8525 9.02649L24.7262 14.8768L25.7065 13.9031C26.8578 12.7572 27.5132 11.2082 27.5326 9.58719C27.552 7.96622 26.9339 6.40203 25.8104 5.22913C24.6869 4.05623 23.1472 3.36774 21.5207 3.3109C19.8941 3.25405 18.3098 3.83337 17.1065 4.92496L16.8946 5.12631L12.4887 9.5147C12.2487 9.75358 12.1051 10.0719 12.0852 10.4093C12.0653 10.7467 12.1705 11.0796 12.3807 11.3448L12.4887 11.4648C12.7286 11.7038 13.0482 11.8468 13.3869 11.8667C13.7256 11.8865 14.0598 11.7818 14.3261 11.5724L14.4466 11.4648L16.8946 9.02649Z" fill="black"/>
</svg>
