<svg width="337" height="204" viewBox="0 0 337 204" fill="none" xmlns="http://www.w3.org/2000/svg">
<path d="M302.107 79.1704C302.078 78.5572 302.942 78.3998 303.14 78.9841C308.33 94.3676 315.03 165.238 314.283 173.851C313.335 184.768 313.105 194.851 303.36 195.77C302.646 195.837 301.662 195.994 301.441 195.086C300.603 191.635 310.817 198.123 310.987 172.027C311.211 137.362 302.693 91.4208 302.107 79.1722V79.1704Z" fill="#191919"/>
<path d="M298.968 104.956C299.057 104.028 300.385 103.975 300.535 104.896C302.756 118.509 307.163 169.315 302.349 186.968C300.584 193.442 294.54 195.681 287.856 195.11C287.235 195.057 286.492 195.028 286.475 194.189C286.461 193.422 287.172 193.411 287.713 193.362C305.982 191.705 300.737 171.669 300.175 124.513C300.084 116.911 298.491 109.936 298.966 104.954L298.968 104.956Z" fill="#191919"/>
<path d="M252.539 99.5034C278.689 101.387 279.549 101.066 279.245 103.83C278.557 110.084 277.137 116.218 276.238 122.436C275.985 124.187 276.133 124.342 248.899 121.213C245.417 120.813 246.728 121.115 249.764 101.893C250.104 99.735 250.388 99.3478 252.539 99.5034ZM271.667 120.782C273.702 121.381 273.063 120.922 275.849 105.679C276.168 103.937 277.215 104.563 256.535 102.901C255.361 102.807 254.002 102.322 253.049 102.743C251.755 103.317 252.506 104.992 252.24 106.159C251.415 109.791 250.818 113.474 250.153 117.145C249.791 119.142 248.085 118.266 271.667 120.784V120.782Z" fill="#191919"/>
<path d="M270.479 146.311C270.437 146.307 244.715 143.737 244.397 143.722C241.647 143.594 242.463 143.225 245.003 128.876C245.71 124.885 245.164 122.863 248.29 123.474C251.257 124.055 268.798 126.014 273.096 126.081C276.624 126.137 275.327 126.314 272.494 144.372C272.262 145.846 271.828 146.694 270.479 146.309V146.311ZM268.227 143.603C269.694 143.416 269.073 143.798 271.51 129.652C271.751 128.261 272.841 128.932 249.527 126.481C247.993 126.32 248.634 126.631 246.448 137.74C245.821 140.934 245.768 141.057 248.981 141.461C255.269 142.251 261.579 142.876 268.225 143.605L268.227 143.603Z" fill="#191919"/>
<path d="M245.294 100.27C244.372 103.865 242.295 116.873 242.103 118.498C241.796 121.115 241.692 120.45 222.429 118.483C214.402 117.664 213.282 118.136 213.878 115.095C217.407 97.0757 214.283 112.385 217.622 97.1083C217.819 96.2038 217.657 96.3702 233.257 97.7595C245.824 98.8774 245.748 98.5048 245.294 100.272V100.27ZM239.299 116.557C240.215 111.94 241.103 107.322 242.078 102.718C242.329 101.533 242.28 101.651 236.182 101.099C219.183 99.5576 219.408 99.1434 219.153 100.668C216.759 114.97 215.996 114.977 218.105 115.173C239.25 117.137 239.066 117.731 239.297 116.557H239.299Z" fill="#191919"/>
<path d="M207.049 116.862C207.007 116.859 183.069 114.371 182.228 114.221C180.147 113.849 180.762 114.033 183.979 98.1412C184.364 96.2418 183.961 93.5591 187.202 93.8359C212.226 95.9686 212.78 94.9701 211.938 98.0182C207.385 114.489 210.079 117.193 207.051 116.862H207.049ZM188.852 96.9943C186.379 96.2201 187.096 97.7993 184.914 108.527C184.297 111.56 184.238 111.654 187.173 111.987C192.922 112.637 198.686 113.141 204.442 113.738C206.425 113.943 205.632 113.892 208.516 100.093C208.93 98.1069 210.128 98.8142 188.852 96.9961V96.9943Z" fill="#191919"/>
<path d="M243.615 146.62C245.788 147.117 266.17 149.589 268.919 149.636C272.447 149.693 271.343 150.073 268.44 167.181C268.244 168.33 267.875 168.954 266.544 168.704C258.963 167.277 251.246 166.881 243.619 165.783C238.648 165.066 238.449 165.527 239.344 160.65C241.801 147.257 241.169 146.276 243.615 146.62ZM267.591 152.04C244.21 149.724 244.398 149.138 244.154 150.649C242.532 160.696 241.624 161.457 242.242 162.434C242.812 163.331 242.309 162.667 263.304 165.374C265.978 165.719 265.256 165.517 267.591 152.04Z" fill="#191919"/>
<path d="M211.641 140.314C207.182 139.945 210.445 138.282 212.352 122.146C212.73 118.948 213.101 119.898 233.995 122.164C244.295 123.282 240.813 120.818 237.795 141.359C237.35 144.386 237.582 142.463 211.643 140.312L211.641 140.314ZM233.555 139.907C235.328 140.491 234.787 139.563 236.967 128.861C237.748 125.028 237.776 125.301 232.89 124.791C215.029 122.926 215.232 122.499 214.973 124.095C212.828 137.362 211.634 137.676 214.016 137.912C220.514 138.554 227.003 139.232 233.557 139.905L233.555 139.907Z" fill="#191919"/>
<path d="M207.555 120.677C204.014 138.288 204.734 140.701 201.136 139.484C199.139 138.807 182.247 136.924 178.649 136.866C177.299 136.844 176.561 136.057 176.858 134.525C180.04 118.051 179.412 116.323 182.741 116.71C208.776 119.731 207.922 118.854 207.555 120.679V120.677ZM199.715 136.347C201.75 137.013 200.984 136.835 203.873 122.884C204.259 121.028 204.608 122.032 184.226 119.645C181.76 119.355 182.965 120.574 180.149 132.74C179.606 135.084 179.336 134.393 199.715 136.345V136.347Z" fill="#191919"/>
<path d="M175.761 117.311C172.221 134.921 172.94 137.335 169.342 136.117C167.345 135.441 150.453 133.557 146.855 133.5C145.506 133.478 144.767 132.691 145.064 131.159C148.246 114.684 147.618 112.957 150.947 113.344C176.982 116.365 176.128 115.488 175.761 117.313V117.311ZM167.921 132.98C169.956 133.646 169.19 133.469 172.079 119.518C172.463 117.662 172.814 118.666 152.432 116.278C149.966 115.989 151.171 117.208 148.355 129.373C147.812 131.718 147.542 131.027 167.921 132.979V132.98Z" fill="#191919"/>
<path d="M231.963 164.388C208.256 161.497 209.157 161.472 206.963 161.617C204 161.812 205.55 160.629 208.256 144.889C208.776 141.87 208.89 142.932 234.335 145.877C236.755 146.157 236.777 146.153 236.335 148.462C233.524 163.183 233.767 165.073 231.963 164.388ZM229.921 161.34C231.319 161.647 230.785 160.726 232.947 150.238C233.408 148.002 232.428 148.482 227.247 147.915C210.635 146.101 210.879 145.634 210.592 147.508C208.933 158.27 207.831 158.753 209.642 158.961C216.314 159.728 222.987 160.52 229.923 161.34H229.921Z" fill="#191919"/>
<path d="M175.069 113.429C152.817 110.963 154.029 110.96 151.943 111.088C148.689 111.287 149.859 110.03 153.716 93.0218C154.398 90.0188 154.027 91.2869 179.121 93.0923C181.406 93.2569 180.93 93.3836 178.593 105.896C177.311 112.767 177.396 113.89 175.069 113.429ZM172.855 110.531C174.74 111.168 174.179 110.643 177.164 97.148C177.49 95.6773 177.43 95.8673 169.789 95.2106C161.451 94.4943 155.811 93.6097 155.579 95.0008C153.269 108.82 152.598 108.733 154.118 108.859C160.427 109.384 166.73 109.977 172.857 110.531H172.855Z" fill="#191919"/>
<path d="M236.644 187.507C234.339 187.32 234.949 187.308 237.107 173.368C237.51 170.761 239.041 169.58 241.696 169.811C249.415 170.482 257.107 171.356 264.723 172.827C268.227 173.503 267.156 172.876 264.424 188.158C263.612 192.698 263.346 189.672 236.644 187.507ZM260.182 187.87C261.861 188.634 261.57 187.474 262.939 178.881C263.134 177.658 263.88 176.161 263.422 175.291C262.832 174.171 261.05 174.715 259.806 174.538C240.133 171.752 240.327 171.486 240.037 173.228C238.194 184.364 236.835 184.753 239.424 185.093L260.184 187.868L260.182 187.87Z" fill="#191919"/>
<path d="M200.657 142.139C203.19 142.364 203.217 142.389 202.7 144.869C201.799 149.182 200.947 153.501 200.062 157.818C199.344 161.322 200.032 160.486 177.119 157.615C171.359 156.893 172.732 158.035 175.54 141.097C176.023 138.183 175.838 139.93 200.656 142.137L200.657 142.139ZM175.871 154.498C175.594 155.35 174.697 154.721 196.016 157.34C197.691 157.546 197.032 157.389 199.348 145.853C199.644 144.379 200.29 145.171 179.274 142.714C177.736 142.535 178.248 142.42 175.869 154.496L175.871 154.498Z" fill="#191919"/>
<path d="M164.913 160.101C168.803 160.509 167.267 160.243 163.866 177.586C163.492 179.495 163.776 178.7 138.915 175.551C135.852 175.162 137.129 174.151 140.138 157.894C140.47 156.097 140.912 157.579 164.913 160.101ZM160.481 175.115C162.502 175.815 161.674 172.449 163.83 163.8C164.38 161.597 164.62 162.452 143.924 159.686C142.185 159.453 142.873 159.379 140.154 171.7C139.821 173.21 138.763 172.586 160.483 175.115H160.481Z" fill="#191919"/>
<path d="M195.263 181.282C194.941 183.19 195.176 182.454 169.854 179.547C168.459 179.386 168.045 178.916 168.492 177.4C171.994 165.567 169.897 160.515 173.855 161.218C205.71 166.882 199.297 157.307 195.261 181.282H195.263ZM195.228 167.443C195.565 165.734 195.871 166.454 175.127 163.722C173.597 163.521 174.356 163.538 171.652 175.234C171.25 176.969 171.956 176.528 176.601 177.127C193.28 179.277 193.159 179.636 193.343 178.462C193.921 174.78 194.508 171.097 195.228 167.443Z" fill="#191919"/>
<path d="M206.533 165.247C230.344 168.201 221.748 167.195 230.33 168.326C233.566 168.753 232.307 168.558 228.915 184.929C228.45 187.17 228.724 186.517 209.472 184.285C203.219 183.559 201.58 183.878 201.909 181.409C204.15 164.599 204.358 165.167 206.533 165.247ZM207.984 167.933C206.677 167.548 206.866 168.158 205.268 176.043C204.973 177.497 204.02 179.413 204.606 180.303C205.303 181.361 207.421 180.971 208.937 181.134C208.975 181.137 214.952 181.986 225.402 183.266C227.694 183.547 227.088 183.894 228.429 175.131C228.646 173.717 229.433 171.966 228.877 170.973C228.193 169.748 226.162 170.381 224.729 170.111C223.416 169.865 224.659 170.041 207.984 167.935V167.933Z" fill="#191919"/>
<path fill-rule="evenodd" clip-rule="evenodd" d="M313.55 64.5756C325.694 73.1827 335.696 157.347 336.175 173.028L336.177 173.029L336.195 173.026C336.405 179.896 336.038 189.697 330.256 193.422C327.454 195.227 324.223 196.423 320.723 196.13C320.368 196.101 319.988 196.123 319.607 196.144C318.738 196.195 317.867 196.246 317.286 195.678C316.436 194.846 317.827 191.868 318.594 190.222C318.787 189.808 318.941 189.478 319.01 189.288C321.863 181.439 322.322 175.593 321.627 167.593C320.933 159.594 318.261 131.312 314.516 113.25C304.934 67.0364 303.791 66.4497 298.467 63.7192C297.383 63.163 296.124 62.5175 294.587 61.3791C291.662 59.2138 296.546 58.7489 299.968 59.5195C305.325 60.7243 300.848 39.9626 282.371 41.7119C280.475 41.8916 280.913 42.4064 282.029 43.725C283.612 45.5945 286.564 49.0795 286.179 55.5144C286.171 55.6219 286.175 55.7398 286.179 55.8603C286.195 56.4229 286.211 57.0367 285.251 56.8639C283.449 56.5392 283.44 56.0759 283.415 54.8326C283.38 53.2565 283.322 50.4269 279.554 45.0368C276.479 40.6374 267.114 49.4127 271.041 59.572C271.094 59.7076 271.146 59.8431 271.197 59.9785C272.038 62.1747 272.845 64.2815 275.406 64.7927C282.284 66.1657 281.843 74.364 276.262 76.0029C271.795 77.3144 266.864 70.8763 270.681 66.9399C271.361 66.2382 270.876 65.4844 270.077 64.2375C269.446 63.2567 268.621 61.9709 268.011 60.1653C267.984 60.0855 267.964 60.017 267.93 59.9564C267.651 59.4707 266.482 59.4942 254.093 58.378C254.017 58.3712 253.937 58.3542 253.854 58.337C253.527 58.2686 253.174 58.1952 253.045 58.7181C252.971 59.022 253.161 59.306 253.442 59.4363C253.731 59.5714 253.93 59.954 254.172 60.4193C254.672 61.38 255.355 62.6932 257.4 62.9077C264.683 63.6693 262.711 76.1259 254.793 73.4324C250.866 72.0974 249.559 67.8101 252.148 64.5231C252.662 63.8694 252.219 63.3059 251.694 62.642C251.302 62.1431 250.864 61.5875 250.753 60.8943C250.339 58.2605 248.783 57.6906 246.367 57.5984C241.336 57.4043 237.76 57.0282 235.326 56.772C231.11 56.3287 230.323 56.246 231.356 58.0958C231.461 58.2852 231.564 58.4728 231.665 58.6575C232.722 60.5843 233.613 62.212 235.979 62.6545C244.04 64.165 240.52 76.8206 232.21 72.8734C230.464 72.0431 229.114 69.3169 229.435 67.1878C229.65 65.7628 230.089 65.1519 230.41 64.7077C230.911 64.0125 231.119 63.7256 229.708 61.3683C229.151 60.4383 228.807 59.4897 228.507 58.6606C228.007 57.2786 227.627 56.2293 226.58 56.1548C222.494 55.863 219.308 55.592 216.846 55.3826C208.865 54.7033 208.49 54.6714 209.691 56.683L209.713 56.7203C210.713 58.3943 211.587 59.8567 214.018 60.1906C215.981 60.4602 217.564 62.3035 218.289 64.3495C219.885 68.8484 213.899 72.2131 210.929 71.0065C205.144 68.6549 206.717 63.2171 208.157 62.5007C209.42 61.8712 209.132 60.7948 208.389 60.1436C206.985 58.9153 206.437 57.3089 205.988 55.6519C205.739 54.7335 205.708 54.7328 201.907 54.649C199.952 54.6058 196.996 54.5407 192.497 54.3169C189.764 54.1812 192.897 57.7702 194.917 58.009C203.069 58.975 200.742 72.0358 191.873 68.4595C189.599 67.5423 187.915 64.5322 189.015 62.0973C190.106 59.6823 189.957 57.924 188.599 55.717C187.929 54.628 187.569 54.2355 186.336 54.2735C180.882 54.4403 177.293 54.4636 174.934 54.479C170.487 54.5079 170.417 54.5083 170.48 55.3878C170.554 56.428 171.404 57.5007 172.971 57.7033C181.327 58.7796 179.471 68.8683 172.884 68.7254C167.58 68.6096 165.842 62.4899 168.792 59.2988C169.668 58.3527 167.629 55.5995 165.082 56.2579C159.494 57.7033 155.114 60.5524 152.439 65.9649C150.619 69.6476 149.057 71.3714 149.438 72.2871C150.009 73.661 154.957 73.2149 169.973 74.8379C183.823 76.3352 259.332 82.3893 284.221 84.3852C289.104 84.7765 292.038 85.0118 292.179 85.0261C293.04 85.1129 293.223 84.7873 293.261 84.0167C293.485 79.5105 293.525 74.9917 291.859 70.7352C289.086 63.6478 283.72 62.7102 279.84 62.0324C277.087 61.5514 275.082 61.2011 275.285 58.8773C275.37 57.9012 276.356 58.0385 277.045 58.1346C277.119 58.1449 277.19 58.1548 277.257 58.1628C277.666 58.2122 278.076 58.2596 278.487 58.3069C280.678 58.5595 282.881 58.8138 284.985 59.4001C291.083 61.0987 296.535 67.11 297.074 74.0221C298.478 92.0359 285.343 179.951 284.949 181.745C282.309 193.782 275.37 204.404 262.944 203.988C262.608 203.977 261.937 203.965 260.971 203.948C251.674 203.789 215.012 203.158 185.545 197.794C180.939 196.957 177.038 196.539 172.808 196.088C164.697 195.222 155.389 194.227 137.631 189.887C127.976 187.528 121.598 179.567 123.503 166.005C124.141 161.457 124.97 156.392 125.937 151.034C126.984 151.28 128.225 151.513 129.689 151.745C126.863 166.148 126.079 174.373 129.667 179.598C135.954 188.753 155.669 188.69 201.348 196.495C220.652 199.793 260.544 200.895 268.308 199.491C281.832 197.047 284.764 166.593 288.06 132.373C289.395 118.51 290.79 104.031 292.971 90.5453C293.047 90.0741 293.114 89.7248 292.998 89.4536C292.512 88.3143 288.796 88.5543 268.946 86.9237L268.749 86.9053C263.892 86.4514 170.494 77.7229 151.131 76.7537L151.135 76.7555C147.082 76.552 147.007 76.8533 144.772 85.7873C143.548 90.6766 141.678 98.1512 138.155 109.543C137.202 114.769 136.264 119.625 135.363 124.138C133.95 123.984 132.637 123.834 131.47 123.688C134.664 109.281 138.183 95.2651 141.184 85.1455C141.331 84.6475 141.481 84.1392 141.633 83.6222C144.482 73.9501 148.234 61.2087 156.781 55.2449C159.344 53.4556 161.503 53.037 163.027 52.7414C164.771 52.4033 165.685 52.2261 165.427 50.3444C164.161 41.0914 170.574 30.2683 185.379 31.692C188.59 32.001 190.587 32.9554 191.983 33.6231C193.13 34.1712 193.872 34.5259 194.55 34.1721C202.895 29.8112 209.505 32.3503 213.362 33.8316C214.84 34.3997 215.914 34.8123 216.526 34.6207C224.567 32.1004 229.746 34.9957 233.006 36.8181C234.563 37.6889 235.683 38.3148 236.466 37.9872C242.776 35.3516 248.97 35.8454 255.03 38.8483C255.665 39.1638 256.73 38.777 258.224 38.234C261.853 36.9147 268.022 34.6723 276.765 39.3277C277.506 39.7235 278.5 39.4791 279.838 39.1497C281.848 38.6558 284.632 37.971 288.505 38.9695C301.515 42.3234 305.533 51.806 304.578 59.3133C304.402 60.6881 305.441 61.0186 307.255 61.596C308.852 62.1044 311.05 62.8039 313.55 64.5756ZM174.679 51.1088C175.643 51.1121 176.605 51.1154 177.568 51.068C184.699 50.7174 186.509 51.0236 186.811 50.4835C187.265 49.677 184.358 46.9844 190.779 37.4047C192.246 35.2159 182.282 32.2238 176.187 35.7441C175.742 36.0013 175.283 36.2421 174.823 36.4834C173.4 37.2293 171.972 37.9778 170.967 39.2192C168.327 42.4753 167.417 46.2452 168.315 50.4095C168.472 51.1439 168.704 51.5166 169.537 51.3791C171.243 51.0975 172.96 51.1032 174.679 51.1088ZM198.979 51.4469C205.326 51.7807 205.326 51.7807 205.296 50.4927L205.297 50.4945C205.162 44.742 207.77 40.3317 212.401 36.5581C212.157 36.5021 211.786 36.3369 211.3 36.1211C208.904 35.0574 203.729 32.7584 197.316 36.1692C196.319 36.6994 196.612 36.9588 197.432 37.6792C198.749 38.8393 201.424 41.1947 202.249 47.8009C202.26 47.8912 202.28 47.9912 202.3 48.0958C202.408 48.649 202.541 49.3288 201.609 49.3639C200.8 49.3929 199.89 49.136 199.809 48.1103C199.579 45.2407 197.971 43.1068 196.366 40.9746C195.979 40.4616 195.594 39.9485 195.227 39.4254C194.691 38.6638 194.156 38.0487 193.042 39.0817C189.831 42.0592 188.951 46.3899 189.65 50.2684C189.785 51.0235 190.238 51.0388 190.751 51.0566C190.789 51.0578 190.827 51.0591 190.865 51.0607C194.337 51.2027 196.974 51.3415 198.979 51.4469ZM216.102 52.2094C218.662 52.2979 221.927 52.4108 226.07 52.6363C227.226 52.6995 227.421 51.6723 227.738 50.0103C228.154 47.8214 228.78 44.531 232.085 41.1801C232.953 40.3009 232.848 39.7926 231.842 39.1974C227.799 36.8078 223.49 36.2904 218.814 37.166C218.955 37.6014 219.436 38.2687 220.055 39.1256C221.647 41.3299 224.143 44.7892 224.084 48.7868C224.082 48.899 224.094 49.0209 224.105 49.1443C224.154 49.6403 224.205 50.1584 223.373 50.1454C223.246 50.1436 223.11 50.1495 222.973 50.1555C222.28 50.1859 221.517 50.2196 221.376 49.2934C220.849 45.8292 219.431 42.9637 217.056 40.2756C215.31 38.2986 215.082 38.4574 213.715 39.408C213.541 39.5281 213.351 39.6607 213.136 39.8034C209.885 41.9652 208.633 45.3462 207.678 48.8918C206.871 51.8907 207.597 51.9158 216.102 52.2094ZM230.093 52.4146C230.509 53.2467 233.136 52.973 247.921 54.0727L247.919 54.0745C249.053 54.1586 249.114 53.2823 249.221 51.7243C249.368 49.5978 249.603 46.2016 252.774 42.2438C253.221 41.6848 253.331 41.3791 252.602 40.9829C247.87 38.4178 243.121 37.9746 238.116 40.7206C240.737 43.5119 241.821 46.6957 242.267 50.1472C242.278 50.229 242.296 50.3221 242.318 50.4205C242.423 50.9336 242.557 51.5929 241.71 51.5763C241.665 51.5754 241.618 51.5747 241.571 51.5739C240.824 51.5631 239.905 51.5499 239.784 50.3299C239.565 48.1003 238.36 46.3485 237.157 44.5985C236.792 44.067 236.426 43.5356 236.088 42.9909C235.692 42.3523 235.258 42.2401 234.581 42.7593C231.632 45.0205 230.229 48.0253 230.033 51.683C230.017 51.9972 230.003 52.2324 230.093 52.4146ZM260.048 55.5696C262.031 55.9553 264.013 56.341 266.025 56.5419L266.023 56.5437C267.3 56.6709 267.34 55.8809 267.418 54.3742C267.552 51.7657 267.798 47.009 274.757 41.1439C273.568 41.1538 272.638 40.6918 271.739 40.2439C271.018 39.8847 270.314 39.5346 269.509 39.4453C266.293 39.0889 263.158 38.9858 260.162 40.7097C258.966 41.3972 258.984 41.645 259.822 42.6019C263.641 46.9652 267.492 56.2435 262.298 53.4685C261.906 53.2586 261.824 52.8295 261.692 52.1325C261.423 50.7089 260.942 48.1676 257.17 44.0943C257.108 44.0271 257.045 43.9536 256.984 43.8787C256.58 43.401 256.135 42.8751 255.375 43.6385C250.913 48.1193 250.453 54.3892 252.492 54.4815C255.05 54.5975 257.548 55.0835 260.048 55.5696Z" fill="#191919"/>
<path d="M129.496 125.308C135.484 126.164 154.741 127.901 156.924 128.364C164.764 130.026 164.793 128.731 164.565 130.679C163.507 139.739 161.701 146.669 160.784 152.112C160.616 153.114 160.325 153.713 159.102 153.5C154.789 152.745 128.869 150.287 124.125 148.536C121.544 147.582 122.593 147.342 125.33 133.85C126.766 126.77 126.416 124.321 129.496 125.307V125.308Z" fill="#FFD77E"/>
<path fill-rule="evenodd" clip-rule="evenodd" d="M106.864 63.1845C118.745 55.7315 119.83 55.0224 116.285 53.0361L116.287 53.0397C113.947 51.7295 112.059 50.6915 110.546 49.8599C106.169 47.4534 104.936 46.7756 104.991 46.2277C105.013 46.0129 105.232 45.8183 105.538 45.5471L105.634 45.4619L107.783 43.5417C121.823 31.0007 123.192 29.7779 123.016 28.8455C122.997 28.745 122.961 28.6478 122.92 28.5402L122.891 28.4647C122.312 26.9021 121.165 26.9857 118.668 27.1675C117.919 27.2222 117.048 27.2857 116.035 27.316C111.401 27.4552 107.875 27.5963 105.193 27.7035C98.7749 27.9602 97.1963 28.0234 96.8528 27.4029C96.7408 27.2004 96.7602 26.9253 96.7859 26.5604C96.79 26.4995 96.7946 26.436 96.7985 26.3699C96.9695 23.6002 97.2043 21.3325 97.393 19.5105C97.7578 15.9879 97.9501 14.1317 97.1739 13.5349C96.3094 12.8701 94.2435 13.7677 89.8768 15.6651C88.3023 16.3493 86.4287 17.1635 84.2044 18.0812C84.1017 18.1235 84.0067 18.1664 83.9181 18.2062C83.6397 18.3316 83.4248 18.4282 83.233 18.3942C82.582 18.2787 82.1985 16.6563 80.5134 9.52762L80.5128 9.52564C80.0781 7.68699 79.557 5.48221 78.9222 2.84236C78.8862 2.69204 78.8564 2.54044 78.8265 2.3903C78.674 1.61931 78.5291 0.887942 77.6252 0.568477C76.5962 0.203786 75.996 0.822457 75.4066 1.42991C75.3059 1.53375 75.2057 1.63722 75.1035 1.73527C72.6165 4.12602 70.7625 5.96158 69.3627 7.34762C66.3015 10.3784 65.4128 11.2585 64.8245 11.0899C64.5839 11.0208 64.3936 10.7764 64.1253 10.4318L64.0994 10.3985C63.0526 9.05458 62.1226 7.83732 61.291 6.74885C55.9429 -0.251172 54.6618 -1.92828 52.531 2.29243C50.6891 5.94169 49.3742 8.69134 48.398 10.7322C46.523 14.6526 45.8984 15.9585 45.1922 16.0043C44.8394 16.0271 44.4662 15.7355 43.9067 15.2985C43.788 15.2057 43.661 15.1065 43.5241 15.0023C41.4195 13.401 39.5136 11.9341 37.7931 10.6096C29.727 4.40134 25.731 1.32535 24.4027 2.21826C23.0986 3.09508 24.3667 7.79842 26.8804 17.1205C27.585 19.7335 28.3875 22.7097 29.2585 26.066C29.7433 27.9365 29.5606 28.1862 27.672 27.9781C24.9806 27.6813 22.2807 27.6885 19.5825 27.6956C18.1711 27.6994 16.7601 27.7032 15.3511 27.6634C12.5689 27.5856 13.9744 31.6214 15.2172 33.9025C16.2203 35.7444 17.0359 37.1784 17.6754 38.3031C19.9502 42.3031 19.9991 42.3886 18.3413 42.9872C13.9712 44.5659 9.78502 46.5735 5.59995 48.5808L4.86085 48.9351C2.27039 50.1743 2.23421 51.6703 4.66186 53.2586C8.10032 55.5093 10.6208 57.0763 12.4247 58.1977C15.4547 60.0813 16.4629 60.7082 16.403 61.2067C16.3731 61.4553 16.0779 61.672 15.6354 61.9967L15.6315 61.9996C-0.170642 73.6074 -0.131714 73.8332 0.0290502 74.7648L0.0381134 74.818L0.044626 74.858C0.0556788 74.9266 0.0658272 74.9895 0.0859431 75.049C0.310835 75.7144 1.78201 75.9582 19.6908 78.9282L19.9622 78.9732C21.7661 79.2728 21.6472 79.625 20.3748 83.3951C19.8033 85.0887 18.9992 87.4717 18.032 90.8492C16.9057 94.7812 19.363 94.3939 26.9401 93.1998C28.3565 92.9766 29.9526 92.7249 31.7368 92.4682C33.6739 92.1895 33.6798 92.4816 33.7847 97.6917C33.8166 99.2787 33.8578 101.322 33.9655 103.944C34.1031 107.32 37.2435 105.567 38.3019 104.977C38.4118 104.916 38.4991 104.867 38.5585 104.838C40.913 103.678 42.7998 102.722 44.3202 101.949C50.3823 98.8715 50.6195 98.751 51.4511 100.641C57.0553 113.375 58.6779 115.299 60.9862 112.09C62.9307 109.388 64.3842 107.298 65.4936 105.705C67.988 102.121 68.7425 101.038 69.4222 101.083C69.7169 101.102 69.9974 101.334 70.3997 101.666L70.4273 101.689C70.9745 102.141 71.4976 102.573 71.9982 102.986L72.0041 102.991C81.1171 110.525 82.6966 111.832 83.6979 107.532C84.6793 103.318 85.2725 100.369 85.6798 98.3452C86.2656 95.4332 86.4667 94.434 86.8846 94.3331C87.103 94.2803 87.3805 94.4728 87.8029 94.7656L87.8839 94.8217C87.9219 94.8488 109.394 109.268 113.318 111.714L113.739 111.976C117.379 114.25 125.035 119.033 127.11 117.477C128.058 116.766 125.618 113.588 118.256 103.999C113.999 98.4531 108.096 90.7635 100.25 80.1672C102.371 79.917 104.395 79.739 106.243 79.5767C113.423 78.9458 117.945 78.5485 115.16 75.0423C111.813 70.8283 109.424 68.3357 107.917 66.7637C105.644 64.3927 105.379 64.1156 106.864 63.1845ZM47.7445 85.9953L47.6976 85.9957C45.9592 85.6176 46.3065 84.4201 50.2157 76.9544C75.8737 27.9452 75.9922 28.034 77.3043 29.0188C77.3772 29.0735 77.4537 29.131 77.5385 29.1829C78.557 29.807 78.4557 30.6934 77.9654 31.6214C49.222 85.9877 49.0737 85.9885 47.7445 85.9953ZM42.4948 54.0093C31.6554 53.7959 32.5074 69.9953 43.4861 70.2395C54.1645 70.4765 53.1732 54.2192 42.4948 54.0093ZM43.8298 66.9851C37.5201 66.6758 36.1579 57.0394 42.5237 57.2148C49.3201 57.403 50.0871 67.2927 43.8298 66.9851ZM90.2681 50.9576C90.3351 54.997 86.3933 59.0998 82.4949 59.0473V59.0491C72.8639 58.9189 71.6592 42.2492 82.4949 42.2654C87.0029 42.2727 90.1831 45.8255 90.2681 50.9576ZM87.1115 51.1692C87.0445 58.2604 77.9653 57.3379 78.0901 50.2449C78.2022 43.8682 87.1802 43.8519 87.1115 51.1692Z" fill="#FFD77E"/>
<circle cx="64" cy="173" r="29" fill="#0BC9B4"/>
<path d="M55.7516 184V179.739L63.8908 173.006C64.4306 172.558 64.8922 172.139 65.2757 171.749C65.6664 171.351 65.9647 170.942 66.1706 170.523C66.3837 170.104 66.4902 169.639 66.4902 169.128C66.4902 168.567 66.3695 168.087 66.128 167.69C65.8936 167.292 65.5669 166.987 65.1479 166.773C64.7289 166.553 64.2459 166.443 63.699 166.443C63.1522 166.443 62.6692 166.553 62.2502 166.773C61.8382 166.994 61.5186 167.317 61.2914 167.743C61.0641 168.169 60.9505 168.687 60.9505 169.298H55.3255C55.3255 167.764 55.6699 166.443 56.3588 165.335C57.0478 164.227 58.0208 163.375 59.2779 162.778C60.535 162.182 62.0087 161.884 63.699 161.884C65.4462 161.884 66.959 162.164 68.2374 162.725C69.5229 163.279 70.5137 164.06 71.2097 165.069C71.9128 166.077 72.2644 167.26 72.2644 168.616C72.2644 169.455 72.0904 170.289 71.7424 171.12C71.3944 171.944 70.7694 172.857 69.8674 173.858C68.9654 174.859 67.6834 176.053 66.0215 177.438L63.976 179.142V179.27H72.4988V184H55.7516Z" fill="black"/>
</svg>
