<svg width="241" height="230" viewBox="0 0 241 230" fill="none" xmlns="http://www.w3.org/2000/svg">
<path d="M237.677 15.1023C226.593 5.73682 223.776 0.655466 178.446 0.0422041C140.949 -0.46494 139.774 3.40097 133.92 22.4331C133.522 23.4104 132.74 25.4192 131.642 28.2795C132.338 28.5596 132.987 28.8471 133.593 29.1333L135.99 22.6367C143.125 3.71441 143.097 4.99029 157.199 3.53669C157.547 3.5009 157.788 3.54779 157.932 3.93528C160.812 11.672 167.295 11.8917 187.892 11.4869C189.331 11.4585 190.777 11.25 191.988 10.3073C198.476 5.26423 197.146 3.48486 199.361 3.64527C206.351 4.14875 213.244 5.32222 220.127 6.59563C232.01 8.79449 214.356 40.4719 159.927 204.679C158.962 207.593 160.988 205.42 79.7948 177.698C79.374 177.555 78.7311 177.564 79.0988 176.779L89.5366 148.501C88.7407 148.293 87.9893 148.073 87.2835 147.848C79.5159 169.542 73.772 186.389 73.2377 190.123C72.749 193.539 74.5901 197.239 77.8032 198.48C180.434 238.141 164.646 247.226 187.523 180.03C240.85 23.3955 239.113 27.776 240.674 23.2956C241.774 20.1417 239.918 16.9964 237.676 15.1011L237.677 15.1023ZM185.72 9.04004C170.092 7.68889 163.889 10.6269 160.188 3.29485C171.91 2.38298 183.404 2.937 195.131 3.37998C192.501 6.37106 190.362 9.44107 185.72 9.04004ZM79.179 196.634C73.25 194.255 76.2682 185.734 78.0451 179.631C78.2746 178.845 78.6855 179.026 79.2666 179.246C157.488 208.73 159.474 206.295 158.447 209.07C155.75 216.346 153.979 220.56 146.173 221.769C142.285 222.371 145.324 223.173 79.1778 196.635L79.179 196.634ZM226.077 57.6914C168.23 228.207 173.941 228.246 158.212 226.461C155.794 226.185 148.103 224.115 147.674 223.726C159.255 221.519 157.218 220.136 191.475 119.558C227.526 13.7166 227.543 16.6188 225.474 8.75501C229.666 11.3129 233.479 14.0152 236.773 17.4098C239.877 20.6094 239.154 19.1422 226.077 57.6914Z" fill="#191919"/>
<path d="M142.646 22.1505C152.834 16.1771 209.256 22.4837 198.978 30.3426C189.895 37.2871 129.99 29.5726 142.646 22.1505ZM162.736 21.7729C109.983 21.8507 179.926 35.6485 196.821 29.0494C201.639 27.1677 181.387 21.7446 162.736 21.7729Z" fill="#191919"/>
<path d="M132.919 166.478C130.107 165.757 133.912 163.232 169.229 130.454C169.818 129.907 170.432 129.284 171.166 130.091C171.864 130.858 171.3 131.422 170.682 132.006C149.182 152.339 135.149 166.098 132.919 166.478Z" fill="#191919"/>
<path d="M146.295 168.665C144.353 168.299 146.01 166.525 148.079 164.515C148.478 164.128 161.354 151.662 162.172 151.059C163.175 150.321 164.223 151.434 163.463 152.362C162.941 152.997 148.353 168.009 146.295 168.665Z" fill="#191919"/>
<path d="M209.584 34.6501C203.083 33.9048 202.025 34.2392 202.397 32.297C203.565 26.2174 203.156 25.403 204.342 25.5721C212.334 26.7097 212.873 26.4987 212.694 27.8203C212.422 29.8291 212.19 31.8441 211.817 33.8344C211.557 35.2226 210.391 34.4798 209.582 34.6513L209.584 34.6501ZM205.197 27.2194C204.149 26.917 204.643 28.5471 203.932 31.5838C203.61 32.9596 204.389 32.3377 209.39 33.0805C210.746 33.2816 210.343 32.3883 210.99 28.953C211.208 27.8018 211.191 28.1238 205.197 27.2194Z" fill="#191919"/>
<path d="M228.585 31.2506C223.263 29.7613 211.905 70.7474 220.403 62.8478C224.598 58.9498 232.923 32.4648 228.585 31.2506ZM219.459 61.1475C218.469 57.3704 223.876 37.5547 228.006 33.5432C227.044 43.2543 224.217 52.3779 219.459 61.1475Z" fill="#191919"/>
<path d="M215.825 72.8724C211.194 72.8441 211.494 66.1142 215.8 66.0562C220.225 65.997 220.336 72.8996 215.825 72.8724ZM217.387 69.2546C216.978 67.3679 214.397 67.5406 214.424 69.3483C214.45 71.0561 217.156 71.4719 217.387 69.2546Z" fill="#191919"/>
<path d="M83.9692 188.449C90.0488 190.981 92.9843 191.61 92.471 193.275C91.8281 195.362 85.6856 191.421 83.7977 191.585C84.9897 193.913 85.6597 194.735 84.7219 195.208C83.4547 195.848 81.5223 191.75 80.1083 189.559C79.2174 188.178 80.8005 187.638 85.1155 185.407C86.6604 184.607 87.2922 186.697 85.9423 187.299C85.292 187.589 84.7046 188.014 83.9692 188.449Z" fill="#191919"/>
<path d="M104.537 198.743C102.211 197.959 98.5626 197.114 96.4538 196.127C95.1236 195.504 95.3396 193.838 97.0313 193.982C98.2887 194.09 99.1376 194.338 104.674 196.009C103.124 193.658 102.263 192.772 103.153 192.156C104.083 191.512 104.711 192.45 108.281 197.342C109.219 198.627 107.604 199.425 103.851 201.838C102.385 202.78 101.112 201.212 102.727 200.034C103.264 199.642 103.809 199.262 104.537 198.743Z" fill="#191919"/>
<path d="M119.293 208.734C112.372 208.644 112.868 198.455 119.371 198.629C125.873 198.803 126.03 208.822 119.293 208.734ZM119.111 206.799C123.34 206.8 123.108 200.706 119.227 200.792C115.126 200.883 115.279 206.798 119.111 206.799Z" fill="#191919"/>
<path d="M139.789 215.698C132.898 215.655 133.352 205.596 139.738 205.596C146.125 205.596 146.605 215.74 139.789 215.698ZM139.572 213.764C143.677 213.859 143.762 207.888 139.922 207.754C135.727 207.609 135.621 213.672 139.572 213.764Z" fill="#191919"/>
<path d="M129.316 84.6343C128.603 85.7387 128.26 86.9924 127.691 88.1066C111.675 119.44 95.0956 113.934 95.1055 116.7C95.1079 117.375 95.6447 117.486 96.1543 117.489C116.95 117.595 131.028 91.6924 129.316 84.6343Z" fill="#FFD77E"/>
<path d="M64.7349 95.2943C65.5036 77.6984 75.9291 58.5676 90.6659 47.9682C89.7688 47.4734 88.7015 47.0464 87.486 46.7527C85.4019 48.3593 83.3339 50.167 81.2954 52.1857C69.1079 64.2572 62.1029 80.3366 61.9462 96.8354C61.9425 97.1735 61.9437 97.5079 61.9462 97.8411C62.6828 96.8095 63.6342 95.9384 64.7349 95.2943Z" fill="#FFD77E"/>
<path d="M105.711 37.7069C106.505 38.5311 107.234 39.4072 107.893 40.329C121.01 37.8648 131.509 43.1312 137.484 52.9286C152.456 77.4838 132.195 120.73 101.295 128.946C99.7428 129.064 80.6663 134.615 69.7423 116.698C68.791 115.136 67.9815 113.503 67.3078 111.814C65.9702 111.517 64.7388 110.918 63.6924 110.092C68.9205 127.781 85.0899 136.064 101.485 131.839C123.216 126.24 144.993 102.051 145.274 72.7924C145.52 47.0378 127.002 32.6379 105.711 37.7069Z" fill="#FFD77E"/>
<path d="M162.403 69.6853C160.245 41.7417 139.453 35.3772 135.192 32.8192C124.155 26.1906 109.339 27.4393 97.9672 32.3442C99.174 32.8439 100.779 33.7064 102.264 34.7528C112.676 30.5513 123.612 29.9503 133.308 35.4413C150.56 45.2091 157.971 71.4597 145.832 98.0829C127.614 138.046 91.2213 149.128 71.7845 134.352C51.8146 119.171 53.9456 88.1461 66.4354 66.7522C70.6702 59.498 76.6869 52.3091 83.6758 46.3332C83.4944 46.3357 83.3118 46.3406 83.1255 46.348C81.266 46.4282 79.3213 46.7071 77.4359 46.9785C65.8591 58.4615 55.1449 75.5699 54.4515 96.9785C53.3668 130.433 70.8121 134.391 69.1562 137.221C64.297 145.525 64.777 146.03 63.031 145.947C58.9109 145.751 56.9958 146.83 35.2614 186.575C29.9222 196.339 25.3641 205.585 33.2082 210.787C40.6364 215.714 45.0415 210.876 49.4985 202.916C74.3214 158.585 77.1138 154.41 73.6045 151.287C72.5088 150.311 74.4633 149.921 78.4279 142.517C79.6446 140.244 85.3071 147.336 101.806 147.579C129.379 147.984 165.632 111.513 162.403 69.6853ZM64.4882 163.054C41.1497 207.552 36.6669 206.409 38.5474 202.662C38.5646 202.626 59.5093 166.089 65.7123 158.315C66.1207 157.802 66.6044 159.018 64.4882 163.054ZM76.6104 141.209C71.5562 150.443 71.8128 149.932 71.2662 149.506C68.3578 147.238 65.526 147.336 66.386 145.93C71.3662 137.782 71.1132 137.64 71.9449 138.187C76.5413 141.209 76.7078 140.426 76.6116 141.207L76.6104 141.209Z" fill="#FFD77E"/>
<path d="M77.0853 72.9884C81.5275 67.4604 88.087 66.2018 93.3633 61.3166C96.4358 58.4724 97.8992 53.6182 96.3235 49.8288C95.329 47.4349 93.1758 46.2059 90.9794 45.0029C82.6133 40.425 69.0475 48.4875 66.9609 42.3746C62.9754 30.6955 89.4345 31.405 97.3921 35.1425C110.884 41.48 117.432 63.3872 92.2219 76.0534C81.0425 81.6703 79.9246 88.8234 77.8146 91.6688C73.3626 97.6694 63.791 89.5329 77.0866 72.9871L77.0853 72.9884Z" fill="#FFD77E"/>
<path d="M75.4249 102.777C75.7765 110.941 63.436 111.472 63.0831 103.309C62.7302 95.145 75.0732 94.6132 75.4249 102.777Z" fill="#FFD77E"/>
<circle cx="29" cy="198" r="29" fill="#0BC9B4"/>
<path d="M33.557 187.182V209H27.6337V192.636H27.5059L22.7331 195.491V190.463L28.1025 187.182H33.557Z" fill="black"/>
</svg>
