<svg width="80" height="49" viewBox="0 0 80 49" fill="none" xmlns="http://www.w3.org/2000/svg">
<path d="M71.8795 18.8369C71.8726 18.691 72.0783 18.6535 72.1252 18.7925C73.3601 22.4527 74.9543 39.3147 74.7765 41.3639C74.551 43.9614 74.4963 46.3604 72.1778 46.5791C72.0077 46.595 71.7736 46.6324 71.7211 46.4164C71.5218 45.5952 73.9519 47.139 73.9923 40.93C74.0457 32.6821 72.0189 21.7516 71.8795 18.8373V18.8369Z" fill="#191919"/>
<path d="M71.1326 24.9719C71.1537 24.7511 71.4696 24.7386 71.5053 24.9577C72.0339 28.1965 73.0823 40.2848 71.937 44.4847C71.5169 46.0252 70.079 46.558 68.4886 46.422C68.341 46.4095 68.1641 46.4026 68.1602 46.2029C68.1568 46.0204 68.3259 46.0178 68.4546 46.0062C72.8013 45.612 71.5535 40.8448 71.4197 29.625C71.3981 27.8164 71.019 26.1568 71.1322 24.9715L71.1326 24.9719Z" fill="#191919"/>
<path d="M60.0855 23.6747C66.3075 24.1228 66.5119 24.0466 66.4396 24.7043C66.2761 26.1922 65.9382 27.6517 65.7243 29.131C65.664 29.5476 65.6993 29.5846 59.2196 28.84C58.391 28.7449 58.7031 28.8168 59.4253 24.2433C59.5062 23.7298 59.5738 23.6377 60.0855 23.6747ZM64.6366 28.7376C65.1209 28.8801 64.9689 28.7707 65.6317 25.1441C65.7075 24.7297 65.9567 24.8786 61.0363 24.483C60.757 24.4607 60.4337 24.3453 60.2069 24.4456C59.8992 24.582 60.0778 24.9806 60.0145 25.2582C59.8183 26.1225 59.6762 26.9988 59.5178 27.872C59.4318 28.3472 59.0259 28.1389 64.6366 28.738V28.7376Z" fill="#191919"/>
<path d="M64.3545 34.8113C64.3446 34.8105 58.2247 34.1988 58.149 34.1954C57.4947 34.1648 57.6889 34.077 58.2932 30.6631C58.4614 29.7136 58.3315 29.2324 59.0752 29.3779C59.7811 29.516 63.9547 29.9822 64.9773 29.9981C65.8166 30.0114 65.508 30.0536 64.834 34.3499C64.7789 34.7007 64.6756 34.9026 64.3545 34.8109V34.8113ZM63.8187 34.167C64.1678 34.1227 64.0201 34.2135 64.5999 30.8477C64.6571 30.5167 64.9167 30.6764 59.3696 30.0932C59.0046 30.0549 59.157 30.1289 58.637 32.7721C58.4877 33.5321 58.4752 33.5614 59.2396 33.6574C60.7357 33.8455 62.237 33.994 63.8183 34.1674L63.8187 34.167Z" fill="#191919"/>
<path d="M58.3624 23.8571C58.1429 24.7123 57.6488 27.8074 57.6032 28.1939C57.53 28.8167 57.5055 28.6583 52.9221 28.1904C51.0124 27.9955 50.746 28.1078 50.8876 27.3843C51.7273 23.097 50.984 26.7396 51.7785 23.1048C51.8254 22.8896 51.7867 22.9292 55.4985 23.2597C58.4885 23.5257 58.4704 23.4371 58.3624 23.8576V23.8571ZM56.9361 27.7321C57.1538 26.6337 57.3652 25.5348 57.5972 24.4395C57.657 24.1576 57.6454 24.1855 56.1945 24.0543C52.1499 23.6876 52.2033 23.589 52.1426 23.9518C51.5732 27.3546 51.3916 27.3563 51.8934 27.4028C56.9244 27.8702 56.8805 28.0114 56.9356 27.7321H56.9361Z" fill="#191919"/>
<path d="M49.2623 27.8048C49.2524 27.8039 43.5568 27.2121 43.3567 27.1764C42.8617 27.0877 43.008 27.1316 43.7733 23.3505C43.865 22.8986 43.769 22.2603 44.5403 22.3261C50.4941 22.8336 50.6258 22.596 50.4256 23.3212C49.3423 27.2401 49.9832 27.8835 49.2627 27.8048H49.2623ZM44.9328 23.0776C44.3444 22.8934 44.5149 23.2691 43.9958 25.8214C43.849 26.5432 43.8348 26.5656 44.5334 26.6448C45.9012 26.7993 47.2725 26.9194 48.642 27.0614C49.1138 27.1101 48.9252 27.098 49.6113 23.8149C49.7099 23.3423 49.9948 23.5106 44.9328 23.078V23.0776Z" fill="#191919"/>
<path d="M57.9628 34.885C58.4798 35.0033 63.3291 35.5913 63.9833 35.6024C64.8226 35.6162 64.5601 35.7066 63.8693 39.7769C63.8228 40.0502 63.735 40.1987 63.4182 40.1393C61.6144 39.7998 59.7783 39.7055 57.9637 39.4442C56.781 39.2738 56.7336 39.3835 56.9467 38.2232C57.5311 35.0365 57.3809 34.8032 57.9628 34.885ZM63.6674 36.1745C58.1044 35.6235 58.1492 35.4841 58.0911 35.8435C57.705 38.2339 57.489 38.4151 57.6362 38.6476C57.7717 38.861 57.6521 38.7031 62.6474 39.347C63.2835 39.4292 63.1118 39.381 63.6674 36.1745Z" fill="#191919"/>
<path d="M50.3552 33.3845C49.2943 33.2967 50.0707 32.9012 50.5244 29.062C50.6143 28.301 50.7025 28.527 55.6737 29.0663C58.1245 29.3323 57.2959 28.746 56.578 33.6333C56.4721 34.3534 56.5272 33.8958 50.3556 33.3841L50.3552 33.3845ZM55.5691 33.2877C55.9909 33.4267 55.8622 33.2059 56.3809 30.6596C56.5668 29.7476 56.5733 29.8126 55.4108 29.6912C51.1614 29.2475 51.2096 29.1459 51.148 29.5255C50.6376 32.6821 50.3535 32.757 50.9203 32.8129C52.4664 32.9657 54.0102 33.1271 55.5696 33.2873L55.5691 33.2877Z" fill="#191919"/>
<path d="M49.3825 28.7125C48.5402 32.9025 48.7115 33.4767 47.8554 33.187C47.3803 33.0261 43.3611 32.578 42.5051 32.5642C42.184 32.5591 42.0084 32.3718 42.079 32.0073C42.836 28.0876 42.6867 27.6765 43.4786 27.7687C49.673 28.4874 49.4699 28.2787 49.3825 28.713V28.7125ZM47.5171 32.4407C48.0013 32.5991 47.8193 32.5569 48.5066 29.2376C48.5983 28.796 48.6814 29.0349 43.832 28.4668C43.2454 28.3979 43.532 28.688 42.8619 31.5825C42.7328 32.1403 42.6686 31.9759 47.5171 32.4403V32.4407Z" fill="#191919"/>
<path d="M41.8185 27.9116C40.9762 32.1016 41.1475 32.6758 40.2915 32.3861C39.8163 32.2252 35.7972 31.7771 34.9411 31.7633C34.62 31.7582 34.4444 31.5709 34.515 31.2064C35.2721 27.2867 35.1227 26.8756 35.9147 26.9678C42.1091 27.6865 41.9059 27.4778 41.8185 27.9121V27.9116ZM39.9532 31.6398C40.4374 31.7982 40.2553 31.756 40.9427 28.4367C41.0339 27.9951 41.1174 28.234 36.268 27.6659C35.6814 27.597 35.968 27.8871 35.2979 30.7816C35.1688 31.3394 35.1047 31.175 39.9532 31.6394V31.6398Z" fill="#191919"/>
<path d="M55.1904 39.1125C49.55 38.4247 49.7643 38.4187 49.2422 38.4531C48.5372 38.4996 48.9061 38.2181 49.55 34.4731C49.6735 33.7548 49.7006 34.0074 55.7547 34.7081C56.3306 34.7748 56.3357 34.774 56.2307 35.3232C55.5619 38.8258 55.6195 39.2756 55.1904 39.1125ZM54.7045 38.3872C55.0372 38.4604 54.9102 38.2413 55.4246 35.7458C55.5343 35.2139 55.301 35.3279 54.0684 35.1932C50.1159 34.7615 50.174 34.6505 50.1056 35.0964C49.7109 37.6568 49.4488 37.7718 49.8797 37.8212C51.467 38.0037 53.0548 38.1923 54.7049 38.3872H54.7045Z" fill="#191919"/>
<path d="M41.6538 26.9879C36.3594 26.4013 36.6477 26.4004 36.1515 26.431C35.3772 26.4783 35.6556 26.1792 36.5733 22.1325C36.7355 21.418 36.6473 21.7197 42.6179 22.1493C43.1615 22.1885 43.0483 22.2186 42.4922 25.1957C42.187 26.8304 42.2073 27.0977 41.6538 26.9879ZM41.127 26.2984C41.5754 26.4499 41.442 26.3251 42.1522 23.1143C42.2297 22.7643 42.2155 22.8095 40.3974 22.6533C38.4137 22.4829 37.0717 22.2724 37.0166 22.6034C36.467 25.8912 36.3073 25.8706 36.6688 25.9007C38.1701 26.0255 39.6696 26.1667 41.1274 26.2984H41.127Z" fill="#191919"/>
<path d="M56.3038 44.613C55.7555 44.5687 55.9006 44.5656 56.414 41.2489C56.51 40.6287 56.8741 40.3477 57.506 40.4028C59.3425 40.5624 61.1726 40.7703 62.9846 41.1202C63.8183 41.2812 63.5635 41.1319 62.9136 44.7679C62.7203 45.8483 62.6571 45.1282 56.3038 44.613ZM61.9043 44.6995C62.3037 44.8811 62.2344 44.6052 62.5602 42.5608C62.6067 42.2699 62.784 41.9135 62.6751 41.7065C62.5348 41.44 62.1109 41.5696 61.8148 41.5274C57.1341 40.8646 57.1802 40.8013 57.1113 41.2158C56.6727 43.8654 56.3495 43.9579 56.9654 44.0388L61.9047 44.6991L61.9043 44.6995Z" fill="#191919"/>
<path d="M47.7418 33.8188C48.3443 33.8722 48.3508 33.8782 48.2277 34.4683C48.0134 35.4944 47.8106 36.5222 47.6002 37.5491C47.4293 38.3828 47.5929 38.184 42.1413 37.5009C40.7709 37.3292 41.0976 37.6008 41.7656 33.5709C41.8805 32.8775 41.8366 33.2933 47.7413 33.8184L47.7418 33.8188ZM41.8444 36.7594C41.7785 36.9621 41.565 36.8123 46.6374 37.4355C47.0359 37.4846 46.8792 37.4471 47.4302 34.7025C47.5008 34.3517 47.6544 34.5402 42.654 33.9557C42.2881 33.9131 42.4099 33.8855 41.8439 36.7589L41.8444 36.7594Z" fill="#191919"/>
<path d="M39.2376 38.0923C40.163 38.1896 39.7976 38.1263 38.9884 42.2526C38.8993 42.7066 38.9669 42.5177 33.0518 41.7684C32.3231 41.6758 32.627 41.4352 33.3428 37.5672C33.422 37.1398 33.527 37.4923 39.2376 38.0923ZM38.1831 41.6646C38.6639 41.8312 38.4667 41.0302 38.9798 38.9725C39.1106 38.4482 39.1679 38.6518 34.2436 37.9937C33.83 37.9382 33.9935 37.9205 33.3466 40.852C33.2675 41.2114 33.0157 41.0629 38.1835 41.6646H38.1831Z" fill="#191919"/>
<path d="M46.4583 43.1319C46.3817 43.586 46.4377 43.4108 40.4128 42.7192C40.081 42.6809 39.9824 42.569 40.0887 42.2083C40.922 39.393 40.4232 38.1909 41.3649 38.3583C48.9439 39.7059 47.4181 37.4278 46.4579 43.1319H46.4583ZM46.4501 39.8393C46.5302 39.4326 46.6029 39.6039 41.6675 38.954C41.3033 38.9062 41.4841 38.9101 40.8407 41.6931C40.7451 42.1059 40.913 42.0008 42.0182 42.1433C45.9866 42.655 45.9577 42.7403 46.0017 42.4609C46.1389 41.5851 46.2788 40.7088 46.4501 39.8393Z" fill="#191919"/>
<path d="M49.1394 39.3169C54.8048 40.0198 52.7595 39.7805 54.8014 40.0495C55.5714 40.1511 55.2718 40.1046 54.4648 43.9997C54.3542 44.533 54.4192 44.3776 49.8388 43.8465C48.3509 43.6739 47.9609 43.7497 48.0393 43.1622C48.5725 39.1628 48.622 39.298 49.1394 39.3169ZM49.4846 39.9561C49.1738 39.8644 49.2186 40.0095 48.8385 41.8856C48.7684 42.2316 48.5416 42.6874 48.681 42.8992C48.8467 43.151 49.3507 43.058 49.7114 43.0968C49.7204 43.0976 51.1425 43.2995 53.6289 43.6042C54.1743 43.6709 54.0301 43.7535 54.349 41.6687C54.4007 41.3321 54.5879 40.9155 54.4558 40.6792C54.2931 40.3878 53.8097 40.5384 53.4688 40.4743C53.1564 40.4158 53.452 40.4575 49.4846 39.9565V39.9561Z" fill="#191919"/>
<path fill-rule="evenodd" clip-rule="evenodd" d="M74.6018 15.3644C77.4911 17.4122 79.8708 37.4373 79.9849 41.168L79.9853 41.1685L79.9896 41.1676C80.0395 42.8023 79.9521 45.1342 78.5766 46.0204C77.9099 46.45 77.1412 46.7345 76.3083 46.6647C76.224 46.6578 76.1336 46.663 76.0428 46.6682C75.8362 46.6802 75.6287 46.6923 75.4906 46.5571C75.2883 46.3591 75.6193 45.6507 75.8018 45.259C75.8478 45.1605 75.8844 45.0821 75.9007 45.0369C76.5795 43.1694 76.6888 41.7783 76.5235 39.8751C76.3583 37.9718 75.7226 31.2429 74.8316 26.9453C72.5518 15.9499 72.2797 15.8103 71.0131 15.1606C70.7552 15.0283 70.4557 14.8747 70.0898 14.6038C69.3939 14.0887 70.556 13.978 71.3703 14.1614C72.6447 14.448 71.5795 9.50828 67.1833 9.92448C66.7323 9.96722 66.8364 10.0897 67.102 10.4034C67.4786 10.8483 68.181 11.6774 68.0893 13.2085C68.0876 13.234 68.0885 13.2621 68.0893 13.2908C68.0932 13.4246 68.0971 13.5707 67.8685 13.5296C67.4398 13.4523 67.4377 13.3421 67.4317 13.0463C67.4235 12.6712 67.4097 11.998 66.5132 10.7156C65.7815 9.66882 63.5533 11.7567 64.4877 14.1739C64.5002 14.2062 64.5127 14.2384 64.5247 14.2706C64.7248 14.7931 64.9168 15.2944 65.5263 15.416C67.1627 15.7427 67.0576 17.6933 65.7298 18.0832C64.6672 18.3953 63.4939 16.8635 64.402 15.9269C64.5639 15.76 64.4485 15.5806 64.2583 15.2839C64.1081 15.0506 63.9118 14.7446 63.7668 14.315C63.7603 14.2961 63.7556 14.2798 63.7474 14.2653C63.6811 14.1498 63.4031 14.1554 60.4552 13.8898C60.4371 13.8882 60.4182 13.8841 60.3984 13.88C60.3205 13.8638 60.2366 13.8463 60.206 13.9707C60.1884 14.043 60.2336 14.1106 60.3003 14.1416C60.3691 14.1737 60.4165 14.2648 60.4742 14.3755C60.593 14.6041 60.7556 14.9165 61.242 14.9675C62.9748 15.1487 62.5057 18.1125 60.6218 17.4716C59.6874 17.154 59.3766 16.1339 59.9925 15.3519C60.1148 15.1963 60.0093 15.0623 59.8845 14.9043C59.7911 14.7856 59.687 14.6534 59.6607 14.4885C59.5621 13.8618 59.192 13.7262 58.617 13.7043C57.42 13.6581 56.5691 13.5686 55.9902 13.5077C54.9869 13.4022 54.7997 13.3825 55.0455 13.8227C55.0704 13.8677 55.095 13.9124 55.1191 13.9563C55.3704 14.4147 55.5826 14.802 56.1456 14.9073C58.0635 15.2667 57.2259 18.2778 55.2486 17.3386C54.8333 17.1411 54.5122 16.4925 54.5884 15.9859C54.6396 15.6468 54.7442 15.5015 54.8204 15.3958C54.9396 15.2304 54.9891 15.1621 54.6534 14.6013C54.5208 14.38 54.439 14.1543 54.3676 13.957C54.2488 13.6282 54.1584 13.3786 53.9092 13.3608C52.9369 13.2914 52.179 13.2269 51.5932 13.1771C49.6942 13.0155 49.6051 13.0079 49.8909 13.4865L49.8961 13.4954C50.1341 13.8937 50.342 14.2416 50.9205 14.3211C51.3874 14.3852 51.7641 14.8238 51.9366 15.3106C52.3163 16.381 50.8921 17.1815 50.1853 16.8945C48.8089 16.3349 49.1833 15.0411 49.5259 14.8707C49.8264 14.7209 49.7579 14.4648 49.581 14.3099C49.247 14.0176 49.1166 13.6354 49.0099 13.2412C48.9505 13.0227 48.9432 13.0225 48.0389 13.0026C47.5736 12.9923 46.8703 12.9768 45.7999 12.9235C45.1496 12.8913 45.895 13.7452 46.3758 13.802C48.3152 14.0318 47.7617 17.1394 45.6514 16.2885C45.1104 16.0702 44.7097 15.354 44.9714 14.7747C45.2309 14.2001 45.1956 13.7818 44.8724 13.2567C44.7132 12.9976 44.6275 12.9042 44.334 12.9132C43.0363 12.9529 42.1824 12.9585 41.6211 12.9621C40.5632 12.969 40.5464 12.9691 40.5615 13.1783C40.5791 13.4258 40.7814 13.6811 41.1541 13.7293C43.1422 13.9854 42.7006 16.3857 41.1335 16.3517C39.8715 16.3242 39.4579 14.8681 40.1599 14.1089C40.3682 13.8838 39.8832 13.2287 39.2771 13.3854C37.9476 13.7293 36.9056 14.4071 36.269 15.6949C35.836 16.5711 35.4644 16.9813 35.555 17.1991C35.691 17.526 36.868 17.4199 40.441 17.8061C43.7361 18.1623 61.7017 19.6027 67.6236 20.0776C68.7853 20.1707 69.4834 20.2267 69.517 20.2301C69.7218 20.2508 69.7653 20.1733 69.7744 19.9899C69.8277 18.9178 69.8372 17.8426 69.4408 16.8299C68.781 15.1436 67.5044 14.9205 66.5812 14.7593C65.9261 14.6448 65.4492 14.5615 65.4974 14.0086C65.5176 13.7763 65.7522 13.809 65.9162 13.8319C65.9338 13.8343 65.9506 13.8367 65.9666 13.8386C66.0638 13.8503 66.1615 13.8616 66.2592 13.8729C66.7805 13.933 67.3047 13.9935 67.8052 14.133C69.2561 14.5371 70.5534 15.9674 70.6817 17.6119C71.0156 21.8979 67.8905 42.8152 67.7966 43.2421C67.1687 46.1061 65.5177 48.6334 62.5612 48.5344C62.4811 48.5318 62.3215 48.5288 62.0916 48.5249C59.8798 48.4871 51.1568 48.3369 44.1459 47.0607C43.0501 46.8614 42.1217 46.762 41.1154 46.6548C39.1856 46.4487 36.971 46.2119 32.7457 45.1794C30.4487 44.6181 28.9311 42.7239 29.3843 39.4972C29.5362 38.4152 29.7335 37.21 29.9634 35.9352C30.2126 35.9937 30.5079 36.0492 30.8561 36.1043C30.1838 39.5312 29.9973 41.4882 30.8509 42.7313C32.3468 44.9095 37.0375 44.8945 47.9059 46.7517C52.4988 47.5363 61.99 47.7984 63.8373 47.4644C67.0551 46.8829 67.7527 39.6371 68.5369 31.4951C68.8546 28.1969 69.1864 24.7519 69.7055 21.5433C69.7236 21.4311 69.7395 21.348 69.7119 21.2835C69.5962 21.0125 68.7121 21.0696 63.9893 20.6816L63.9424 20.6772C62.7867 20.5692 40.5649 18.4925 35.9579 18.2619L35.9587 18.2623C34.9946 18.2139 34.9766 18.2856 34.4448 20.4112C34.1537 21.5745 33.7087 23.3529 32.8706 26.0634C32.6437 27.3068 32.4206 28.462 32.2063 29.5359C31.87 29.4993 31.5577 29.4636 31.28 29.4287C32.0399 26.001 32.8771 22.6662 33.5911 20.2585C33.6262 20.14 33.6618 20.0191 33.6981 19.8961C34.3758 17.5948 35.2686 14.5633 37.302 13.1443C37.9119 12.7186 38.4255 12.619 38.7883 12.5487C39.2031 12.4683 39.4206 12.4261 39.3593 11.9784C39.0581 9.77685 40.5839 7.20174 44.1063 7.54047C44.8703 7.61398 45.3454 7.84106 45.6777 7.99992C45.9506 8.13034 46.127 8.21474 46.2884 8.13055C48.2739 7.09297 49.8466 7.69709 50.7642 8.04955C51.1159 8.1847 51.3715 8.28287 51.517 8.23729C53.4302 7.63765 54.6624 8.32652 55.438 8.76011C55.8086 8.9673 56.075 9.11622 56.2614 9.03828C57.7626 8.41118 59.2363 8.52868 60.6782 9.24315C60.8292 9.31821 61.0828 9.22619 61.4383 9.09698C62.3017 8.78309 63.7693 8.24956 65.8495 9.35721C66.026 9.45138 66.2623 9.39323 66.5808 9.31486C67.0589 9.19736 67.7213 9.0344 68.6428 9.27199C71.7383 10.07 72.6942 12.3261 72.467 14.1123C72.4252 14.4394 72.6723 14.5181 73.104 14.6555C73.484 14.7764 74.007 14.9428 74.6018 15.3644ZM41.5604 12.1603C41.7898 12.161 42.0188 12.1618 42.2478 12.1505C43.9445 12.0671 44.3753 12.14 44.4472 12.0115C44.5552 11.8196 43.8635 11.1789 45.391 8.89969C45.7401 8.3789 43.3694 7.66701 41.9194 8.50457C41.8135 8.56578 41.7042 8.62306 41.5949 8.68048C41.2561 8.85794 40.9166 9.03604 40.6772 9.33138C40.0493 10.1061 39.8328 11.0031 40.0463 11.9939C40.0837 12.1686 40.1388 12.2573 40.3372 12.2246C40.7431 12.1576 41.1516 12.1589 41.5604 12.1603ZM47.3421 12.2407C48.8524 12.3201 48.8524 12.3201 48.845 12.0137L48.8455 12.0141C48.8132 10.6454 49.4338 9.59608 50.5357 8.69826C50.4776 8.68491 50.3893 8.64562 50.2736 8.59427C49.7037 8.34119 48.4723 7.79419 46.9465 8.60572C46.7094 8.73187 46.7791 8.79359 46.9741 8.96498C47.2874 9.241 47.924 9.80143 48.1202 11.3732C48.1228 11.3947 48.1276 11.4185 48.1323 11.4434C48.1581 11.575 48.1895 11.7367 47.9679 11.7451C47.7755 11.752 47.559 11.6909 47.5396 11.4468C47.485 10.7641 47.1023 10.2564 46.7206 9.74905C46.6285 9.62698 46.5368 9.50492 46.4494 9.38045C46.322 9.19925 46.1946 9.05291 45.9295 9.29867C45.1655 10.0071 44.9563 11.0375 45.1225 11.9603C45.1548 12.1399 45.2624 12.1436 45.3846 12.1478C45.3936 12.1481 45.4027 12.1484 45.4117 12.1488C46.2377 12.1826 46.8652 12.2156 47.3421 12.2407ZM51.4163 12.4221C52.0253 12.4432 52.8022 12.47 53.7878 12.5237C54.0628 12.5387 54.1093 12.2943 54.1847 11.8989C54.2836 11.3781 54.4326 10.5952 55.2189 9.79794C55.4255 9.58877 55.4005 9.46782 55.1612 9.32622C54.1993 8.75765 53.1741 8.63456 52.0615 8.84287C52.095 8.94647 52.2095 9.10525 52.3567 9.30913C52.7355 9.83358 53.3294 10.6566 53.3152 11.6078C53.3148 11.6345 53.3178 11.6635 53.3204 11.6928C53.332 11.8109 53.3441 11.9341 53.1461 11.931C53.116 11.9306 53.0837 11.932 53.051 11.9334C52.8861 11.9407 52.7045 11.9487 52.6709 11.7283C52.5457 10.9041 52.2082 10.2223 51.6431 9.58274C51.2278 9.11235 51.1735 9.15014 50.8482 9.37632C50.8068 9.4049 50.7616 9.43644 50.7104 9.4704C49.937 9.98474 49.6391 10.7892 49.4119 11.6328C49.2199 12.3463 49.3925 12.3523 51.4163 12.4221ZM54.745 12.4709C54.844 12.6689 55.469 12.6038 58.9867 12.8654L58.9863 12.8659C59.2561 12.8859 59.2708 12.6774 59.2961 12.3067C59.331 11.8007 59.387 10.9927 60.1415 10.051C60.2478 9.91802 60.274 9.84529 60.1006 9.75103C58.9746 9.14071 57.8448 9.03527 56.6539 9.68862C57.2775 10.3527 57.5354 11.1102 57.6417 11.9315C57.6442 11.9509 57.6486 11.9731 57.6537 11.9965C57.6787 12.1186 57.7105 12.2754 57.5091 12.2715C57.4983 12.2713 57.4872 12.2711 57.476 12.2709C57.2982 12.2683 57.0796 12.2652 57.0507 11.9749C56.9986 11.4445 56.712 11.0277 56.4258 10.6113C56.3388 10.4848 56.2519 10.3584 56.1714 10.2288C56.0771 10.0768 55.9738 10.0502 55.8129 10.1737C55.1113 10.7117 54.7773 11.4266 54.7308 12.2969C54.727 12.3716 54.7235 12.4276 54.745 12.4709ZM61.8721 13.2216C62.3438 13.3134 62.8156 13.4051 63.2942 13.4529L63.2937 13.4534C63.5976 13.4836 63.6071 13.2957 63.6256 12.9372C63.6574 12.3165 63.716 11.1848 65.3717 9.78933C65.089 9.7917 64.8677 9.68178 64.6538 9.57521C64.4821 9.48973 64.3147 9.40645 64.1231 9.38518C63.3579 9.30039 62.612 9.27586 61.8992 9.68604C61.6147 9.84959 61.619 9.90855 61.8183 10.1362C62.7269 11.1744 63.6432 13.3819 62.4075 12.7217C62.3141 12.6718 62.2948 12.5697 62.2634 12.4038C62.1992 12.0651 62.0847 11.4605 61.1873 10.4913C61.1727 10.4753 61.1576 10.4578 61.143 10.44C61.047 10.3263 60.9411 10.2012 60.7604 10.3829C59.6986 11.449 59.5892 12.9408 60.0743 12.9627C60.6829 12.9903 61.2773 13.1059 61.8721 13.2216Z" fill="#191919"/>
<path d="M30.8105 29.8141C32.2352 30.0177 36.8168 30.4309 37.3363 30.5411C39.2017 30.9366 39.2086 30.6285 39.1544 31.092C38.9026 33.2475 38.473 34.8964 38.2548 36.1915C38.2148 36.4299 38.1455 36.5724 37.8545 36.5216C36.8284 36.3421 30.6612 35.7572 29.5326 35.3406C28.9185 35.1137 29.1681 35.0565 29.8193 31.8465C30.161 30.1619 30.0775 29.5791 30.8105 29.8137V29.8141Z" fill="#FFD77E"/>
<path fill-rule="evenodd" clip-rule="evenodd" d="M25.4258 15.0333C28.2527 13.26 28.5109 13.0913 27.6673 12.6187L27.6678 12.6196C27.111 12.3078 26.6618 12.0609 26.3019 11.863C25.2605 11.2905 24.9671 11.1292 24.9802 10.9988C24.9854 10.9477 25.0376 10.9014 25.1103 10.8369L25.1331 10.8166L25.6445 10.3597C28.9849 7.37592 29.3106 7.08496 29.2689 6.86313C29.2644 6.8392 29.2556 6.81609 29.2459 6.79048L29.2392 6.77253C29.1014 6.40075 28.8285 6.42063 28.2344 6.46389C28.0561 6.47689 27.849 6.492 27.6079 6.49923C26.5054 6.53232 25.6663 6.5659 25.0283 6.59142C23.5012 6.65249 23.1256 6.66751 23.0439 6.51989C23.0173 6.47172 23.0219 6.40626 23.028 6.31945C23.029 6.30494 23.0301 6.28983 23.031 6.27412C23.0717 5.61513 23.1275 5.07558 23.1724 4.64207C23.2592 3.80394 23.305 3.36231 23.1203 3.22031C22.9146 3.06214 22.4231 3.27571 21.3841 3.72716C21.0095 3.88994 20.5637 4.08366 20.0345 4.30201C20.0101 4.31208 19.9875 4.32228 19.9664 4.33175C19.9001 4.36158 19.849 4.38456 19.8034 4.37647C19.6485 4.34901 19.5572 3.96298 19.1563 2.26688L19.1562 2.26641C19.0528 1.82894 18.9288 1.30437 18.7777 0.676275C18.7692 0.640509 18.7621 0.60444 18.755 0.568717C18.7187 0.385278 18.6842 0.211266 18.4691 0.135256C18.2243 0.0484863 18.0815 0.195685 17.9413 0.340215C17.9173 0.36492 17.8935 0.38954 17.8691 0.412867C17.2774 0.981691 16.8363 1.41842 16.5033 1.7482C15.7749 2.4693 15.5635 2.67869 15.4235 2.63858C15.3663 2.62214 15.321 2.56399 15.2571 2.482L15.251 2.47408C15.0019 2.15433 14.7806 1.86471 14.5828 1.60574C13.3103 -0.0597606 13.0055 -0.45879 12.4986 0.545432C12.0603 1.41369 11.7475 2.0679 11.5152 2.55349C11.0691 3.48626 10.9205 3.79697 10.7524 3.80786C10.6685 3.81328 10.5797 3.7439 10.4466 3.63992C10.4184 3.61784 10.3881 3.59425 10.3556 3.56946C9.85483 3.18846 9.40136 2.83945 8.992 2.52431C7.07286 1.0472 6.1221 0.315337 5.80605 0.527785C5.49577 0.736402 5.79749 1.85546 6.39558 4.07342C6.56322 4.69514 6.75415 5.40324 6.96139 6.20182C7.07674 6.64686 7.03327 6.70625 6.58392 6.65675C5.94357 6.58613 5.30119 6.58785 4.6592 6.58953C4.32339 6.59043 3.98768 6.59133 3.65243 6.58186C2.99047 6.56336 3.3249 7.52359 3.62058 8.06633C3.85924 8.50457 4.05331 8.84575 4.20546 9.11333C4.7467 10.065 4.75832 10.0854 4.36389 10.2278C3.32412 10.6034 2.32812 11.0811 1.33238 11.5587L1.15653 11.643C0.540188 11.9378 0.53158 12.2938 1.10918 12.6717C1.92728 13.2072 2.52697 13.58 2.95617 13.8468C3.6771 14.295 3.91696 14.4441 3.90271 14.5627C3.89561 14.6219 3.82537 14.6734 3.72009 14.7507L3.71915 14.7514C-0.0406005 17.5132 -0.0313383 17.5669 0.00691183 17.7886L0.00906821 17.8012L0.0106177 17.8107C0.0132475 17.8271 0.0156621 17.842 0.0204482 17.8562C0.0739562 18.0145 0.423988 18.0725 4.68498 18.7792L4.74954 18.7899C5.17874 18.8611 5.15046 18.9449 4.84771 19.842C4.71175 20.2449 4.52043 20.8119 4.2903 21.6155C4.02233 22.551 4.60699 22.4589 6.40978 22.1748C6.74679 22.1216 7.12654 22.0618 7.55104 22.0007C8.01192 21.9344 8.01334 22.0039 8.03831 23.2435C8.04588 23.6211 8.05569 24.1072 8.0813 24.7312C8.11406 25.5343 8.86124 25.1173 9.11307 24.9769C9.1392 24.9623 9.15998 24.9507 9.1741 24.9438C9.73432 24.6679 10.1832 24.4402 10.545 24.2565C11.9873 23.5242 12.0437 23.4955 12.2416 23.9453C13.575 26.9749 13.9611 27.4328 14.5103 26.6693C14.9729 26.0263 15.3187 25.5292 15.5827 25.15C16.1762 24.2973 16.3557 24.0397 16.5174 24.0504C16.5875 24.055 16.6543 24.1101 16.75 24.1891L16.7565 24.1945C16.8867 24.3021 17.0112 24.4049 17.1303 24.5031L17.1317 24.5044C19.2999 26.297 19.6758 26.6078 19.914 25.5847C20.1475 24.5823 20.2886 23.8806 20.3856 23.399C20.5249 22.7061 20.5728 22.4684 20.6722 22.4444C20.7242 22.4318 20.7902 22.4776 20.8907 22.5473L20.91 22.5607C20.919 22.5671 26.0279 25.9979 26.9615 26.5798L27.0616 26.6422C27.9277 27.1832 29.7493 28.3212 30.2429 27.951C30.4684 27.7819 29.8879 27.0257 28.1364 24.7441C27.1235 23.4246 25.7189 21.5951 23.8522 19.0739C24.3568 19.0144 24.8384 18.9721 25.2781 18.9335C26.9865 18.7833 28.0623 18.6888 27.3996 17.8546C26.6034 16.852 26.035 16.2589 25.6764 15.8849C25.1357 15.3208 25.0725 15.2548 25.4258 15.0333ZM11.3597 20.4606L11.3486 20.4607C10.9349 20.3708 11.0176 20.0858 11.9477 18.3095C18.0524 6.64892 18.0806 6.67005 18.3928 6.90437C18.4101 6.91736 18.4283 6.93105 18.4485 6.9434C18.6908 7.09189 18.6667 7.30279 18.5501 7.52359C11.7113 20.4588 11.676 20.459 11.3597 20.4606ZM10.1107 12.8503C7.53168 12.7995 7.7344 16.6538 10.3465 16.7119C12.8872 16.7683 12.6513 12.9002 10.1107 12.8503ZM10.4283 15.9376C8.92705 15.864 8.60295 13.5712 10.1176 13.613C11.7346 13.6577 11.9171 16.0107 10.4283 15.9376ZM21.4772 12.1242C21.4932 13.0853 20.5553 14.0614 19.6278 14.049V14.0494C17.3363 14.0184 17.0497 10.0522 19.6278 10.0561C20.7004 10.0578 21.457 10.9031 21.4772 12.1242ZM20.7262 12.1745C20.7103 13.8617 18.55 13.6422 18.5797 11.9546C18.6064 10.4374 20.7425 10.4336 20.7262 12.1745Z" fill="#FFD77E"/>
</svg>
