<svg width="72" height="77" viewBox="0 0 72 77" fill="none" xmlns="http://www.w3.org/2000/svg">
<path d="M70.0429 5.06913C66.3224 1.92558 65.3769 0.220009 50.1619 0.0141659C37.5761 -0.156058 37.1814 1.14154 35.2165 7.52972C35.0832 7.85775 34.8206 8.53202 34.452 9.49206C34.6856 9.58608 34.9034 9.68258 35.1068 9.77867L35.9115 7.59806C38.3063 1.24675 38.2967 1.675 43.0303 1.1871C43.1471 1.17509 43.2278 1.19083 43.2763 1.32089C44.243 3.91774 46.419 3.99146 53.3324 3.85561C53.8153 3.84609 54.3007 3.77609 54.7074 3.45967C56.8851 1.76695 56.4387 1.1697 57.1821 1.22355C59.5284 1.39254 61.8419 1.78642 64.1522 2.21384C68.1406 2.95189 62.2151 13.5845 43.946 68.7011C43.6221 69.679 44.3022 68.9496 17.0494 59.6448C16.9081 59.5968 16.6923 59.5997 16.8158 59.3363L20.3192 49.8447C20.0521 49.7747 19.7999 49.701 19.563 49.6256C16.9558 56.9072 15.0278 62.5618 14.8484 63.8151C14.6844 64.962 15.3024 66.2037 16.3809 66.6203C50.8291 79.9326 45.5298 82.9821 53.2085 60.4276C71.1078 7.85277 70.525 9.32308 71.0489 7.81923C71.418 6.76061 70.7951 5.70489 70.0425 5.06872L70.0429 5.06913ZM52.6034 3.03431C47.358 2.5808 45.2759 3.56694 44.0334 1.10592C47.968 0.799852 51.826 0.985811 55.7623 1.1345C54.8793 2.13846 54.1615 3.16892 52.6034 3.03431ZM16.8427 66.0007C14.8526 65.2022 15.8657 62.3419 16.4621 60.2934C16.5391 60.0296 16.677 60.0905 16.8721 60.1642C43.1272 70.0608 43.794 69.2433 43.449 70.1747C42.5441 72.6171 41.9493 74.0315 39.3293 74.4374C38.0242 74.6395 39.0443 74.9087 16.8423 66.0011L16.8427 66.0007ZM66.1493 19.3642C46.733 76.5981 48.6498 76.6114 43.3703 76.012C42.5585 75.9197 39.977 75.2247 39.8333 75.0942C43.7203 74.3533 43.0365 73.889 54.5351 40.1299C66.6355 4.60402 66.6413 5.57815 65.9468 2.93864C67.3541 3.79721 68.6339 4.70425 69.7393 5.84363C70.7814 6.91758 70.5387 6.42513 66.1493 19.3642Z" fill="#191919"/>
<path d="M38.1459 7.43489C41.5653 5.42989 60.5037 7.54671 57.0536 10.1846C54.0049 12.5155 33.8977 9.92613 38.1459 7.43489ZM44.889 7.30815C27.1824 7.33424 50.6588 11.9655 56.3297 9.75052C57.947 9.11891 51.1492 7.29863 44.889 7.30815Z" fill="#191919"/>
<path d="M34.8807 55.8787C33.9368 55.6368 35.2141 54.789 47.068 43.787C47.266 43.6035 47.4719 43.3944 47.7183 43.6652C47.9527 43.9228 47.7634 44.1121 47.5559 44.308C40.3394 51.1327 35.6291 55.7511 34.8807 55.8787Z" fill="#191919"/>
<path d="M39.3709 56.6127C38.719 56.4901 39.2752 55.8945 39.9698 55.2198C40.1036 55.0898 44.4255 50.9058 44.7001 50.7033C45.0368 50.4556 45.3884 50.8292 45.1333 51.1407C44.9581 51.354 40.0618 56.3928 39.3709 56.6127Z" fill="#191919"/>
<path d="M60.6134 11.6304C58.4315 11.3803 58.0762 11.4925 58.2013 10.8406C58.5931 8.79999 58.456 8.52663 58.854 8.58337C61.5366 8.96524 61.7176 8.89442 61.6575 9.33799C61.566 10.0123 61.4881 10.6886 61.363 11.3567C61.2756 11.8226 60.8843 11.5733 60.613 11.6308L60.6134 11.6304ZM59.141 9.13629C58.7894 9.03482 58.955 9.58194 58.7165 10.6012C58.6084 11.063 58.8697 10.8543 60.5484 11.1036C61.0035 11.1711 60.8681 10.8713 61.0855 9.7182C61.1584 9.33178 61.153 9.43988 59.141 9.13629Z" fill="#191919"/>
<path d="M66.9912 10.4894C65.2049 9.98949 61.3925 23.7466 64.2449 21.0951C65.653 19.7867 68.4474 10.8969 66.9912 10.4894ZM63.928 20.5243C63.5958 19.2566 65.4107 12.6054 66.797 11.2589C66.4739 14.5184 65.5251 17.5808 63.928 20.5243Z" fill="#191919"/>
<path d="M62.708 24.4599C61.1536 24.4504 61.2542 22.1915 62.6997 22.172C64.1849 22.1521 64.2222 24.469 62.708 24.4599ZM63.2323 23.2455C63.0952 22.6123 62.2288 22.6702 62.2379 23.277C62.2466 23.8502 63.1548 23.9898 63.2323 23.2455Z" fill="#191919"/>
<path d="M18.4504 63.2536C20.491 64.1035 21.4764 64.3143 21.3041 64.8734C21.0883 65.5738 19.0265 64.2509 18.3929 64.306C18.7929 65.0875 19.0178 65.3634 18.7031 65.522C18.2777 65.737 17.6291 64.3615 17.1545 63.6259C16.8554 63.1625 17.3868 62.9811 18.8352 62.2322C19.3537 61.9639 19.5658 62.6655 19.1127 62.8676C18.8944 62.9649 18.6973 63.1074 18.4504 63.2536Z" fill="#191919"/>
<path d="M25.3543 66.7086C24.5736 66.4456 23.3489 66.1619 22.6411 65.8305C22.1946 65.6214 22.2671 65.0623 22.8349 65.1107C23.2569 65.1468 23.5419 65.23 25.4003 65.7908C24.8801 65.0018 24.591 64.7044 24.8896 64.4977C25.2019 64.2816 25.4127 64.5963 26.6109 66.2385C26.9257 66.6697 26.3835 66.9376 25.124 67.7473C24.632 68.0638 24.2046 67.5373 24.7467 67.1418C24.9269 67.0105 25.1099 66.883 25.3543 66.7086Z" fill="#191919"/>
<path d="M30.3073 70.0621C27.9842 70.0318 28.1507 66.612 30.3334 66.6704C32.516 66.7288 32.5686 70.0915 30.3073 70.0621ZM30.2464 69.4126C31.6657 69.4131 31.5879 67.3675 30.2853 67.3965C28.9086 67.4267 28.96 69.4122 30.2464 69.4126Z" fill="#191919"/>
<path d="M37.1866 72.3996C34.8734 72.3851 35.0258 69.0088 37.1696 69.0088C39.3133 69.0088 39.4744 72.4137 37.1866 72.3996ZM37.1137 71.7502C38.4916 71.7821 38.5202 69.7779 37.2313 69.7332C35.8231 69.6843 35.7875 71.7195 37.1137 71.7502Z" fill="#191919"/>
<path d="M33.6714 28.4077C33.432 28.7784 33.3168 29.1992 33.1259 29.5732C27.75 40.0902 22.1852 38.2422 22.1885 39.1707C22.1893 39.3973 22.3695 39.4346 22.5405 39.4354C29.5205 39.471 34.2458 30.7768 33.6714 28.4077Z" fill="#FFD77E"/>
<path d="M11.9944 31.9857C12.2525 26.0796 15.7518 19.6583 20.6982 16.1006C20.3971 15.9345 20.0389 15.7912 19.6309 15.6926C18.9314 16.2319 18.2372 16.8386 17.553 17.5162C13.4622 21.5681 11.111 26.9651 11.0584 32.503C11.0572 32.6165 11.0576 32.7287 11.0584 32.8405C11.3057 32.4943 11.625 32.2019 11.9944 31.9857Z" fill="#FFD77E"/>
<path d="M25.7483 12.6564C26.0146 12.933 26.2594 13.2271 26.4805 13.5365C30.8832 12.7094 34.4074 14.4771 36.4128 17.7656C41.4383 26.0076 34.6376 40.5234 24.266 43.281C23.7449 43.3207 17.3419 45.1837 13.6752 39.1699C13.3559 38.6456 13.0842 38.0977 12.8581 37.5307C12.4091 37.4308 11.9957 37.23 11.6445 36.9525C13.3994 42.89 18.8267 45.6703 24.3298 44.2522C31.6237 42.3727 38.9334 34.2537 39.0274 24.4329C39.1103 15.7883 32.8944 10.955 25.7483 12.6564Z" fill="#FFD77E"/>
<path d="M44.777 23.39C44.0526 14.0107 37.0738 11.8744 35.6437 11.0159C31.9389 8.79094 26.966 9.21008 23.149 10.8564C23.5541 11.0241 24.0929 11.3137 24.5911 11.6649C28.0859 10.2546 31.7567 10.0529 35.0113 11.896C40.8018 15.1746 43.2893 23.9856 39.2151 32.9218C33.0999 46.3355 20.8847 50.0551 14.3607 45.0955C7.65776 39.9999 8.37304 29.5865 12.5653 22.4056C13.9867 19.9706 16.0062 17.5577 18.3521 15.5519C18.2912 15.5527 18.2299 15.5543 18.1673 15.5568C17.5432 15.5838 16.8905 15.6774 16.2576 15.7685C12.3719 19.6227 8.77561 25.3652 8.54284 32.5511C8.17879 43.78 14.0343 45.1087 13.4785 46.0584C11.8475 48.8458 12.0086 49.0152 11.4226 48.9874C10.0397 48.9216 9.39687 49.284 2.10166 62.6244C0.309544 65.9017 -1.2204 69.0051 1.41248 70.7513C3.90579 72.405 5.38438 70.7811 6.88036 68.1093C15.2122 53.2294 16.1495 51.8282 14.9716 50.7799C14.6038 50.4523 15.2599 50.3215 16.5906 47.836C16.999 47.0731 18.8996 49.4538 24.4375 49.5354C33.6925 49.6712 45.8609 37.4296 44.777 23.39ZM11.9117 54.7295C4.07808 69.6653 2.5734 69.2818 3.2046 68.0239C3.2104 68.0119 10.2405 55.7483 12.3226 53.1386C12.4597 52.9668 12.622 53.3747 11.9117 54.7295ZM15.9805 47.397C14.2841 50.4967 14.3702 50.3252 14.1868 50.1819C13.2106 49.4206 12.26 49.4538 12.5487 48.9816C14.2203 46.2468 14.1354 46.1992 14.4145 46.3827C15.9573 47.397 16.0132 47.1344 15.9809 47.3966L15.9805 47.397Z" fill="#FFD77E"/>
<path d="M16.1396 24.4987C17.6306 22.6432 19.8324 22.2207 21.6034 20.581C22.6346 19.6264 23.1258 17.997 22.597 16.7251C22.2631 15.9216 21.5404 15.5091 20.8032 15.1053C17.9951 13.5687 13.4417 16.2749 12.7413 14.2231C11.4036 10.303 20.2846 10.5411 22.9556 11.7956C27.4842 13.9228 29.6822 21.276 21.2203 25.5275C17.4679 27.4128 17.0926 29.8137 16.3844 30.7688C14.8901 32.7829 11.6773 30.0519 16.14 24.4983L16.1396 24.4987Z" fill="#FFD77E"/>
<path d="M15.5825 34.4973C15.7006 37.2375 11.5584 37.416 11.44 34.6758C11.3215 31.9357 15.4645 31.7572 15.5825 34.4973Z" fill="#FFD77E"/>
</svg>
