<svg width="75" height="81" viewBox="0 0 75 81" fill="none" xmlns="http://www.w3.org/2000/svg">
<path d="M28.5834 32.1453C28.4858 31.7155 27.9772 31.4333 27.7559 31.8123C27.6887 31.9222 27.6509 32.0475 27.646 32.1762C27.6412 32.3049 27.6695 32.4327 27.7282 32.5473C27.7887 32.6482 27.8846 32.723 27.9971 32.7573C28.1097 32.7915 28.231 32.7828 28.3374 32.7327C28.4439 32.6826 28.528 32.5948 28.5735 32.4863C28.6189 32.3778 28.6225 32.2563 28.5834 32.1453Z" fill="#191919"/>
<path d="M28.935 2.55071C28.79 2.09281 28.7367 2.01138 28.2647 1.97727C27.3198 1.8855 26.3755 2.15837 25.6252 2.74001C25.6127 2.75059 25.6031 2.76424 25.5974 2.77964C25.5917 2.79504 25.5901 2.81165 25.5928 2.82784C25.58 2.86495 25.5768 2.90469 25.5834 2.94338C25.8776 4.54432 25.9497 5.50829 27.8115 5.78201C27.9768 5.82927 28.1507 5.83874 28.3202 5.80972C28.6472 5.69503 28.7303 5.23585 28.8518 4.95915C29.2014 4.16359 29.3268 3.78584 28.935 2.55071ZM28.4822 4.69567C28.4037 4.87133 28.3428 5.06489 28.26 5.23628C28.1671 5.43027 28.1402 5.3693 27.9365 5.34287C26.168 5.11307 26.2878 4.10646 26.0042 2.83722C26.7099 2.56122 27.461 2.42008 28.2187 2.4211C28.3295 2.42579 28.3854 2.4113 28.4451 2.49955C28.493 2.60087 28.5273 2.70811 28.547 2.81846C28.6742 3.11703 28.7344 3.4399 28.7232 3.76427C28.712 4.08863 28.6297 4.40659 28.4822 4.69567Z" fill="#191919"/>
<path d="M26.5539 10.7703C26.8523 10.8402 27.08 10.6961 27.7698 10.6961C27.9638 10.6961 28.6195 10.8351 28.5799 10.4697C28.5419 10.1286 27.8265 10.1832 27.5993 10.1922C27.2007 10.1604 26.8043 10.2755 26.4848 10.5158C26.4665 10.535 26.4536 10.5586 26.4471 10.5842C26.4406 10.6099 26.4408 10.6369 26.4478 10.6624C26.4547 10.688 26.4681 10.7114 26.4867 10.7303C26.5053 10.7491 26.5284 10.7629 26.5539 10.7703Z" fill="#191919"/>
<path d="M32.0875 13.2895C31.7742 12.6649 31.4373 12.0496 31.0754 11.4498C30.7655 10.8363 30.3614 10.2753 29.8778 9.78701C29.7852 9.70856 29.6002 9.77806 29.6514 9.92131C29.9348 10.5418 30.2754 11.1345 30.6686 11.6919C30.9628 12.192 31.2416 12.7037 31.5098 13.2153C30.522 13.3159 30.3028 13.2008 29.9656 13.3432C29.9402 13.3589 29.9193 13.3809 29.9047 13.407C29.8902 13.4331 29.8826 13.4625 29.8826 13.4924C29.8826 13.5223 29.8902 13.5517 29.9047 13.5778C29.9193 13.6039 29.9402 13.6259 29.9656 13.6416C30.2704 13.7583 30.6007 13.7918 30.9227 13.7388C31.2654 13.7227 31.6069 13.6887 31.946 13.6369C32.1063 13.6173 32.1481 13.4097 32.0875 13.2895Z" fill="#191919"/>
<path d="M30.0675 15.9013C30.7279 16.6521 32.1366 15.7691 32.0185 15.0414C32.0106 15.015 31.993 14.9927 31.9692 14.9789C31.9455 14.9651 31.9173 14.9609 31.8906 14.9672C31.503 15.0324 31.3175 15.5176 30.9475 15.6468C30.444 15.8229 30.302 15.3296 29.9767 15.0738C29.7546 14.9007 29.5857 15.3535 30.0675 15.9013Z" fill="#191919"/>
<path d="M74.0457 56.4358C73.5532 54.1777 72.2978 52.1582 70.4909 50.7172C68.8814 49.4689 65.6565 48.1195 63.0941 48.0359C62.7752 48.0257 62.7752 48.5211 63.0941 48.5305C64.1366 48.5902 65.1653 48.7972 66.1498 49.1453C69.341 50.1843 71.7878 51.8112 73.066 55.0259C73.9536 57.2587 73.9383 59.7456 73.5559 62.0896C73.2386 64.4472 72.2096 66.6519 70.6064 68.4094C68.7688 70.3088 66.4521 70.9607 63.8385 71.3589C58.4448 72.1805 53.8888 69.5891 51.9618 65.3397C50.024 61.0655 51.5094 54.6618 54.4585 51.6603C56.3684 49.8189 58.8379 48.6671 61.4761 48.3872C61.5037 48.3872 61.5302 48.3763 61.5497 48.3568C61.5692 48.3373 61.5802 48.3108 61.5802 48.2832C61.5802 48.2556 61.5692 48.2292 61.5497 48.2096C61.5302 48.1901 61.5037 48.1792 61.4761 48.1792C60.3924 48.1671 59.3167 48.3665 58.3092 48.7663C54.8839 50.0346 52.6064 52.3258 51.3747 56.1446C48.2798 65.7375 54.7467 72.0474 61.7776 72.0474C63.2098 72.0198 64.6333 71.8179 66.0168 71.4463C67.8402 71.0795 69.5214 70.2007 70.8633 68.9128C72.2053 67.6249 73.1524 65.9813 73.5938 64.1745C74.2662 61.9553 74.5522 58.6737 74.0457 56.4358Z" fill="#191919"/>
<path d="M69.5895 53.2831C69.1337 53.5338 68.7329 53.8733 68.4106 54.2816C65.5234 57.4975 63.2974 61.2504 61.8598 65.3261C60.507 63.6634 58.371 61.3278 56.5432 60.1946C56.2661 60.024 56.0316 60.3945 56.2149 60.6209C57.5882 62.3191 59.0041 63.399 61.6747 66.7928C61.9374 67.1262 62.455 66.8985 62.5624 66.557C63.7306 62.8539 65.5819 59.4022 68.0205 56.3805C69.4078 54.6636 69.8188 54.4457 70.096 53.7964C70.1341 53.7253 70.1485 53.6439 70.1371 53.5641C70.1256 53.4843 70.0888 53.4102 70.0322 53.3528C69.9755 53.2954 69.902 53.2576 69.8223 53.2451C69.7426 53.2325 69.661 53.2458 69.5895 53.2831Z" fill="#FFD97C"/>
<path d="M40.521 59.1275C40.4835 50.2398 40.4613 49.2251 40.5461 47.6514C39.6427 47.4528 25.262 40.233 23.0279 39.02C23.0211 44.9714 22.9098 39.6595 23.0053 54.4112C23.0326 58.6384 23.048 62.5515 22.9866 66.505C24.4219 67.3049 25.7929 68.2152 27.0872 69.2276C27.7391 69.7316 28.3956 70.3464 29.2189 70.5451C30.7261 70.9092 31.7791 69.8049 37.5216 69.0891C37.7992 69.0567 38.2464 68.9271 38.3863 69.2694C38.4594 69.568 38.4233 69.8829 38.2844 70.1571C37.7787 71.3197 36.0644 71.9746 34.8591 72.4082C34.1705 72.6579 33.4662 72.8618 32.7508 73.0187C32.8881 73.1411 33.0349 73.2523 33.1899 73.3513C36.8271 75.1368 40.2929 77.3236 41.0586 77.6476C40.6229 71.8902 40.5457 65.3526 40.521 59.1275Z" fill="#FFD97C"/>
<path d="M70.7128 38.2769C70.7125 38.2687 70.7103 38.2608 70.7063 38.2536C70.7024 38.2465 70.6967 38.2405 70.6899 38.2359C70.6831 38.2314 70.6754 38.2286 70.6672 38.2277C70.6591 38.2268 70.6509 38.2279 70.6433 38.2308L70.5738 38.0825C70.5844 38.0755 70.5929 38.0658 70.5986 38.0544C70.6042 38.043 70.6066 38.0303 70.6057 38.0176C70.6048 38.0049 70.6006 37.9927 70.5934 37.9823C70.5862 37.9718 70.5764 37.9634 70.5649 37.958C64.6744 35.5666 58.1347 33.5112 51.9526 31.6523C51.9517 31.6426 51.9488 31.6333 51.9439 31.6248C51.9391 31.6164 51.9326 31.6091 51.9247 31.6034C51.9168 31.5977 51.9078 31.5938 51.8983 31.5918C51.8888 31.5899 51.879 31.59 51.8695 31.5922C46.1347 32.8456 40.9482 34.3519 35.3745 35.6233C31.3242 36.5532 34.9055 35.6595 29.6005 36.9919C27.5063 37.5218 25.3899 37.9558 23.2603 38.3195C24.7 38.9514 26.5683 40.0087 32.3184 42.8226C32.7384 42.5289 58.5858 34.3443 58.8915 34.2479C59.0007 34.2179 59.1174 34.2316 59.2167 34.2861C59.316 34.3407 59.3902 34.4318 59.4234 34.5401C59.4567 34.6484 59.4465 34.7654 59.3949 34.8663C59.3434 34.9672 59.2545 35.0441 59.1473 35.0806C58.9341 35.1496 37.2573 42.0893 33.2654 43.2767C38.4805 45.8441 40.5691 46.7361 40.8659 47.046C40.9449 47.0429 41.0224 47.0681 41.0845 47.1171C41.1466 47.1662 41.1891 47.2357 41.2044 47.3133C45.6039 45.5457 69.0125 38.5191 69.2359 38.4555C69.3402 38.4281 69.451 38.4424 69.5449 38.4954C69.6388 38.5483 69.7084 38.6358 69.7389 38.7392C69.7693 38.8426 69.7583 38.9539 69.7081 39.0493C69.6579 39.1447 69.5725 39.2168 69.47 39.2502C66.6331 40.2223 49.7497 45.1262 42.7286 47.6067C42.2452 47.7885 41.7506 47.9392 41.2479 48.0577C41.4871 53.4229 41.1626 67.7499 41.8789 77.5278C44.1227 76.7028 51.5011 73.9077 56.7196 71.8573C54.9179 71.066 53.3484 69.8269 52.1606 68.258C50.9727 66.689 50.2059 64.8423 49.933 62.8934C49.4461 59.2238 50.5427 54.1127 53.2585 50.994C55.8128 48.0594 61.0987 46.5766 64.7324 47.2907C66.9359 47.7453 69.0245 48.6417 70.8718 49.926C70.8893 45.9588 70.7917 42.3003 70.7128 38.2769Z" fill="#FFD97C"/>
<path d="M40.1823 77.5031C39.6221 77.5427 39.2298 77.7401 37.8707 77.9375C35.9026 78.2227 35.8302 78.0833 34.4083 76.6615C34.1026 76.2678 33.7185 75.942 33.2802 75.7047C33.1467 75.657 33.0542 75.8198 33.1096 75.9264C33.2375 76.1767 33.4008 76.3054 34.196 77.0959C35.6455 78.5353 35.802 78.6802 37.8157 78.386C38.6518 78.2816 39.4696 78.0622 40.2458 77.7341C40.2688 77.7199 40.2865 77.6987 40.2963 77.6736C40.3062 77.6485 40.3076 77.6209 40.3005 77.5948C40.2933 77.5688 40.278 77.5459 40.2567 77.5293C40.2354 77.5128 40.2093 77.5036 40.1823 77.5031Z" fill="#191919"/>
<path d="M37.3717 79.0285C36.7191 79.3023 36.0338 79.4904 35.3329 79.5878C34.9685 79.6707 34.5862 79.6058 34.2696 79.4075C33.5849 78.9215 31.674 77.2429 31.1491 77.1193C30.9786 77.0788 30.8302 77.2992 30.9688 77.4241C31.1693 77.5792 31.3793 77.7216 31.5977 77.8505C32.261 78.3084 32.9368 78.8865 33.6501 79.4407C34.3391 79.9758 34.4798 80.0871 35.3887 79.9724C36.1288 79.8937 36.8375 79.6315 37.4506 79.2097C37.5286 79.1525 37.4825 78.9863 37.3717 79.0285Z" fill="#191919"/>
<path d="M37.7093 69.6302C36.9911 69.6522 36.2769 69.7466 35.5776 69.912C30.7599 70.8282 30.614 71.4093 29.4382 71.2989C28.6081 71.2204 28.8042 71.1919 21.6995 66.6159C17.6953 64.0326 15.4748 62.9292 14.5433 61.0175C14.1807 60.1292 14.0074 59.175 14.0346 58.216C13.9404 55.4669 14.0236 53.0998 13.9003 52.4603C14.3766 52.4232 14.8528 52.3818 15.329 52.34C15.3837 52.3393 15.4367 52.3209 15.48 52.2875C15.5234 52.2542 15.5548 52.2077 15.5695 52.155C16.0242 49.7435 16.0476 47.2705 15.6386 44.8508C15.5172 43.7188 15.3211 42.596 15.0515 41.4899C15.0429 41.4474 15.0184 41.4099 14.9831 41.3848C14.9478 41.3597 14.9042 41.349 14.8613 41.3548C14.8183 41.3607 14.7793 41.3827 14.7519 41.4163C14.7246 41.45 14.7112 41.4927 14.7142 41.536C14.9095 45.0746 15.908 46.809 15.1069 51.8536C10.5275 52.2407 5.32306 52.6555 0.720208 52.8244C0.497654 49.3134 0.39661 47.8583 0.882221 45.0648C1.93701 38.7805 3.26977 35.0303 7.32008 30.0075C11.0523 25.3634 16.1098 21.9656 21.8202 20.2659C21.6445 20.3938 21.4791 20.5383 21.3162 20.682C20.1672 21.7193 20.1817 21.9636 20.5441 22.9331C21.6851 25.9386 23.4661 28.66 25.7635 30.9088C25.8033 30.9479 25.8569 30.9697 25.9127 30.9697C25.9685 30.9697 26.0221 30.9479 26.0619 30.9088C27.1112 29.7112 27.532 28.0472 28.6968 26.9467C28.6968 27.3731 29.2872 28.9693 29.8526 31.3987C30.5228 34.3592 30.4712 35.3138 30.7309 35.9478C30.7735 36.0497 30.9577 36.0911 30.9807 35.9478C31.173 34.5835 29.6633 28.204 28.9973 27.0346C30.4272 27.6261 31.7525 28.4441 32.9223 29.4571C32.9551 29.4883 32.9962 29.5094 33.0407 29.5178C33.0852 29.5262 33.1312 29.5216 33.1731 29.5046C33.2151 29.4875 33.2512 29.4587 33.2772 29.4216C33.3032 29.3845 33.3179 29.3407 33.3197 29.2955C33.627 26.5524 32.9095 23.8041 32.1736 21.2004C31.9975 20.5903 31.8176 19.8967 31.2118 19.5684C30.5469 19.2239 29.8061 19.0522 29.0574 19.0691C29.0293 19.0705 29.0024 19.0817 28.9816 19.1008C28.9608 19.1199 28.9473 19.1456 28.9435 19.1736C28.9396 19.2015 28.9457 19.23 28.9606 19.2539C28.9755 19.2779 28.9983 19.2959 29.025 19.3049C29.6533 19.4352 30.2667 19.6289 30.8558 19.883C31.5303 20.2266 31.6232 20.9561 31.7388 21.3667C32.4708 23.9546 33.0506 26.2578 32.8899 28.8423C31.8846 28.0403 30.0896 26.8585 29.0736 26.6453C29.3627 26.181 29.5574 25.6642 29.6467 25.1245C30.073 23.449 30.247 21.1723 29.4898 19.6187C29.4386 19.5168 29.3047 19.5957 29.3192 19.6877C29.9822 23.9299 28.9227 25.6055 28.7509 26.4466C28.6396 26.4211 28.5646 26.494 28.478 26.5809C27.7959 25.8988 25.179 24.8849 23.4296 20.8483C23.4503 20.86 23.4737 20.8658 23.4975 20.865C23.5212 20.8641 23.5442 20.8567 23.5639 20.8436C24.4004 20.3025 24.4051 18.9851 24.3497 18.1068C24.2484 16.8278 24.0819 15.5548 23.8509 14.2927C23.8385 14.2506 23.8142 14.2129 23.7809 14.1843C23.7476 14.1557 23.7067 14.1373 23.6632 14.1315C23.6196 14.1256 23.5753 14.1325 23.5356 14.1513C23.4959 14.17 23.4625 14.1999 23.4395 14.2373C23.0131 15.1164 21.6062 14.9416 20.8643 13.7103C20.7198 13.4933 20.6222 13.2484 20.5776 12.9915C20.5331 12.7346 20.5426 12.4712 20.6055 12.2181C20.8156 11.7457 21.1358 11.3303 21.5392 11.0069C21.9252 10.7902 22.3796 10.7299 22.8088 10.8382C23.238 10.9466 23.6093 11.2154 23.8462 11.5893C24.1097 12.019 24.1446 12.5507 24.4516 12.9578C24.9658 13.6494 25.7997 13.5121 25.6906 13.1518C25.283 11.7841 25.6296 10.9084 25.8803 9.88813C26.0653 9.1207 26.102 8.51486 25.8479 8.1401C29.9762 8.70715 30.154 9.07125 31.6083 8.97702C31.6083 9.01966 31.6023 8.94547 31.7098 9.31427C31.4663 9.34667 30.8937 9.61825 30.8409 9.92906C30.8268 10.0032 30.8733 10.1094 30.9688 10.0996C31.2246 10.0702 31.4296 9.7986 31.8428 9.76193C32.0508 10.4556 32.2401 11.1488 32.4021 11.8562C32.8285 13.7176 33.4467 16.1968 32.1664 17.2836C31.2898 18.0233 29.4663 17.8613 28.4495 17.4498C28.0557 17.2509 27.6841 17.0108 27.341 16.7336C27.2557 16.6782 27.1193 16.7702 27.1611 16.8721C27.379 17.3119 27.7575 17.6512 28.2184 17.8199C28.0786 18.2684 28.4742 19.3812 28.7824 19.9649C28.8562 20.1081 28.9764 20.404 29.1939 20.3439C29.3738 20.2932 29.3371 20.0987 29.2723 19.9649C29.0113 19.4996 28.8035 19.0065 28.6528 18.4948C28.6091 18.304 28.555 18.1157 28.4908 17.9308C29.4684 18.2718 30.921 18.4117 31.9353 17.9538C33.998 17.0295 33.3584 14.2514 33.0076 12.5332C32.768 11.3146 32.4484 10.1131 32.0508 8.93652C34.4751 8.6044 36.1604 6.68071 36.1864 5.58031C36.1982 5.35737 36.151 5.13528 36.0495 4.9364C35.9481 4.73752 35.7961 4.56889 35.6087 4.4475C35.1001 4.161 34.5548 4.42448 34.0555 4.59075C33.4454 4.79625 32.5006 5.0576 31.8453 5.23369C31.6341 3.93134 31.1212 2.69644 30.3476 1.62763C29.9305 1.10755 29.3693 0.721975 28.7343 0.519129C26.7658 -0.188183 24.6899 -0.307134 23.0728 1.02179C22.5558 1.46755 22.0736 1.95216 21.6305 2.47138C21.1791 2.95116 20.816 3.50682 20.5578 4.11282C20.1033 5.42397 20.0004 6.83136 20.2593 8.19468C20.2429 8.22433 20.2328 8.25709 20.2298 8.29085C20.2268 8.32462 20.2308 8.35864 20.2417 8.39075C20.2526 8.42286 20.27 8.45235 20.293 8.47731C20.3159 8.50228 20.3438 8.52219 20.3749 8.53575C20.4107 9.40242 20.6115 10.2543 20.9666 11.0457C20.6037 11.32 20.3342 11.6995 20.1945 12.1324C20.1129 12.4597 20.1045 12.8009 20.17 13.1318C20.2355 13.4626 20.3733 13.7749 20.5735 14.0463C21.4463 15.3339 22.7731 15.4869 23.5 14.8785C23.6838 16.0348 24.0862 18.5451 23.8048 19.611C23.7977 19.5816 23.7802 19.5556 23.7557 19.5378C23.7312 19.52 23.7012 19.5115 23.671 19.5138C23.2266 19.5486 22.7947 19.6778 22.4043 19.8928C22.387 19.8697 22.3634 19.8521 22.3362 19.8423C22.3091 19.8324 22.2797 19.8307 22.2516 19.8374C17.4062 20.9135 11.7626 24.0941 7.73492 28.7489C3.41601 33.7487 1.69356 37.7069 0.554359 43.8984C-0.0190796 46.9996 -0.170433 47.9691 0.207738 53.1075C0.209256 53.178 0.237939 53.2453 0.287814 53.2953C0.33769 53.3452 0.404913 53.374 0.475484 53.3756C1.0259 53.3526 1.5712 53.3249 2.12161 53.2968C2.01929 54.5229 2.00266 57.1531 2.01503 58.3703C2.03379 60.0164 1.96898 61.7594 2.62556 63.3078C3.57887 65.5449 6.212 67.6395 8.2606 68.9433C14.5757 72.9578 23.387 74.9352 26.258 76.5251C26.8977 76.8537 27.5085 77.2357 28.0841 77.6668C29.0058 78.2993 29.8514 79.0362 30.6038 79.863C30.7792 80.1498 31.0131 80.3965 31.2903 80.5869C31.5675 80.7772 31.8817 80.907 32.2124 80.9676C32.8991 81.0317 33.5914 81.0006 34.2696 80.8751C34.3761 80.8661 34.3484 80.6948 34.2465 80.6948C33.6735 80.6948 33.0864 80.667 32.5177 80.6304C31.5989 80.5647 31.3665 80.1993 30.8549 79.5394C30.1461 78.7325 29.333 78.0235 28.4371 77.4311C26.5923 76.0778 26.2499 75.9248 25.1598 75.4801C20.863 73.727 12.0709 71.5001 6.57994 67.1403C4.87455 65.7849 3.23865 64.1895 2.76114 62.0736C2.35568 60.2433 2.55351 55.3326 2.49296 53.2759C6.26487 53.0789 9.6279 52.8286 13.4864 52.4948C13.4459 52.8474 13.477 56.8862 13.5234 58.1345C13.5929 60.2526 13.8466 61.5816 15.5345 63.0861C16.4273 63.877 24.9568 69.3825 24.9995 69.4102C28.0129 71.3714 28.2354 71.5794 28.9061 71.7632C29.6048 71.9298 30.3374 71.8832 31.0093 71.6293C34.4201 70.4624 36.4188 70.5089 37.7882 69.9094C37.9268 69.8472 37.8432 69.6349 37.7093 69.6302ZM34.2372 4.99579C34.6997 4.83846 35.3376 4.54258 35.6334 5.11601C35.7206 5.35053 35.7412 5.60455 35.693 5.85005C35.6449 6.09555 35.5298 6.32296 35.3606 6.50719C34.7634 7.3094 33.9413 7.91604 32.9986 8.2501C31.1704 8.9135 29.9289 8.33537 27.9037 8.00964C26.6008 7.79647 25.0638 7.59523 24.4367 7.52446C30.3621 6.05824 32.1523 5.7031 34.2372 4.99621V4.99579ZM20.568 8.1303C20.5863 6.99792 20.4942 5.85573 20.8038 4.75106C21.1414 3.5445 22.0244 2.63382 22.898 1.77856C23.3093 1.32006 23.8204 0.962031 24.3918 0.732014C24.9632 0.501996 25.5798 0.406122 26.1941 0.451766C26.8265 0.482058 27.4525 0.592366 28.0572 0.780054C28.693 0.915154 29.2815 1.21662 29.7626 1.65364C30.5855 2.49994 31.1696 4.13712 31.4041 5.35221C31.3606 5.36372 20.6106 8.13328 20.568 8.1303ZM23.7486 19.785C23.5912 20.2433 23.3606 20.6376 23.3606 20.6909C23.2994 20.5502 23.225 20.4156 23.1385 20.2889C23.1249 20.2676 23.1049 20.2512 23.0814 20.2421C23.0578 20.233 23.032 20.2318 23.0077 20.2385C22.9833 20.2452 22.9618 20.2596 22.9463 20.2795C22.9308 20.2994 22.9221 20.3238 22.9214 20.349C22.9705 20.7208 23.0813 21.0817 23.2493 21.417C24.0914 23.4141 25.5073 25.1163 27.3175 26.3081C27.5999 26.5226 27.9172 26.6868 28.2555 26.7933C27.2433 27.8429 26.8131 29.3177 25.9025 30.4501C23.9507 28.5027 22.3867 26.2023 21.2936 23.6711C20.5876 22.0352 20.559 22.0292 21.3214 21.2674C22.7044 19.8664 23.6377 19.86 23.7477 19.785H23.7486Z" fill="#191919"/>
<path d="M46.1229 32.1977C45.867 30.2881 44.2469 27.9768 42.8916 26.5699C40.4232 24.1097 37.5168 22.1326 34.322 20.7404C33.6149 20.3786 32.8468 20.1512 32.0568 20.0698C31.9289 20.0655 31.9178 20.2403 32.0291 20.283C33.3437 20.7479 34.6158 21.3253 35.8312 22.0088C38.2044 23.1823 40.3727 24.7308 42.2529 26.5946C44.9005 29.2422 45.2075 31.0009 45.9421 32.2484C45.986 32.3217 46.1369 32.2996 46.1229 32.1977Z" fill="#191919"/>
<path d="M8.55261 70.8968C8.40638 71.3087 8.41448 71.7725 8.38207 73.0742C8.32963 75.1364 8.3339 76.2232 8.32665 77.66C8.30184 78.3237 8.3447 78.9883 8.45455 79.6434C8.46242 79.6698 8.4786 79.6929 8.50069 79.7094C8.52277 79.7258 8.54958 79.7347 8.57713 79.7347C8.60467 79.7347 8.63149 79.7258 8.65357 79.7094C8.67566 79.6929 8.69184 79.6698 8.69971 79.6434C8.95807 78.7847 8.8323 77.7478 8.89838 73.356C8.92183 71.8037 8.97086 71.3748 8.82889 70.8968C8.8198 70.8673 8.80147 70.8414 8.77661 70.8231C8.75175 70.8047 8.72166 70.7948 8.69075 70.7948C8.65985 70.7948 8.62975 70.8047 8.60489 70.8231C8.58003 70.8414 8.56171 70.8673 8.55261 70.8968Z" fill="#191919"/>
</svg>
