<svg width="250" height="256" viewBox="0 0 250 256" fill="none" xmlns="http://www.w3.org/2000/svg">
<path d="M106.016 101.233C105.709 99.8795 104.107 98.9906 103.41 100.184C103.199 100.53 103.079 100.925 103.064 101.33C103.049 101.736 103.138 102.138 103.323 102.499C103.514 102.817 103.815 103.052 104.17 103.16C104.524 103.268 104.906 103.24 105.242 103.083C105.577 102.925 105.842 102.649 105.985 102.307C106.128 101.965 106.139 101.582 106.016 101.233Z" fill="#191919"/>
<path d="M107.122 8.03268C106.666 6.59065 106.498 6.3342 105.012 6.22678C102.036 5.93778 99.0622 6.79709 96.6993 8.62882C96.6597 8.66212 96.6296 8.70513 96.6117 8.75362C96.5938 8.80211 96.5888 8.85442 96.5972 8.90541C96.557 9.02229 96.5468 9.14743 96.5677 9.26928C97.4941 14.311 97.721 17.3468 103.584 18.2088C104.105 18.3576 104.653 18.3875 105.186 18.2961C106.216 17.9349 106.478 16.4888 106.861 15.6174C107.962 13.112 108.356 11.9224 107.122 8.03268ZM105.697 14.7877C105.449 15.3408 105.257 15.9504 104.997 16.4902C104.704 17.1011 104.62 16.9091 103.978 16.8258C98.4085 16.1021 98.7858 12.9321 97.8929 8.93495C100.115 8.06577 102.481 7.62127 104.867 7.6245C105.216 7.63927 105.392 7.59362 105.58 7.87156C105.731 8.19064 105.839 8.52837 105.901 8.87587C106.301 9.81614 106.491 10.8329 106.456 11.8544C106.42 12.876 106.161 13.8773 105.697 14.7877Z" fill="#191919"/>
<path d="M99.6245 33.9181C100.564 34.1383 101.281 33.6844 103.454 33.6844C104.065 33.6844 106.13 34.1222 106.005 32.9715C105.885 31.8973 103.632 32.0692 102.917 32.0974C101.662 31.9974 100.413 32.3599 99.407 33.1165C99.3495 33.177 99.3086 33.2513 99.2882 33.3322C99.2678 33.4131 99.2685 33.4979 99.2904 33.5784C99.3123 33.659 99.3545 33.7325 99.413 33.792C99.4715 33.8515 99.5443 33.8949 99.6245 33.9181Z" fill="#191919"/>
<path d="M117.051 41.8519C116.064 39.8849 115.004 37.9474 113.864 36.0583C112.888 34.1264 111.615 32.3595 110.092 30.8219C109.801 30.5748 109.218 30.7937 109.379 31.2448C110.272 33.1988 111.344 35.0655 112.583 36.8209C113.509 38.3959 114.387 40.0071 115.232 41.6183C112.121 41.9351 111.431 41.5726 110.369 42.0211C110.289 42.0707 110.223 42.1399 110.177 42.2222C110.131 42.3044 110.107 42.3969 110.107 42.491C110.107 42.5851 110.131 42.6776 110.177 42.7599C110.223 42.8421 110.289 42.9113 110.369 42.9609C111.329 43.3282 112.369 43.4339 113.383 43.2671C114.462 43.2162 115.538 43.1091 116.605 42.9462C117.11 42.8844 117.242 42.2305 117.051 41.8519Z" fill="#191919"/>
<path d="M110.689 50.0771C112.769 52.4416 117.205 49.6609 116.833 47.3689C116.809 47.286 116.753 47.2157 116.678 47.1723C116.603 47.1288 116.515 47.1156 116.43 47.1353C115.21 47.3407 114.626 48.8687 113.46 49.2755C111.875 49.8301 111.428 48.2766 110.403 47.471C109.704 46.9259 109.172 48.3518 110.689 50.0771Z" fill="#191919"/>
<path d="M249.188 177.73C247.636 170.619 243.683 164.259 237.992 159.721C232.924 155.79 222.768 151.54 214.698 151.277C213.694 151.245 213.694 152.805 214.698 152.834C217.981 153.023 221.221 153.674 224.321 154.77C234.371 158.043 242.077 163.166 246.102 173.29C248.897 180.322 248.849 188.153 247.645 195.535C246.645 202.96 243.405 209.903 238.356 215.438C232.569 221.419 225.273 223.472 217.043 224.726C200.056 227.314 185.709 219.153 179.64 205.771C173.537 192.31 178.215 172.143 187.502 162.691C193.517 156.892 201.294 153.265 209.603 152.383C209.69 152.383 209.773 152.349 209.835 152.287C209.896 152.226 209.93 152.142 209.93 152.056C209.93 151.969 209.896 151.885 209.835 151.824C209.773 151.763 209.69 151.728 209.603 151.728C206.19 151.69 202.802 152.318 199.629 153.577C188.842 157.571 181.67 164.787 177.791 176.813C168.044 207.023 188.41 226.895 210.552 226.895C215.063 226.808 219.546 226.172 223.902 225.002C229.645 223.847 234.939 221.079 239.165 217.023C243.391 212.967 246.374 207.791 247.764 202.101C249.882 195.112 250.783 184.778 249.188 177.73Z" fill="#191919"/>
<path d="M235.153 167.801C233.718 168.591 232.456 169.66 231.441 170.946C222.348 181.073 215.338 192.892 210.811 205.728C206.551 200.491 199.824 193.136 194.068 189.567C193.195 189.03 192.457 190.197 193.034 190.91C197.359 196.258 201.818 199.659 210.228 210.346C211.055 211.396 212.685 210.679 213.024 209.604C216.702 197.942 222.533 187.072 230.212 177.556C234.581 172.149 235.876 171.463 236.749 169.418C236.869 169.194 236.914 168.938 236.878 168.686C236.842 168.435 236.726 168.202 236.548 168.021C236.369 167.84 236.138 167.721 235.887 167.682C235.636 167.642 235.379 167.684 235.153 167.801Z" fill="#FFD97C"/>
<path d="M143.61 186.206C143.492 158.217 143.422 155.022 143.69 150.066C140.845 149.44 95.5562 126.703 88.5206 122.883C88.4991 141.626 88.1487 124.897 88.4495 171.354C88.5354 184.666 88.5837 196.989 88.3904 209.44C92.9107 211.959 97.2283 214.826 101.304 218.014C103.357 219.601 105.425 221.538 108.018 222.163C112.764 223.31 116.08 219.832 134.165 217.578C135.039 217.476 136.447 217.068 136.888 218.146C137.118 219.086 137.004 220.078 136.567 220.941C134.974 224.603 129.575 226.665 125.78 228.031C123.611 228.817 121.393 229.459 119.14 229.953C119.573 230.339 120.035 230.689 120.523 231.001C131.978 236.624 142.892 243.51 145.304 244.531C143.931 226.399 143.688 205.811 143.61 186.206Z" fill="#FFD97C"/>
<path d="M238.692 120.543C238.691 120.517 238.684 120.492 238.671 120.47C238.659 120.448 238.641 120.428 238.62 120.414C238.598 120.4 238.574 120.391 238.548 120.388C238.523 120.386 238.497 120.389 238.473 120.398L238.254 119.931C238.287 119.909 238.314 119.878 238.332 119.842C238.35 119.806 238.357 119.767 238.355 119.727C238.352 119.687 238.338 119.648 238.316 119.615C238.293 119.582 238.262 119.556 238.226 119.539C219.675 112.008 199.08 105.535 179.612 99.6808C179.609 99.6503 179.599 99.6208 179.584 99.5943C179.569 99.5677 179.548 99.5447 179.524 99.5268C179.499 99.5088 179.47 99.4964 179.44 99.4903C179.41 99.4842 179.38 99.4846 179.35 99.4914C161.289 103.439 144.956 108.183 127.403 112.186C114.648 115.115 125.926 112.301 109.219 116.496C102.624 118.165 95.9591 119.532 89.2524 120.677C93.7866 122.667 99.6702 125.997 117.779 134.859C119.101 133.934 200.501 108.158 201.464 107.855C201.808 107.76 202.175 107.804 202.488 107.975C202.8 108.147 203.034 108.434 203.139 108.775C203.244 109.116 203.211 109.485 203.049 109.802C202.887 110.12 202.607 110.362 202.269 110.477C201.598 110.695 133.332 132.549 120.761 136.289C137.184 144.374 143.762 147.183 144.697 148.159C144.946 148.149 145.19 148.229 145.385 148.383C145.581 148.538 145.715 148.757 145.763 149.001C159.618 143.434 233.337 121.306 234.041 121.106C234.369 121.019 234.718 121.064 235.014 121.231C235.31 121.398 235.529 121.674 235.625 121.999C235.72 122.325 235.686 122.675 235.528 122.976C235.37 123.276 235.101 123.503 234.778 123.609C225.844 126.67 172.674 142.113 150.563 149.925C149.04 150.498 147.483 150.972 145.9 151.345C146.653 168.242 145.631 213.361 147.887 244.154C154.953 241.555 178.19 232.753 194.624 226.296C188.95 223.804 184.007 219.902 180.266 214.961C176.526 210.02 174.111 204.204 173.251 198.066C171.718 186.51 175.171 170.414 183.724 160.592C191.768 151.351 208.415 146.681 219.858 148.93C226.798 150.361 233.375 153.185 239.193 157.229C239.248 144.735 238.94 133.214 238.692 120.543Z" fill="#FFD97C"/>
<path d="M142.544 244.076C140.78 244.201 139.545 244.822 135.264 245.444C129.067 246.342 128.838 245.903 124.361 241.425C123.398 240.185 122.188 239.159 120.808 238.412C120.388 238.262 120.096 238.775 120.271 239.11C120.674 239.899 121.188 240.304 123.692 242.793C128.257 247.326 128.75 247.783 135.091 246.856C137.725 246.527 140.3 245.837 142.744 244.803C142.817 244.759 142.872 244.692 142.903 244.613C142.934 244.534 142.939 244.447 142.916 244.365C142.894 244.283 142.846 244.21 142.778 244.158C142.711 244.106 142.629 244.077 142.544 244.076Z" fill="#191919"/>
<path d="M133.693 248.88C131.638 249.742 129.479 250.334 127.272 250.641C126.124 250.902 124.92 250.698 123.923 250.073C121.767 248.543 115.749 243.257 114.096 242.867C113.559 242.74 113.092 243.434 113.528 243.827C114.16 244.316 114.821 244.764 115.509 245.17C117.598 246.612 119.726 248.433 121.972 250.178C124.142 251.863 124.585 252.214 127.448 251.852C129.778 251.604 132.01 250.779 133.941 249.45C134.187 249.27 134.042 248.747 133.693 248.88Z" fill="#191919"/>
<path d="M134.756 219.282C132.494 219.351 130.244 219.649 128.042 220.169C112.87 223.055 112.411 224.885 108.708 224.537C106.094 224.29 106.711 224.2 84.3369 209.789C71.7266 201.654 64.7339 198.179 61.8002 192.159C60.6583 189.361 60.1127 186.356 60.1984 183.336C59.9017 174.678 60.1635 167.224 59.7754 165.21C61.2752 165.093 62.775 164.963 64.2747 164.831C64.447 164.829 64.6138 164.771 64.7503 164.666C64.8868 164.561 64.9856 164.414 65.032 164.248C66.4639 156.654 66.5376 148.866 65.2495 141.246C64.8674 137.681 64.2497 134.145 63.4007 130.662C63.3735 130.528 63.2965 130.409 63.1853 130.33C63.074 130.251 62.9369 130.218 62.8017 130.236C62.6665 130.255 62.5434 130.324 62.4574 130.43C62.3714 130.536 62.3289 130.67 62.3386 130.807C62.9535 141.951 66.0981 147.413 63.5752 163.299C49.1536 164.518 32.7636 165.825 18.2681 166.356C17.5672 155.3 17.249 150.717 18.7783 141.92C22.1001 122.129 26.2973 110.319 39.0527 94.5007C50.8062 79.8753 66.7337 69.1747 84.7169 63.822C84.1637 64.2248 83.6428 64.68 83.1299 65.1325C79.5114 68.3992 79.557 69.1685 80.6983 72.2218C84.2916 81.6868 89.9002 90.2573 97.1353 97.3391C97.2608 97.4621 97.4295 97.531 97.6052 97.531C97.7809 97.531 97.9497 97.4621 98.0751 97.3391C101.379 93.5676 102.705 88.3271 106.373 84.8617C106.373 86.2044 108.232 91.2313 110.013 98.8819C112.124 108.205 111.961 111.212 112.779 113.208C112.913 113.529 113.493 113.659 113.566 113.208C114.171 108.912 109.417 88.8212 107.319 85.1383C111.823 87.0011 115.996 89.5772 119.68 92.7673C119.783 92.8656 119.913 92.932 120.053 92.9585C120.193 92.985 120.338 92.9705 120.47 92.9168C120.602 92.8631 120.716 92.7724 120.798 92.6556C120.88 92.5389 120.926 92.401 120.931 92.2585C121.9 83.6197 119.64 74.9649 117.322 66.7652C116.768 64.8438 116.201 62.6593 114.293 61.6254C112.199 60.5407 109.866 60 107.509 60.0531C107.42 60.0575 107.336 60.0928 107.27 60.1529C107.204 60.2129 107.162 60.294 107.15 60.3821C107.138 60.4701 107.157 60.5597 107.204 60.6352C107.251 60.7107 107.322 60.7675 107.407 60.7956C109.385 61.2059 111.317 61.816 113.172 62.6163C115.296 63.6985 115.589 65.9958 115.953 67.2888C118.258 75.4388 120.084 82.6919 119.578 90.8312C116.412 88.3056 110.759 84.5837 107.56 83.9124C108.47 82.4501 109.083 80.8226 109.364 79.1231C110.707 73.8464 111.255 66.6765 108.87 61.7838C108.709 61.4629 108.288 61.7113 108.333 62.0014C110.421 75.3609 107.084 80.6376 106.543 83.2867C106.193 83.2062 105.957 83.4358 105.684 83.7097C103.536 81.5614 95.2945 78.3685 89.7855 65.6561C89.8504 65.6931 89.9244 65.7113 89.9991 65.7087C90.0738 65.7061 90.1462 65.6828 90.2084 65.6413C92.8428 63.9375 92.8575 59.7886 92.683 57.0227C92.364 52.9948 91.8397 48.9857 91.1121 45.0112C91.0731 44.8785 90.9966 44.7599 90.8917 44.6697C90.7867 44.5796 90.6579 44.5218 90.5209 44.5033C90.3838 44.4849 90.2443 44.5065 90.1193 44.5657C89.9942 44.6248 89.889 44.719 89.8164 44.8366C88.4737 47.6052 84.0429 47.0547 81.7066 43.1771C81.2516 42.4935 80.9442 41.7225 80.8038 40.9133C80.6635 40.1042 80.6934 39.2747 80.8916 38.4778C81.5534 36.9898 82.5616 35.6819 83.8321 34.6632C85.0477 33.981 86.4787 33.7909 87.8303 34.1321C89.1818 34.4734 90.3511 35.3199 91.0973 36.4973C91.9271 37.8507 92.0372 39.525 93.0039 40.8073C94.6231 42.9851 97.2494 42.5528 96.9057 41.4182C95.6221 37.1109 96.7137 34.3531 97.5032 31.1401C98.0859 28.7233 98.2014 26.8153 97.4011 25.6351C110.402 27.4209 110.962 28.5675 115.542 28.2708C115.542 28.405 115.523 28.1714 115.862 29.3328C115.095 29.4349 113.292 30.2901 113.125 31.269C113.081 31.5026 113.227 31.8369 113.528 31.806C114.334 31.7134 114.979 30.8581 116.28 30.7426C116.936 32.9272 117.532 35.1103 118.042 37.3378C119.385 43.1999 121.332 51.0076 117.3 54.43C114.539 56.7596 108.796 56.2494 105.594 54.9537C104.354 54.3273 103.184 53.5711 102.103 52.698C101.835 52.5234 101.405 52.8135 101.537 53.1344C102.223 54.5193 103.415 55.5877 104.866 56.1191C104.426 57.5316 105.672 61.036 106.643 62.8741C106.875 63.3252 107.254 64.257 107.938 64.0677C108.505 63.908 108.39 63.2957 108.185 62.8741C107.364 61.409 106.709 59.856 106.235 58.2446C106.097 57.6436 105.926 57.0507 105.724 56.4682C108.803 57.5424 113.378 57.9827 116.572 56.5407C123.068 53.6298 121.054 44.881 119.949 39.47C119.194 35.6323 118.188 31.8485 116.936 28.1432C124.57 27.0973 129.878 21.0391 129.96 17.5737C129.997 16.8716 129.848 16.1722 129.529 15.5459C129.209 14.9196 128.73 14.3885 128.14 14.0062C126.538 13.104 124.821 13.9337 123.249 14.4574C121.328 15.1045 118.352 15.9276 116.288 16.4821C115.623 12.3807 114.008 8.49172 111.572 5.1258C110.258 3.48794 108.491 2.27367 106.491 1.63486C100.292 -0.592632 93.7544 -0.967237 88.6617 3.21787C87.0335 4.62167 85.515 6.1478 84.1194 7.78295C82.698 9.29389 81.5544 11.0438 80.7413 12.9522C79.3099 17.0814 78.9858 21.5136 79.8014 25.807C79.7497 25.9004 79.718 26.0035 79.7084 26.1099C79.6989 26.2162 79.7116 26.3233 79.7459 26.4245C79.7801 26.5256 79.8351 26.6184 79.9073 26.6971C79.9796 26.7757 80.0674 26.8384 80.1653 26.8811C80.2779 29.6104 80.9105 32.2932 82.0289 34.7854C80.886 35.6494 80.037 36.8444 79.5973 38.2079C79.3401 39.2384 79.3138 40.3131 79.5201 41.355C79.7264 42.3969 80.1604 43.3804 80.7909 44.2351C83.5394 48.29 87.7178 48.772 90.007 46.856C90.5857 50.4974 91.8532 58.403 90.967 61.7597C90.9444 61.667 90.8896 61.5853 90.8124 61.5293C90.7352 61.4732 90.6406 61.4464 90.5454 61.4535C89.146 61.5631 87.786 61.9701 86.5564 62.6472C86.502 62.5744 86.4275 62.5191 86.3421 62.4881C86.2567 62.4571 86.1641 62.4517 86.0757 62.4726C70.8162 65.8615 53.0433 75.8779 40.3591 90.5372C26.7578 106.283 21.3334 118.748 17.7458 138.246C15.9399 148.013 15.4633 151.066 16.6542 167.248C16.659 167.47 16.7493 167.682 16.9064 167.839C17.0635 167.997 17.2752 168.087 17.4974 168.093C19.2308 168.02 20.9481 167.933 22.6815 167.844C22.3592 171.706 22.3069 179.989 22.3458 183.822C22.4049 189.006 22.2008 194.495 24.2685 199.371C27.2707 206.416 35.5631 213.013 42.0146 217.119C61.9022 229.761 89.6512 235.989 98.6928 240.996C100.707 242.031 102.631 243.233 104.443 244.591C107.346 246.583 110.009 248.904 112.379 251.507C112.931 252.411 113.668 253.188 114.541 253.787C115.413 254.387 116.403 254.795 117.445 254.986C119.607 255.188 121.787 255.09 123.923 254.695C124.259 254.667 124.171 254.127 123.85 254.127C122.046 254.127 120.197 254.04 118.406 253.924C115.512 253.717 114.781 252.567 113.169 250.488C110.937 247.947 108.377 245.714 105.555 243.849C99.7454 239.587 98.6673 239.105 95.2341 237.705C81.7026 232.184 54.014 225.171 36.7218 211.441C31.3511 207.172 26.1993 202.148 24.6955 195.484C23.4186 189.72 24.0416 174.255 23.8509 167.778C35.7295 167.158 46.3205 166.37 58.4717 165.319C58.3442 166.429 58.4422 179.148 58.5885 183.079C58.8074 189.75 59.6063 193.935 64.9219 198.673C67.7335 201.164 94.5949 218.502 94.7292 218.589C104.219 224.765 104.92 225.421 107.032 225.999C109.232 226.524 111.54 226.377 113.655 225.578C124.397 221.903 130.691 222.049 135.004 220.161C135.44 219.965 135.177 219.297 134.756 219.282ZM123.821 15.7329C125.278 15.2375 127.286 14.3056 128.218 16.1115C128.492 16.8501 128.557 17.6501 128.406 18.4232C128.254 19.1963 127.892 19.9125 127.359 20.4927C125.478 23.019 122.889 24.9295 119.92 25.9815C114.163 28.0707 110.253 26.2501 103.875 25.2243C99.7723 24.5529 94.932 23.9192 92.9569 23.6963C111.617 19.0788 117.255 17.9604 123.821 15.7343V15.7329ZM80.7735 25.6042C80.8312 22.0381 80.5412 18.4411 81.516 14.9622C82.5794 11.1625 85.3601 8.29451 88.1112 5.60111C89.4066 4.15719 91.016 3.02966 92.8156 2.30528C94.6151 1.5809 96.5568 1.27897 98.4914 1.42272C100.483 1.51812 102.455 1.8655 104.359 2.45657C106.361 2.88204 108.214 3.83142 109.73 5.20771C112.321 7.87291 114.16 13.0288 114.899 16.8554C114.762 16.8916 80.9077 25.6136 80.7735 25.6042ZM90.7898 62.3075C90.2944 63.7509 89.568 64.9928 89.568 65.1607C89.3753 64.7175 89.1411 64.2935 88.8684 63.8945C88.8259 63.8274 88.7629 63.7757 88.6887 63.7472C88.6145 63.7186 88.5332 63.7146 88.4566 63.7359C88.38 63.7571 88.3122 63.8024 88.2633 63.865C88.2144 63.9277 88.187 64.0044 88.185 64.0838C88.3396 65.2546 88.6885 66.3914 89.2175 67.4472C91.8696 73.7364 96.3284 79.0971 102.029 82.8504C102.919 83.5261 103.918 84.043 104.983 84.3783C101.796 87.684 100.441 92.3283 97.573 95.8944C91.4265 89.7617 86.501 82.5171 83.0587 74.5459C80.8352 69.3941 80.7453 69.3753 83.146 66.976C87.5016 62.5639 90.4407 62.5438 90.7871 62.3075H90.7898Z" fill="#191919"/>
<path d="M161.252 101.398C160.446 95.3841 155.344 88.1055 151.076 83.6747C143.302 75.9271 134.149 69.7007 124.088 65.3164C121.861 64.1768 119.443 63.4607 116.954 63.2043C116.552 63.1909 116.517 63.7414 116.867 63.8757C121.007 65.3398 125.013 67.1583 128.841 69.3108C136.315 73.0064 143.143 77.8829 149.064 83.7526C157.402 92.0906 158.369 97.6291 160.683 101.558C160.821 101.789 161.296 101.719 161.252 101.398Z" fill="#191919"/>
<path d="M42.9328 223.271C42.4723 224.568 42.4978 226.029 42.3957 230.128C42.2306 236.622 42.244 240.045 42.2212 244.57C42.1431 246.66 42.278 248.753 42.624 250.816C42.6488 250.899 42.6997 250.972 42.7693 251.024C42.8388 251.076 42.9233 251.104 43.01 251.104C43.0968 251.104 43.1812 251.076 43.2508 251.024C43.3203 250.972 43.3713 250.899 43.396 250.816C44.2097 248.112 43.8136 244.846 44.0217 231.015C44.0956 226.127 44.25 224.776 43.8029 223.271C43.7742 223.178 43.7165 223.097 43.6382 223.039C43.5599 222.981 43.4652 222.95 43.3678 222.95C43.2705 222.95 43.1757 222.981 43.0974 223.039C43.0192 223.097 42.9615 223.178 42.9328 223.271Z" fill="#191919"/>
<circle cx="29" cy="217" r="29" fill="#0BC9B4"/>
<path d="M28.8495 228.298C27.1308 228.298 25.6038 228.004 24.2686 227.414C22.9404 226.817 21.8964 225.997 21.1365 224.953C20.3765 223.909 19.993 222.709 19.9859 221.352H25.9518C25.9589 221.771 26.0867 222.148 26.3353 222.482C26.591 222.808 26.939 223.064 27.3794 223.249C27.8197 223.433 28.324 223.526 28.8921 223.526C29.439 223.526 29.922 223.43 30.341 223.238C30.76 223.039 31.0867 222.766 31.3211 222.418C31.5555 222.07 31.6691 221.672 31.662 221.224C31.6691 220.784 31.5342 220.393 31.2572 220.053C30.9873 219.712 30.6073 219.445 30.1173 219.254C29.6272 219.062 29.0626 218.966 28.4234 218.966H26.2075V214.875H28.4234C29.0129 214.875 29.5313 214.779 29.9788 214.587C30.4333 214.396 30.7849 214.129 31.0335 213.788C31.2892 213.447 31.4134 213.057 31.4063 212.616C31.4134 212.19 31.3105 211.814 31.0974 211.487C30.8843 211.161 30.586 210.905 30.2025 210.72C29.8261 210.536 29.3893 210.443 28.8921 210.443C28.3524 210.443 27.8694 210.539 27.4433 210.731C27.0242 210.923 26.694 211.189 26.4525 211.53C26.211 211.871 26.0867 212.261 26.0796 212.702H20.412C20.4191 211.366 20.7849 210.187 21.5093 209.165C22.2409 208.142 23.2423 207.339 24.5136 206.757C25.7849 206.175 27.2444 205.884 28.8921 205.884C30.5044 205.884 31.9284 206.157 33.1642 206.704C34.407 207.251 35.3765 208.004 36.0725 208.962C36.7757 209.914 37.1237 211.004 37.1166 212.233C37.1308 213.455 36.7117 214.456 35.8595 215.237C35.0143 216.018 33.9419 216.48 32.6421 216.622V216.793C34.4035 216.984 35.7281 217.524 36.6159 218.412C37.5036 219.293 37.9404 220.401 37.9262 221.736C37.9333 223.014 37.5498 224.147 36.7757 225.134C36.0086 226.121 34.9397 226.896 33.569 227.457C32.2053 228.018 30.6322 228.298 28.8495 228.298Z" fill="black"/>
</svg>
