<svg width="29" height="29" viewBox="0 0 29 29" fill="none" xmlns="http://www.w3.org/2000/svg">
<circle cx="14.5" cy="14.5" r="14.5" fill="#0BC9B4"/>
<path d="M14.4248 19.6491C13.5654 19.6491 12.8019 19.5018 12.1343 19.207C11.4702 18.9087 10.9482 18.4986 10.5682 17.9766C10.1883 17.4545 9.99649 16.8544 9.99294 16.1761H12.9759C12.9794 16.3857 13.0434 16.5739 13.1677 16.7408C13.2955 16.9041 13.4695 17.032 13.6897 17.1243C13.9098 17.2166 14.162 17.2628 14.4461 17.2628C14.7195 17.2628 14.961 17.2148 15.1705 17.119C15.38 17.0195 15.5434 16.8828 15.6606 16.7088C15.7777 16.5348 15.8346 16.3359 15.831 16.1122C15.8346 15.892 15.7671 15.6967 15.6286 15.5263C15.4937 15.3558 15.3037 15.2227 15.0586 15.1268C14.8136 15.0309 14.5313 14.983 14.2117 14.983H13.1037V12.9375H14.2117C14.5064 12.9375 14.7657 12.8896 14.9894 12.7937C15.2167 12.6978 15.3924 12.5646 15.5167 12.3942C15.6446 12.2237 15.7067 12.0284 15.7032 11.8082C15.7067 11.5952 15.6552 11.407 15.5487 11.2436C15.4422 11.0803 15.293 10.9524 15.1013 10.8601C14.913 10.7678 14.6946 10.7216 14.4461 10.7216C14.1762 10.7216 13.9347 10.7695 13.7216 10.8654C13.5121 10.9613 13.347 11.0945 13.2263 11.2649C13.1055 11.4354 13.0434 11.6307 13.0398 11.8509H10.206C10.2096 11.1832 10.3924 10.5937 10.7547 10.0824C11.1204 9.57102 11.6211 9.16974 12.2568 8.87855C12.8924 8.58736 13.6222 8.44176 14.4461 8.44176C15.2522 8.44176 15.9642 8.57848 16.5821 8.85192C17.2035 9.12535 17.6883 9.50178 18.0363 9.98118C18.3878 10.457 18.5618 11.0021 18.5583 11.6165C18.5654 12.2273 18.3559 12.728 17.9297 13.1186C17.5071 13.5092 16.9709 13.7401 16.3211 13.8111V13.8963C17.2017 13.9922 17.864 14.2621 18.3079 14.706C18.7518 15.1463 18.9702 15.7003 18.9631 16.3679C18.9667 17.0071 18.7749 17.5735 18.3878 18.0671C18.0043 18.5607 17.4699 18.9478 16.7845 19.2283C16.1027 19.5089 15.3161 19.6491 14.4248 19.6491Z" fill="black"/>
</svg>
