<svg width="29" height="29" viewBox="0 0 29 29" fill="none" xmlns="http://www.w3.org/2000/svg">
<circle cx="14.5" cy="14.5" r="14.5" fill="#0BC9B4"/>
<path d="M10.3758 19.5V17.3693L14.4454 14.0028C14.7153 13.7791 14.9461 13.5696 15.1379 13.3743C15.3332 13.1754 15.4823 12.9712 15.5853 12.7617C15.6919 12.5522 15.7451 12.3196 15.7451 12.0639C15.7451 11.7834 15.6847 11.5437 15.564 11.3448C15.4468 11.146 15.2835 10.9933 15.074 10.8867C14.8644 10.7766 14.623 10.7216 14.3495 10.7216C14.0761 10.7216 13.8346 10.7766 13.6251 10.8867C13.4191 10.9968 13.2593 11.1584 13.1457 11.3714C13.032 11.5845 12.9752 11.8437 12.9752 12.1491H10.1627C10.1627 11.3821 10.335 10.7216 10.6794 10.1676C11.0239 9.61364 11.5104 9.1875 12.1389 8.8892C12.7675 8.59091 13.5044 8.44176 14.3495 8.44176C15.2231 8.44176 15.9795 8.58203 16.6187 8.86257C17.2615 9.13956 17.7568 9.53018 18.1048 10.0344C18.4564 10.5387 18.6322 11.13 18.6322 11.8082C18.6322 12.2273 18.5452 12.6445 18.3712 13.06C18.1972 13.4719 17.8847 13.9283 17.4337 14.429C16.9827 14.9297 16.3417 15.5263 15.5107 16.2188L14.488 17.071V17.1349H18.7494V19.5H10.3758Z" fill="black"/>
</svg>
