<svg width="84" height="126" viewBox="0 0 84 126" fill="none" xmlns="http://www.w3.org/2000/svg">
<path d="M38.1371 97.65C38.949 98.9051 40.3761 99.7418 42 99.7418C43.6239 99.7418 45.051 98.9051 45.8875 97.65L73.0018 55.7648C76.6432 50.1293 78.7592 43.9277 78.7592 36.7418C78.7346 15.9715 62.4218 0 42 0C21.5782 0 5.26538 15.9715 5.26538 36.7418C5.26538 43.9277 7.38137 50.1293 11.0228 55.7648L38.1371 97.65ZM42 15.75C53.5887 15.75 62.9877 25.1508 62.9877 36.7418C62.9877 48.3328 53.5887 57.7336 42 57.7336C30.4112 57.7336 21.0123 48.3328 21.0123 36.7418C21.0123 25.1508 30.4112 15.75 42 15.75ZM68.9174 79.6113L42 115.492L15.0826 79.6113C5.88049 84.4348 0 91.6453 0 99.7418C0 114.237 18.7979 126 42 126C65.2021 126 84 114.237 84 99.7418C84 91.6453 78.1195 84.4348 68.9174 79.6113Z" fill="#0BC9B4"/>
</svg>
