<svg width="28" height="34" viewBox="0 0 28 34" fill="none" xmlns="http://www.w3.org/2000/svg">
<path d="M26.902 4.3567L14.4088 0.0776002C14.258 0.0258667 14.0558 0 13.8536 0C13.6514 0 13.4492 0.0258667 13.2984 0.0776002L0.805174 4.3567C0.500012 4.46017 0.25 4.81491 0.25 5.14009V22.966C0.25 23.2912 0.459569 23.7198 0.713258 23.9231L13.3867 33.8485C13.5153 33.9483 13.6808 34 13.8499 34C14.019 34 14.1882 33.9483 14.3132 33.8485L26.9866 23.9231C27.2403 23.7235 27.4498 23.2949 27.4498 22.966V5.14009C27.4572 4.81491 27.2072 4.46386 26.902 4.3567ZM24.81 22.2565L13.8536 30.8369L2.89719 22.2565V6.4556L13.8536 2.70123L24.81 6.4556V22.2565ZM9.89017 14.829C9.77987 14.6775 9.60339 14.5852 9.41221 14.5852H7.3827C7.14372 14.5852 7.004 14.8586 7.14372 15.0545L11.791 21.4842C11.846 21.5598 11.9179 21.6213 12.0009 21.6637C12.084 21.7061 12.1758 21.7282 12.269 21.7282C12.3621 21.7282 12.4539 21.7061 12.537 21.6637C12.6201 21.6213 12.692 21.5598 12.7469 21.4842L20.5635 10.6682C20.7032 10.4723 20.5635 10.1989 20.3245 10.1989H18.295C18.1075 10.1989 17.9273 10.2913 17.817 10.4428L12.269 18.1215L9.89017 14.829Z" fill="black"/>
</svg>
