<svg width="76" height="11" viewBox="0 0 76 11" fill="none" xmlns="http://www.w3.org/2000/svg">
<path d="M2.28885 11L3.2733 6.93185L0 4.19678L4.31174 3.83691L6.0004 0L7.68905 3.83614L12 4.19602L8.72749 6.93109L9.71194 10.9992L6.0004 8.83997L2.28885 11Z" fill="black"/>
<path d="M18.2889 11L19.2733 6.93185L16 4.19678L20.3117 3.83691L22.0004 0L23.6891 3.83614L28 4.19602L24.7275 6.93109L25.7119 10.9992L22.0004 8.83997L18.2889 11Z" fill="black"/>
<path d="M34.2889 11L35.2733 6.93185L32 4.19678L36.3117 3.83691L38.0004 0L39.6891 3.83614L44 4.19602L40.7275 6.93109L41.7119 10.9992L38.0004 8.83997L34.2889 11Z" fill="black"/>
<path d="M50.2889 11L51.2733 6.93185L48 4.19678L52.3117 3.83691L54.0004 0L55.6891 3.83614L60 4.19602L56.7275 6.93109L57.7119 10.9992L54.0004 8.83997L50.2889 11Z" fill="black"/>
<path d="M66.2889 11L67.2733 6.93185L64 4.19678L68.3117 3.83691L70.0004 0L71.6891 3.83614L76 4.19602L72.7275 6.93109L73.7119 10.9992L70.0004 8.83997L66.2889 11Z" fill="black"/>
</svg>
