<svg width="390" height="410" viewBox="0 0 390 410" fill="none" xmlns="http://www.w3.org/2000/svg">
<path fill-rule="evenodd" clip-rule="evenodd" d="M224.611 11.1839C267.455 4.66094 310.544 -6.85236 351.984 5.41188C400.419 19.7462 452.178 42.2637 475.292 85.3725C498.563 128.773 491.84 183.853 471.682 228.653C453.43 269.217 404.987 285.874 371.418 316.227C341.977 342.849 323.755 380.786 286.512 396.085C247.111 412.271 201.875 414.095 160.642 402.813C119.266 391.491 89.0781 360.891 57.1469 333.325C20.8638 302.002 -23.7628 275.391 -38.5398 230.861C-54.2085 183.643 -57.3816 124.52 -24.9751 85.8498C7.63633 46.9353 71.1094 55.4914 120.91 40.5933C156.031 30.0863 188.266 16.7175 224.611 11.1839Z" fill="#EDF6FF"/>
</svg>
