<svg width="390" height="408" viewBox="0 0 390 408" fill="none" xmlns="http://www.w3.org/2000/svg">
<path fill-rule="evenodd" clip-rule="evenodd" d="M184.02 14.9897C232.269 12.7743 280.721 -10.0693 325.581 5.25653C372.767 21.377 406.062 59.0421 427.784 98.2686C449.674 137.799 462.411 183.799 447.633 225.664C433.494 265.718 383.886 285.828 350.707 316.614C318.765 346.252 300.961 390.461 256.231 403.26C211.236 416.135 161.533 400.571 118.785 382.978C80.2326 367.112 58.213 334.534 27.4712 309.114C-6.87432 280.714 -62.7701 264.759 -72.5119 224.795C-82.2347 184.909 -41.9539 149.946 -20.1633 113.7C0.568237 79.2159 12.4108 36.9216 51.9186 17.822C91.0399 -1.09079 139.127 17.051 184.02 14.9897Z" fill="#FFF2F2"/>
</svg>
