<svg width="512" height="415" viewBox="0 0 512 415" fill="none" xmlns="http://www.w3.org/2000/svg">
<path d="M20.253 9.67383C19.617 8.39922 18.7655 7.33481 18.1268 6.0602C17.4882 4.78559 17.0651 3.50829 16.4264 2.23099C16.3064 2.05844 16.1378 1.92549 15.942 1.84908C15.7462 1.77267 15.5321 1.75624 15.327 1.8019C15.1218 1.84755 14.9349 1.95322 14.7899 2.10546C14.645 2.25769 14.5487 2.4496 14.5132 2.65675C14.8003 5.77762 16.1513 8.705 18.3397 10.9484C19.1912 12.2257 21.1045 10.7356 20.253 9.67383Z" fill="#191919"/>
<path d="M6.64722 52.6229C4.79355 52.5379 2.93644 52.6809 1.11764 53.0487C-0.372546 53.2373 -0.372546 55.5764 1.11764 55.385C3.04906 55.3795 4.97427 55.1663 6.86011 54.7491C8.13472 54.5362 7.70895 52.8358 6.64722 52.6229Z" fill="#191919"/>
<path d="M270.502 188.909C269.012 188.483 267.524 189.971 267.098 191.873C266.84 192.693 266.892 193.58 267.245 194.364C267.598 195.148 268.226 195.775 269.012 196.125C270.502 196.551 271.989 195.064 272.415 193.161C272.628 191.248 271.989 189.332 270.502 188.909Z" fill="#191919"/>
<path d="M242.862 184.657C241.372 184.231 239.898 185.718 239.458 187.621C239.2 188.441 239.252 189.327 239.605 190.111C239.958 190.896 240.587 191.523 241.372 191.873C242.859 192.299 244.368 190.814 244.775 188.909C245.065 188.09 245.028 187.191 244.671 186.399C244.315 185.607 243.667 184.983 242.862 184.657Z" fill="#191919"/>
<path d="M272.202 180.827C270.996 180.504 269.72 180.555 268.543 180.973C267.366 181.39 266.344 182.155 265.611 183.166C264.986 184.028 265.611 185.505 266.673 185.079C267.914 184.691 269.227 184.586 270.514 184.77C271.802 184.954 273.032 185.423 274.115 186.144C274.266 186.231 274.434 186.283 274.607 186.297C274.78 186.312 274.954 186.288 275.117 186.226C275.279 186.165 275.426 186.069 275.547 185.944C275.668 185.819 275.76 185.669 275.816 185.505C275.851 184.427 275.509 183.37 274.85 182.517C274.19 181.663 273.254 181.066 272.202 180.827Z" fill="#191919"/>
<path d="M240.523 178.278C240.392 178.485 240.335 178.73 240.362 178.974C240.389 179.217 240.498 179.444 240.671 179.617C240.844 179.791 241.071 179.9 241.315 179.926C241.558 179.953 241.804 179.897 242.01 179.766C242.982 179.267 244.091 179.101 245.166 179.293C246.241 179.485 247.224 180.024 247.963 180.827C248.113 180.914 248.281 180.967 248.454 180.981C248.627 180.996 248.801 180.972 248.964 180.911C249.126 180.85 249.273 180.754 249.394 180.63C249.515 180.505 249.607 180.356 249.664 180.191C250.706 176.37 244.091 172.635 240.523 178.278Z" fill="#191919"/>
<path d="M266.037 204.64C262.207 204.428 249.868 208.467 241.585 208.467C241.43 208.441 241.272 208.449 241.121 208.491C240.97 208.532 240.83 208.606 240.71 208.707C240.59 208.808 240.494 208.934 240.429 209.077C240.363 209.219 240.329 209.373 240.329 209.53C240.329 209.687 240.363 209.841 240.429 209.984C240.494 210.126 240.59 210.252 240.71 210.353C240.83 210.454 240.97 210.528 241.121 210.569C241.272 210.611 241.43 210.619 241.585 210.593C242.862 210.593 244.349 210.806 245.627 210.806C245.627 211.019 253.08 223.633 260.297 222.501C267.963 221.299 267.74 212.506 267.74 206.333C267.737 205.492 266.885 204.845 266.037 204.64ZM258.594 219.098C253.916 218.904 251.154 214.422 249.027 210.806C250.515 210.806 260.507 208.68 264.118 208.257C264.333 212.929 264.121 219.329 258.594 219.098Z" fill="#191919"/>
<path d="M82.5497 132.564C82.3368 131.29 80.2107 131.716 80.4235 133.203C88.7152 172.961 113.803 206.979 146.121 230.793C154.221 236.949 162.91 242.29 172.061 246.737C172.698 245.7 173.409 244.71 174.187 243.773C157.988 235.092 142.921 224.449 129.325 212.083C106.24 190.764 89.9669 163.1 82.5497 132.564Z" fill="#191919"/>
<path d="M142.284 295.003C125.296 284.292 110.857 269.996 99.9765 253.116C79.2513 221.353 68.0574 188.256 59.1621 151.49C59.0728 151.213 58.8788 150.983 58.6215 150.848C58.3643 150.713 58.0644 150.684 57.7862 150.767C57.508 150.851 57.2736 151.04 57.1333 151.295C56.9931 151.549 56.9581 151.848 57.036 152.128C61.9333 176.524 69.4166 200.329 79.3591 223.14C93.2154 253.472 111.911 281.505 140.594 297.98C142.507 298.829 144.208 296.064 142.284 295.003Z" fill="#191919"/>
<path d="M451.011 152.338C451.469 150.646 449.095 150.212 448.459 151.7C440.852 172.492 430.752 193.738 415.29 210.383C416.78 210.17 418.48 209.957 420.181 209.744C434.265 192.912 444.757 173.376 451.011 152.338Z" fill="#191919"/>
<path d="M403.384 222.075C389.311 234.066 372.971 243.105 355.335 248.653C354.971 248.79 354.672 249.059 354.498 249.406C354.323 249.753 354.286 250.153 354.393 250.527C354.5 250.9 354.743 251.22 355.075 251.422C355.407 251.624 355.802 251.694 356.183 251.618C375.224 245.815 392.779 235.95 407.637 222.703C406.149 222.501 404.659 222.288 403.384 222.075Z" fill="#191919"/>
<path d="M465.681 176.152C456.683 226.961 443.436 264.221 400.619 293.103C388.054 301.575 374.084 307.87 360.861 315.001C359.352 315.809 360.441 318.628 362.136 317.965C386.142 309.014 407.909 294.938 425.92 276.717C452.719 248.708 461.507 214.237 468.02 176.788C468.02 175.513 465.905 174.877 465.681 176.152Z" fill="#191919"/>
<path d="M242.01 235.258C240.933 239.056 240.567 243.02 240.933 246.951C240.933 248.441 243.059 248.441 243.272 246.951C243.484 243.124 244.549 239.297 244.549 235.471C244.504 235.18 244.363 234.912 244.148 234.711C243.933 234.511 243.657 234.388 243.364 234.363C243.07 234.339 242.777 234.414 242.532 234.576C242.286 234.738 242.103 234.979 242.01 235.258Z" fill="#191919"/>
<path d="M82.9755 130.438C87.6536 122.998 89.3243 110.683 84.2501 103.011C79.7607 96.2235 70.8546 94.7198 63.2016 94.0812C61.927 93.8683 61.5039 96.1911 62.9887 96.4202C69.3806 97.4091 77.6292 98.7781 81.4853 104.712C86.3358 112.179 83.4013 121.934 80.6365 129.377C80.2107 130.864 82.3369 131.716 82.9755 130.438Z" fill="#191919"/>
<path d="M54.7052 148.086C50.407 145.861 46.6925 142.656 43.8616 138.73C40.6845 134.895 36.8688 130.444 38.1218 124.911C40.2776 115.35 50.8787 109.39 58.1059 104.286C58.4483 104.076 58.6973 103.743 58.8019 103.355C58.9064 102.968 58.8586 102.555 58.6683 102.201C58.4779 101.848 58.1594 101.581 57.7782 101.455C57.397 101.329 56.982 101.353 56.6184 101.524C51.072 104.436 46.0436 108.242 41.7354 112.79C38.1568 116.458 34.7022 121.082 34.4947 126.186C34.271 131.713 37.5128 136.156 40.8731 140.007C44.5326 144.219 48.5262 148.512 54.0531 150.212C55.5486 150.851 55.9717 148.725 54.7052 148.086Z" fill="#191919"/>
<path d="M35.136 107.264C38.7523 96.2153 48.2674 89.7479 59.1622 87.9155C60.6443 87.6649 60.2239 85.3501 58.7364 85.3636C46.6101 85.4714 35.9875 95.3583 32.5975 106.625C32.5705 106.939 32.656 107.252 32.8387 107.508C33.0215 107.765 33.2896 107.948 33.5949 108.025C33.9003 108.101 34.2231 108.067 34.5054 107.928C34.7878 107.788 35.0113 107.553 35.136 107.264Z" fill="#191919"/>
<path d="M459.09 115.343C460.79 114.707 460.143 111.899 458.238 112.378C449.472 114.534 440.59 120.463 438.254 129.811C436.338 137.466 440.38 146.184 448.459 147.671C448.796 147.752 449.152 147.697 449.448 147.517C449.745 147.337 449.958 147.047 450.042 146.71C450.126 146.374 450.073 146.018 449.896 145.72C449.719 145.422 449.431 145.206 449.095 145.119C441.649 143.233 439.014 134.661 442.089 128.11C445.387 121.039 452.286 117.894 459.09 115.343Z" fill="#191919"/>
<path d="M468.02 124.273C466.099 123.885 465.468 126.612 467.169 127.038C471.646 128.119 475.894 129.99 479.713 132.564C481.55 134.128 482.934 136.157 483.719 138.439C484.505 140.72 484.663 143.171 484.178 145.534C482.494 155.106 474.038 161.816 469.295 169.787C468.416 171.258 470.569 172.336 471.421 171.061C477.799 162.77 487.473 153.842 487.366 142.57C487.266 131.716 477.339 126.159 468.02 124.273Z" fill="#191919"/>
<path d="M462.49 107.051C462.18 107.051 461.883 107.174 461.663 107.393C461.444 107.613 461.321 107.91 461.321 108.22C461.321 108.531 461.444 108.828 461.663 109.047C461.883 109.267 462.18 109.39 462.49 109.39C467.877 109.237 473.15 110.953 477.413 114.248C481.677 117.543 484.668 122.213 485.878 127.463C486.02 127.821 486.29 128.113 486.635 128.283C486.98 128.452 487.376 128.488 487.746 128.381C488.116 128.275 488.433 128.035 488.635 127.708C488.838 127.381 488.912 126.99 488.842 126.612C487.686 120.65 484.34 115.336 479.464 111.716C474.587 108.096 468.532 106.432 462.49 107.051Z" fill="#191919"/>
<path d="M458.451 90.2544C458.427 91.7419 460.607 91.7446 460.79 90.2544C461.275 86.4333 462.277 71.9707 463.342 68.7801H465.681C465.468 72.1836 465.468 88.554 465.681 94.5067C463.556 94.2546 461.406 94.3263 459.302 94.7196C457.812 94.9325 458.238 97.2715 459.726 97.2715C471.836 97.2715 477.004 100.899 484.178 110.241C485.008 111.319 487.352 110.672 486.729 109.177C485.056 105.706 482.619 102.659 479.599 100.265C476.579 97.8721 473.056 96.1943 469.295 95.3582C469.295 90.8931 468.869 71.332 468.23 67.2926C468.23 66.8669 462.703 65.3794 461.224 66.654C459.938 67.5055 458.559 84.0862 458.451 90.2544Z" fill="#191919"/>
<path d="M38.7522 47.093C31.0965 47.7317 23.6429 48.92 16.2135 50.0572C14.9362 50.2539 14.9389 52.1833 16.2135 51.9705C23.8692 51.1189 31.5223 50.9087 39.1753 49.6314C40.4526 49.2191 40.2397 46.8801 38.7522 47.093Z" fill="#191919"/>
<path d="M87.0148 41.3534C76.597 42.2049 65.9636 43.6762 55.5485 45.3955C54.2712 45.6057 54.484 47.7345 55.7613 47.7345C66.1792 46.883 76.8099 45.8212 87.2277 44.1209C88.7152 43.7005 88.5023 41.1405 87.0148 41.3534Z" fill="#191919"/>
<path d="M50.2319 40.2916C58.0604 32.8664 65.4443 24.9859 72.3448 16.6912C73.2017 15.6322 71.7062 14.1393 70.8546 15.201C63.4145 22.8567 55.9716 30.9355 48.7578 38.8015C47.4671 39.6584 49.154 41.3399 50.2319 40.2916Z" fill="#191919"/>
<path d="M37.0493 40.0787C37.1331 40.2183 37.2437 40.3401 37.3746 40.4369C37.5055 40.5338 37.6542 40.604 37.8122 40.6434C37.9703 40.6828 38.1345 40.6907 38.2956 40.6666C38.4566 40.6426 38.6114 40.587 38.751 40.5032C38.8906 40.4193 39.0123 40.3087 39.1092 40.1778C39.2061 40.0469 39.2762 39.8982 39.3156 39.7402C39.3551 39.5822 39.363 39.4179 39.3389 39.2569C39.3148 39.0958 39.2593 38.941 39.1754 38.8014C34.9689 31.5472 30.458 24.5571 25.7826 17.54C24.9311 16.4783 23.2307 17.3271 23.8694 18.6044C28.1216 25.8317 32.5113 33.1102 37.0493 40.0787Z" fill="#191919"/>
<path d="M24.5054 35.1876C16.8604 33.0318 8.98642 30.9353 1.33069 28.3834C0.056083 27.9576 -0.377768 29.8898 0.692039 30.2967C8.25835 33.1883 15.9984 35.603 23.8667 37.5266C25.3569 37.7395 25.9955 35.6161 24.5054 35.1876Z" fill="#191919"/>
<path d="M44.918 24.77C45.3411 16.904 45.8746 9.03812 45.7669 1.16951C45.7669 0.859339 45.6436 0.561873 45.4243 0.342546C45.205 0.12322 44.9075 0 44.5973 0C44.2872 0 43.9897 0.12322 43.7704 0.342546C43.551 0.561873 43.4278 0.859339 43.4278 1.16951C42.7919 9.03633 42.367 16.9031 42.1532 24.77C42.3661 26.4703 44.918 26.4703 44.918 24.77Z" fill="#191919"/>
<path d="M75.5326 31.9972C83.8301 28.0857 91.7331 23.387 99.1331 17.9658C100.41 16.904 99.3298 14.7483 97.8584 15.6267C89.9009 20.3695 82.3368 25.1957 74.258 29.8711C72.9807 30.5097 74.0613 32.6709 75.5326 31.9972Z" fill="#191919"/>
<path d="M77.2332 10.5255C78.7233 8.82247 80.2486 7.15443 81.6983 5.42172C82.5741 4.37886 81.0839 2.88868 80.2108 3.93423C78.7611 5.66694 77.2332 7.33498 75.7457 9.03535C75.6342 9.12968 75.5435 9.2461 75.4793 9.37726C75.4151 9.50841 75.3788 9.65146 75.3726 9.79736C75.3665 9.94326 75.3907 10.0888 75.4437 10.2249C75.4966 10.361 75.5773 10.4846 75.6804 10.588C75.7836 10.6913 75.9071 10.7722 76.043 10.8254C76.179 10.8786 76.3246 10.9031 76.4705 10.8972C76.6164 10.8913 76.7595 10.8553 76.8908 10.7913C77.022 10.7273 77.1386 10.6368 77.2332 10.5255Z" fill="#191919"/>
<path d="M445.481 68.1417C449.248 68.1548 452.987 67.5072 456.53 66.2284C457.815 65.6086 456.955 63.8894 455.891 63.8894C451.974 64.1058 448.07 64.5322 444.199 65.1667C440.244 65.5974 436.269 65.8106 432.291 65.8054C430.803 65.8054 430.803 67.9315 432.291 68.1417C436.683 68.4209 441.089 68.4209 445.481 68.1417Z" fill="#191919"/>
<path d="M504.165 73.0324C499.061 71.1192 493.957 69.6317 488.856 68.1415C483.762 66.3881 478.581 64.8986 473.334 63.679C472.062 63.4446 471.208 65.1665 472.483 65.8051C477.374 67.9313 482.453 69.4808 487.366 71.1192C492.661 72.8869 497.988 74.7786 503.313 76.0101C503.694 76.0827 504.089 76.0101 504.419 75.8066C504.75 75.6031 504.992 75.2833 505.099 74.9102C505.206 74.5371 505.169 74.1375 504.996 73.79C504.823 73.4426 504.527 73.1723 504.165 73.0324Z" fill="#191919"/>
<path d="M416.78 71.7582C418.992 71.7567 421.199 71.5428 423.371 71.1195C424.859 70.9067 425.071 68.5676 423.371 68.5676C421.032 68.7805 418.693 68.9934 416.567 69.2063C415.29 69.632 415.502 71.7582 416.78 71.7582Z" fill="#191919"/>
<path d="M418.054 41.5661C428.294 45.0854 438.265 49.6314 448.235 53.8971C449.723 54.5331 451.226 52.38 449.723 51.5581C439.818 46.4658 429.416 42.4025 418.682 39.4318C417.211 38.9899 416.782 41.1295 418.054 41.5661Z" fill="#191919"/>
<path d="M459.939 54.3232C460.06 54.6798 460.315 54.9752 460.65 55.1465C460.986 55.3178 461.375 55.3517 461.735 55.2408C462.095 55.13 462.397 54.8831 462.578 54.5528C462.759 54.2225 462.804 53.8346 462.703 53.4717C460.347 43.9062 457.291 34.5267 453.56 25.4087C453.137 23.9185 450.76 24.568 451.221 26.0447C454.175 35.4762 456.489 44.9859 459.939 54.3232Z" fill="#191919"/>
<path d="M472.272 57.5106C479.69 51.8122 487.586 46.7634 495.87 42.4201C497.358 41.5632 496.083 39.437 494.596 40.081C485.88 43.9244 477.896 49.2469 470.995 55.8129C469.933 56.6617 471.186 58.3351 472.272 57.5106Z" fill="#191919"/>
<path d="M449.733 18.3917C448.809 15.3981 448.099 12.3426 447.607 9.24846C447.403 7.75828 445.055 7.76097 445.268 9.24846C445.442 12.7399 446.16 16.1829 447.394 19.4534C448.033 20.7307 450.159 19.8792 449.733 18.3917Z" fill="#191919"/>
<path d="M510.114 30.2971C508.613 31.0828 507.189 32.0085 505.862 33.0619C504.356 34.0993 503.097 34.9751 501.61 36.0395C501.371 36.2147 501.209 36.4752 501.157 36.7669C501.106 37.0585 501.169 37.3588 501.333 37.6053C501.497 37.8518 501.75 38.0255 502.039 38.0902C502.328 38.1549 502.631 38.1057 502.884 37.9528C504.372 37.1013 505.862 36.0395 507.35 34.9751C508.895 34.1842 510.325 33.187 511.602 32.0109C512.669 31.1486 511.392 29.6611 510.114 30.2971Z" fill="#191919"/>
<path d="M471.421 43.7005C475.244 34.7756 479.648 26.1106 484.604 17.7611C485.477 16.287 483.326 15.2092 482.477 16.4865C476.951 24.7366 472.519 33.6698 469.295 43.0619C468.656 44.544 470.995 45.1799 471.421 43.7005Z" fill="#191919"/>
<path d="M252.854 182.954C251.367 185.931 245.379 196.36 246.05 198.475C246.183 198.788 246.387 199.065 246.645 199.287C246.903 199.508 247.208 199.668 247.537 199.752C249.739 199.663 251.903 199.157 253.916 198.262C255.829 197.837 254.975 194.624 253.067 195.074C252.213 195.274 251.154 195.71 250.089 195.923C251.962 191.983 253.595 187.934 254.98 183.797C255.193 182.53 253.493 181.671 252.854 182.954Z" fill="#191919"/>
<path d="M254.129 233.557C247.75 231.218 240.943 230.803 234.567 228.454C223.08 224.22 239.884 176.364 241.574 169.347C241.787 168.07 239.873 167.221 239.448 168.496C236.437 176.02 234.021 183.769 232.22 191.671C230.17 199.771 228.178 207.839 226.904 216.123C226.052 221.649 226.047 227.616 231.582 230.58C234.938 231.992 238.428 233.061 242 233.77C245.893 234.94 249.874 235.793 253.905 236.32C255.409 236.505 255.619 233.981 254.129 233.557Z" fill="#191919"/>
<path d="M297.29 198.049C298.73 191.85 299.089 185.448 298.352 179.127C298.021 176.675 297.166 174.323 295.845 172.231C294.525 170.138 292.769 168.354 290.699 167C290.767 169.488 290.625 171.977 290.273 174.441C290.052 175.715 288.147 175.931 288.147 174.441C287.943 170.663 287.517 166.901 286.872 163.174C283.369 149.571 269.933 128.396 256.255 125.752C246.88 123.941 239.186 131.681 236.271 139.786C234.8 143.752 234.38 148.03 235.052 152.205C235.723 156.381 237.463 160.311 240.102 163.616C247.78 172.525 260.938 173.395 271.782 170.843C274.145 176.488 277.784 181.509 282.412 185.513C282.159 190.013 281.591 194.489 280.712 198.909C280.073 201.461 277.748 208.472 280.073 210.601C282.631 212.935 286.452 206.559 289.004 201.674C299.847 194.444 299.634 211.24 290.704 212.722C290.278 212.722 281.863 237.783 280.499 242.701C279.796 245.237 284.113 245.253 285.6 245.253C287.088 245.253 287.09 243.339 285.813 242.914C284.997 242.535 284.141 242.251 283.261 242.065C285.387 232.709 289.429 224.417 292.617 215.487C298.57 213.148 304.1 205.708 298.996 199.542C298.532 198.936 297.952 198.428 297.29 198.049ZM269.437 150.425C265.395 145.109 260.545 127.935 251.154 133.629C250.092 134.27 248.408 132.794 249.24 131.716C257.955 120.398 272.242 141.915 273.051 149.574C273.277 151.7 270.283 151.913 269.437 150.425Z" fill="#191919"/>
<path d="M183.117 184.869C179.858 184.136 176.831 182.606 174.307 180.417C171.784 178.227 169.843 175.446 168.657 172.323C168.583 172.121 168.463 171.939 168.306 171.792C168.149 171.645 167.96 171.537 167.754 171.477C167.547 171.416 167.33 171.405 167.118 171.443C166.907 171.482 166.708 171.57 166.536 171.7C163.861 173.944 161.75 176.784 160.371 179.992C160.263 180.148 160.205 180.333 160.205 180.523C160.205 180.712 160.263 180.898 160.371 181.053C163.648 187.289 170.578 197.222 178.87 195.301C178.87 195.301 185.461 187.009 185.672 187.009C186.731 185.292 184.605 183.805 183.117 184.869Z" fill="#FFD97C"/>
<path d="M360.018 135.117C358.531 134.904 359.382 148.299 355.343 152.339C355.215 152.462 355.123 152.617 355.074 152.787C355.025 152.958 355.022 153.138 355.065 153.31C355.108 153.483 355.195 153.641 355.318 153.768C355.441 153.896 355.595 153.989 355.766 154.039C358.309 155.174 361.065 155.754 363.85 155.739C364.018 155.761 364.188 155.732 364.34 155.656C364.491 155.58 364.616 155.461 364.699 155.314C368.695 150.07 372.969 141.473 368.315 136.817C368.102 136.817 360.223 135.117 360.018 135.117Z" fill="#FFD97C"/>
<path d="M343.001 134.478C346.566 138.043 362.807 116.097 364.901 109.816C364.946 109.03 364.874 108.241 364.688 107.477C363.839 105.138 353.421 97.6974 353.208 97.6974C352.942 97.6479 352.669 97.6532 352.405 97.7128C352.141 97.7725 351.892 97.8853 351.673 98.0445C351.454 98.2036 351.27 98.4057 351.132 98.6384C350.994 98.871 350.904 99.1295 350.869 99.3978C349.476 103.329 347.543 107.047 345.127 110.446C342.163 114.068 333.001 120.438 333.435 121.713C336.118 126.324 339.328 130.608 343.001 134.478Z" fill="#FFD97C"/>
<path d="M277.942 127.886C278.242 128.061 278.589 128.134 278.934 128.096C279.278 128.057 279.601 127.909 279.855 127.673C280.281 127.673 283.458 122.753 285.808 121.934C288.305 121.562 290.854 121.781 293.251 122.572C294.312 122.998 295.59 122.572 295.59 121.295C295.25 117.827 294.537 114.406 293.464 111.09C286.457 105.137 275.816 109.177 272.415 117.043C271.361 119.169 276.454 127.038 277.942 127.886Z" fill="#FFD97C"/>
<path d="M139.956 79.6236C145.695 88.1282 157.816 92.8062 167.382 88.1282C168.661 85.6992 169.655 83.1313 170.347 80.4752C170.425 80.2621 170.447 80.0323 170.41 79.8083C170.372 79.5843 170.277 79.3739 170.134 79.1979C169.921 78.7721 169.495 78.1361 168.856 78.1361C164.736 77.9827 160.657 77.2674 156.73 76.01C152.896 74.5144 149.317 72.4327 146.121 69.8391C145.482 69.4133 142.71 72.17 142.079 73.0269C140.902 74.578 139.971 76.3013 139.32 78.1361C139.289 78.4178 139.332 78.7024 139.443 78.9629C139.555 79.2234 139.731 79.4509 139.956 79.6236Z" fill="#FFD97C"/>
<path d="M393.605 337.313C390.015 335.674 386.034 335.084 382.123 335.612C377.208 337.014 379.307 339.021 380.635 347.305C381.937 355.429 379.665 363.185 377.232 370.479C375.957 373.67 374.685 375.365 378.31 377.284C381.636 379.052 385.226 380.272 388.941 380.897C391.492 381.323 394.732 382.63 396.594 379.623C403.371 368.679 401.697 347.731 400.636 343.053C399.132 338.587 396.367 338.8 393.605 337.313Z" fill="#FFD97C"/>
<path d="M465.042 129.377C464.617 132.341 464.722 144.691 464.617 145.545C464.511 146.399 463.514 150.021 463.129 148.31C462.892 147.251 463.129 131.301 463.129 127.684C463.129 126.197 461.003 126.197 460.79 127.684C460.577 133.214 460.577 138.733 460.577 144.27C460.577 147.032 459.303 151.71 463.342 151.71C467.594 151.71 467.422 148.312 467.594 145.119C468.156 139.961 468.156 134.758 467.594 129.6C467.168 128.315 465.255 128.315 465.042 129.377Z" fill="#191919"/>
<path d="M36.2005 87.9152C46.6615 81.5234 50.3613 81.5907 61.5014 81.3239C61.8037 81.3099 62.092 81.1927 62.3184 80.9918C62.5447 80.7909 62.6954 80.5185 62.7452 80.22C62.795 79.9215 62.7409 79.6149 62.5921 79.3514C62.4432 79.0879 62.2085 78.8834 61.9271 78.772C58.5099 77.9545 54.9567 77.8828 51.5093 78.5618C50.6578 74.5197 48.5316 63.6789 47.893 56.4489C48.9468 56.6257 50.0156 56.697 51.0835 56.6618C51.2964 59.626 52.9698 72.6092 53.4225 75.7944C53.6273 77.2818 56.1846 76.8561 55.9718 75.3686C55.7616 71.755 54.6972 58.5723 54.0585 55.8075C53.8456 53.0455 45.147 53.2583 44.918 55.3818C44.5246 59.0008 47.257 75.1557 48.1058 78.9822C43.1818 80.2013 38.6012 82.5285 34.713 85.7864C34.4924 86.005 34.3561 86.2946 34.3282 86.6039C34.3002 86.9133 34.3825 87.2226 34.5604 87.4772C34.7383 87.7318 35.0004 87.9154 35.3005 87.9955C35.6006 88.0757 35.9194 88.0472 36.2005 87.9152Z" fill="#191919"/>
<path d="M62.1399 135.968C65.7617 134.931 64.6595 131.926 64.0532 128.962C62.9295 123.446 62.1399 117.692 61.089 112.166C60.8761 110.465 58.1113 111.088 58.5371 112.802C58.9629 116.205 62.3636 132.15 60.8761 132.788C60.0273 133.214 56.3382 117.698 55.775 114.292C55.5298 112.807 53.4225 113.443 53.6488 114.928C54.4573 120.25 55.3223 125.566 56.613 130.875C57.4457 134.27 58.3188 137.059 62.1399 135.968Z" fill="#191919"/>
<path d="M354.696 197.2C354.909 196.349 354.696 195.489 353.618 195.287C348.948 194.395 343.305 191.245 342.569 186.144C342.381 184.864 341.718 183.805 340.443 184.443C339.04 185.427 337.822 186.65 336.843 188.057C335.798 189.271 334.938 190.633 334.291 192.099C333.655 193.587 335.781 200.391 338.333 202.73C340.885 205.069 347.474 206.772 348.751 205.694C351.145 203.175 353.149 200.312 354.696 197.2ZM348.104 203.153C345.504 203.192 342.965 202.365 340.885 200.803C338.62 198.79 337.245 195.962 337.059 192.937C337.89 191.987 338.671 190.993 339.398 189.96L340.675 188.685C341.521 191.01 342.938 193.085 344.796 194.719C346.653 196.354 348.892 197.495 351.306 198.038L348.104 203.153Z" fill="#191919"/>
<path d="M201.837 135.968C201.728 135.751 201.561 135.569 201.355 135.442C201.148 135.315 200.91 135.248 200.668 135.248C200.425 135.248 200.188 135.315 199.981 135.442C199.775 135.569 199.607 135.751 199.498 135.968C198.07 138.679 196.278 141.181 194.171 143.405C191.762 145.574 188.943 147.238 185.879 148.296C185.669 148.365 185.481 148.488 185.334 148.653C185.188 148.818 185.088 149.019 185.045 149.236C185.001 149.452 185.017 149.676 185.089 149.885C185.162 150.094 185.288 150.279 185.456 150.423C185.879 151.484 188.644 155.949 189.498 157.227C189.709 157.521 190.008 157.742 190.351 157.856C190.695 157.97 191.066 157.972 191.411 157.863C198.216 156.375 206.082 150.635 206.93 143.193C207.138 142.917 207.25 142.581 207.25 142.236C207.25 141.891 207.138 141.555 206.93 141.279C205.014 139.582 203.527 137.668 201.837 135.968ZM199.285 150.425C197.108 152.681 194.406 154.36 191.42 155.313C189.698 152.446 190.538 153.993 188.016 150.212C190.798 149.313 193.375 147.874 195.6 145.978C197.825 144.083 199.655 141.767 200.986 139.164C201.84 140.419 202.763 141.625 203.751 142.778C202.811 145.612 201.286 148.218 199.275 150.425H199.285Z" fill="#191919"/>
<path d="M83.1883 288.624C83.2495 288.408 83.2557 288.18 83.2062 287.961C83.1568 287.742 83.0533 287.538 82.9052 287.369C82.7571 287.2 82.5691 287.071 82.3582 286.993C82.1474 286.916 81.9205 286.892 81.6981 286.924C80.6364 286.711 75.3197 286.285 73.8322 286.285C73.4777 286.302 73.1388 286.436 72.8693 286.667C72.5998 286.898 72.4152 287.212 72.3447 287.56C69.5799 293.938 70.0057 303.728 75.5326 308.821C75.6644 309.158 75.9008 309.443 76.207 309.634C76.5132 309.826 76.8729 309.914 77.233 309.886C79.6691 309.74 82.0881 309.384 84.4629 308.821C84.6917 308.825 84.9178 308.772 85.1205 308.665C85.3231 308.559 85.4958 308.403 85.6227 308.213C85.7496 308.022 85.8266 307.803 85.8466 307.575C85.8667 307.347 85.8292 307.118 85.7375 306.908C82.9517 301.244 82.0581 294.835 83.1883 288.624ZM77.4458 306.706C75.8252 304.217 74.6058 301.489 73.8322 298.622C73.2392 295.584 73.3853 292.448 74.258 289.479C74.3604 289.479 76.8099 289.692 80.2106 289.692C79.3706 292.465 79.0884 295.377 79.3802 298.26C79.6721 301.143 80.5322 303.939 81.911 306.488C80.4235 306.482 78.936 306.706 77.4458 306.706Z" fill="#191919"/>
<path d="M301.968 26.4701C300.268 27.1141 300.055 34.1231 301.117 37.1008C301.831 40.674 303.766 36.2762 309.621 35.8262C312.284 35.8175 314.885 36.6347 317.064 38.1652C317.177 38.3135 317.331 38.4255 317.507 38.4872C317.683 38.5489 317.874 38.5576 318.054 38.5123C318.235 38.467 318.399 38.3697 318.525 38.2323C318.651 38.0949 318.735 37.9236 318.764 37.7394C319.462 34.7911 320.314 31.8813 321.316 29.022C321.952 28.1704 316.442 20.989 301.968 26.4701ZM317.487 35.8262C315.339 34.3578 312.815 33.5371 310.214 33.4616C307.614 33.3861 305.046 34.0591 302.817 35.4004C302.428 33.0628 302.574 30.6675 303.243 28.3941C307.482 27.6881 312.944 23.8131 319.19 29.0328C318.448 31.25 317.879 33.5212 317.487 35.8262Z" fill="#191919"/>
<path d="M238.82 72.8195C241.159 68.3544 223.891 63.7221 219.049 58.5752C213.76 53.2832 210.328 46.4202 209.267 39.0142C209.341 38.6795 209.322 38.3308 209.212 38.0063C209.101 37.6817 208.903 37.3939 208.64 37.1743C208.377 36.9547 208.058 36.8118 207.719 36.7613C207.38 36.7108 207.033 36.7547 206.718 36.888C200.434 40.0939 194.456 43.866 188.857 48.1574C182.888 52.1725 199.488 83.0245 216.284 90.2544C216.497 90.8931 220.326 93.0192 220.962 92.3806C228.241 87.2079 234.33 80.5384 238.82 72.8195ZM221.388 87.0666C206.079 78.562 196.087 68.5673 192.258 50.4964C197.361 47.5322 200.342 43.9051 205.653 41.3532C206.505 49.0062 211.789 54.9858 216.922 60.9142C221.361 66.0342 227.127 68.9984 234.78 72.8195C230.763 77.97 226.28 82.7392 221.388 87.0666Z" fill="#191919"/>
<path d="M348.97 245.037C323.03 253.329 288.799 243.337 288.799 243.337C288.799 243.337 278.788 268.441 255.193 263.111C231.8 257.818 236.694 243.337 236.694 243.337C201.614 251.203 177.8 238.872 177.8 238.872C163.769 254.18 146.121 314.351 146.121 314.351C158.464 322.344 171.401 329.381 184.817 335.4L181.627 433.415C251.367 455.312 327.482 440.004 327.482 440.004V386.427C322.386 392.445 317.965 399.003 314.299 405.985L298.778 383.023C301.321 376.76 305.211 371.133 310.172 366.541C315.132 361.948 321.042 358.503 327.482 356.448V343.478L352.783 333.273C363.413 307.973 348.97 245.037 348.97 245.037ZM190.557 314.138L188.633 302.869C188.633 302.869 198.625 306.057 205.855 294.577L211.382 304.143C211.18 304.143 202.465 317.539 190.557 314.138ZM224.575 254.606C210.116 259.492 194.476 259.641 179.927 255.032C179.636 254.93 179.395 254.722 179.252 254.45C179.109 254.178 179.075 253.861 179.156 253.565C179.237 253.268 179.427 253.013 179.689 252.851C179.95 252.689 180.264 252.633 180.565 252.693C194.85 255.54 209.623 254.736 223.514 250.354C226.276 249.289 227.362 253.598 224.575 254.606Z" fill="#FFD97C"/>
<path d="M212.457 303.72C211.662 299.847 209.738 296.295 206.928 293.513C206.885 293.256 206.764 293.019 206.582 292.834C206.399 292.649 206.164 292.525 205.908 292.479C205.653 292.433 205.389 292.466 205.153 292.576C204.917 292.685 204.721 292.865 204.591 293.09C202.965 295.778 200.792 298.095 198.213 299.891C195.298 301.509 191.926 302.106 188.633 301.586C187.994 301.16 186.72 302.009 186.933 302.861C187.571 306.474 188.633 310.091 189.059 313.909C189.097 314.138 189.189 314.354 189.326 314.541C189.464 314.727 189.644 314.878 189.851 314.982C190.059 315.085 190.288 315.138 190.52 315.136C190.751 315.134 190.979 315.078 191.185 314.971C198.838 317.935 207.981 312.007 212.021 305.617C212.234 305.405 212.234 305.192 212.234 304.766C212.427 304.454 212.506 304.084 212.457 303.72ZM202.465 310.309C200.929 311.447 199.159 312.229 197.283 312.596C195.408 312.964 193.473 312.909 191.622 312.435C191.28 309.63 190.71 306.856 189.919 304.143C195.874 304.782 203.527 301.804 206.087 296.277C207.772 298.625 208.932 301.308 209.488 304.143C207.268 306.332 204.923 308.391 202.465 310.309Z" fill="#191919"/>
<path d="M117.42 258.007C114.99 254.352 112.055 251.06 108.702 248.228C108.371 248.053 107.997 247.979 107.624 248.015C107.188 247.982 106.751 248.055 106.35 248.228C98.0768 252.31 91.0409 258.433 81.2617 254.819C80.4102 253.116 78.0712 254.606 78.4969 256.094C79.3458 261.197 81.2617 266.299 82.539 271.402C82.7519 272.041 83.8136 272.89 84.0265 273.103C96.1528 277.355 109.327 269.702 117.409 260.772C117.771 260.404 117.975 259.908 117.978 259.391C117.98 258.875 117.779 258.378 117.42 258.007Z" fill="#FFD97C"/>
<path d="M344.704 374.306C341.821 366.141 330.691 354.031 329.182 354.535C321.852 355.976 315.044 359.361 309.47 364.335C303.897 369.31 299.762 375.691 297.5 382.811C297.5 382.811 297.287 383.662 297.5 383.875C302.389 392.167 306.363 400.744 314.084 407.688C317.668 410.922 325.873 385.074 344.063 377.922C344.408 377.791 344.714 377.572 344.95 377.287C345.186 377.002 345.344 376.66 345.409 376.296C345.473 375.932 345.442 375.557 345.319 375.208C345.195 374.859 344.983 374.548 344.704 374.306ZM314.938 403.223C309.554 396.836 304.516 390.164 299.847 383.236C302.648 377.122 306.802 371.724 311.996 367.452C317.19 363.179 323.287 360.144 329.826 358.574C332.172 361.162 334.305 363.935 336.205 366.866C337.883 369.431 338.967 372.393 340.667 374.95C328.743 379.464 318.228 392.614 314.938 403.223Z" fill="#191919"/>
<path d="M421.668 209.106C419.916 209.499 418.141 209.783 416.354 209.957C410.613 210.701 404.777 210.045 399.345 208.044C398.968 207.917 398.561 207.911 398.181 208.025C397.8 208.138 397.464 208.367 397.219 208.68C395.253 211.166 393.475 213.797 391.902 216.549C390.633 218.89 399.56 221.838 403.597 222.501C409.147 223.709 414.934 223.189 420.18 221.011C420.606 221.011 421.032 220.588 421.258 219.949C421.894 217.185 422.533 214.633 423.172 211.865C423.794 209.965 423.158 208.887 421.668 209.106Z" fill="#FFD97C"/>
<path d="M174.187 204.428C175.461 203.792 179.288 202.514 179.714 202.302C180.139 202.089 182.053 202.089 183.966 205.492C185.416 208.929 186.209 212.607 186.305 216.336C186.305 217.185 182.904 218.888 181.84 219.3C180.775 219.712 176.739 221.639 177.588 219.087C178.256 216.216 177.88 213.201 176.526 210.582C175.461 209.106 171.635 205.492 174.187 204.428Z" fill="#FFD97C"/>
</svg>
