<svg width="305" height="70" viewBox="0 0 305 70" fill="none" xmlns="http://www.w3.org/2000/svg">
<rect x="83.8999" y="3.4502" width="220.15" height="6.8" rx="3.4" fill="#EEEEEE"/>
<rect x="83.8999" y="17.9004" width="220.15" height="6.8" rx="3.4" fill="#EEEEEE"/>
<rect x="83.8999" y="32.3501" width="220.15" height="6.8" rx="3.4" fill="#EEEEEE"/>
<rect x="83.8999" y="46.8003" width="220.15" height="6.8" rx="3.4" fill="#EEEEEE"/>
<rect x="83.8999" y="61.2502" width="220.15" height="6.8" rx="3.4" fill="#EEEEEE"/>
<rect x="83.8999" y="3.4502" width="77.35" height="6.8" rx="3.4" fill="#008D9F"/>
<rect x="83.8999" y="17.9001" width="96.9" height="6.8" rx="3.4" fill="#008D9F"/>
<rect x="83.8999" y="32.3501" width="114.75" height="6.8" rx="3.4" fill="#008D9F"/>
<rect x="83.8999" y="46.8003" width="29.75" height="6.8" rx="3.4" fill="#008D9F"/>
<rect x="83.8999" y="61.2502" width="19.55" height="6.8" rx="3.4" fill="#008D9F"/>
<mask id="mask0_75_126" style="mask-type:luminance" maskUnits="userSpaceOnUse" x="0" y="0" width="13" height="12">
<path d="M0.600098 0.900391H12.1045V11.9504H0.600098V0.900391Z" fill="white"/>
</mask>
<g mask="url(#mask0_75_126)">
<path d="M12.0758 5.62304C12.0298 5.81229 11.9299 5.98413 11.7882 6.11773L9.88994 7.96994C9.87073 7.99013 9.85516 8.01348 9.84392 8.03897C9.83833 8.06552 9.83833 8.09295 9.84392 8.1195L10.2926 10.7425C10.33 10.9358 10.3098 11.136 10.2351 11.3177C10.1658 11.4976 10.0434 11.6521 9.88419 11.7607C9.72948 11.8748 9.54646 11.9445 9.35498 11.962H9.2802C9.11162 11.9623 8.9456 11.9208 8.79702 11.8412L6.43861 10.6102C6.41413 10.5961 6.38635 10.5886 6.35808 10.5886C6.32981 10.5886 6.30203 10.5961 6.27755 10.6102L3.91914 11.8469C3.74223 11.9395 3.54314 11.9813 3.34392 11.9677C3.15045 11.9512 2.9653 11.8816 2.80896 11.7664C2.65125 11.6537 2.52941 11.498 2.45808 11.3177C2.3853 11.1352 2.36536 10.9358 2.40056 10.7425L2.84923 8.12525C2.8576 8.09906 2.8576 8.07091 2.84923 8.04472C2.84029 8.01938 2.82662 7.99596 2.80896 7.9757L0.910734 6.11198C0.772833 5.97862 0.67517 5.80921 0.628876 5.62304C0.572927 5.43538 0.572927 5.23548 0.628876 5.04782C0.692113 4.86312 0.806007 4.69991 0.957557 4.57684C1.10911 4.45377 1.29221 4.37579 1.48596 4.3518L4.07445 3.97216C4.10024 3.9715 4.12486 3.96125 4.14348 3.94339C4.1654 3.9266 4.18312 3.90494 4.19525 3.88012L5.40321 1.4757C5.48547 1.30313 5.61547 1.1576 5.77711 1.05578C5.89997 0.978198 6.03786 0.927497 6.18172 0.907012C6.32557 0.886527 6.47214 0.896722 6.61177 0.936928C6.75141 0.977135 6.88095 1.04644 6.99188 1.14029C7.10282 1.23414 7.19263 1.35041 7.25542 1.48145L8.45188 3.87437C8.46634 3.90093 8.48588 3.92439 8.50941 3.94339C8.53034 3.96121 8.55671 3.97135 8.58419 3.97216L11.2129 4.3518C11.4039 4.38056 11.5834 4.46224 11.7306 4.58764C11.875 4.71247 11.9843 4.87295 12.047 5.05357C12.108 5.23764 12.1183 5.43437 12.0758 5.62304Z" fill="#FFD77E"/>
</g>
<mask id="mask1_75_126" style="mask-type:luminance" maskUnits="userSpaceOnUse" x="15" y="0" width="13" height="12">
<path d="M15.8999 0.900391H27.4043V11.9504H15.8999V0.900391Z" fill="white"/>
</mask>
<g mask="url(#mask1_75_126)">
<path d="M27.3756 5.62304C27.3296 5.81229 27.2297 5.98413 27.088 6.11773L25.1897 7.96994C25.1705 7.99013 25.155 8.01348 25.1437 8.03897C25.1381 8.06552 25.1381 8.09295 25.1437 8.1195L25.5924 10.7425C25.6298 10.9358 25.6097 11.136 25.5349 11.3177C25.4656 11.4976 25.3432 11.6521 25.184 11.7607C25.0293 11.8748 24.8463 11.9445 24.6548 11.962H24.58C24.4114 11.9623 24.2454 11.9208 24.0968 11.8412L21.7384 10.6102C21.7139 10.5961 21.6862 10.5886 21.6579 10.5886C21.6296 10.5886 21.6018 10.5961 21.5774 10.6102L19.2189 11.8469C19.042 11.9395 18.8429 11.9813 18.6437 11.9677C18.4503 11.9512 18.2651 11.8816 18.1088 11.7664C17.9511 11.6537 17.8292 11.498 17.7579 11.3177C17.6851 11.1352 17.6652 10.9358 17.7004 10.7425L18.149 8.12525C18.1574 8.09906 18.1574 8.07091 18.149 8.04472C18.1401 8.01938 18.1264 7.99596 18.1088 7.9757L16.2105 6.11198C16.0726 5.97862 15.975 5.80921 15.9287 5.62304C15.8727 5.43538 15.8727 5.23548 15.9287 5.04782C15.9919 4.86312 16.1058 4.69991 16.2574 4.57684C16.4089 4.45377 16.592 4.37579 16.7858 4.3518L19.3743 3.97216C19.4 3.9715 19.4247 3.96125 19.4433 3.94339C19.4652 3.9266 19.4829 3.90494 19.4951 3.88012L20.703 1.4757C20.7853 1.30313 20.9153 1.1576 21.0769 1.05578C21.1998 0.978198 21.3377 0.927497 21.4815 0.907012C21.6254 0.886527 21.7719 0.896722 21.9116 0.936928C22.0512 0.977135 22.1808 1.04644 22.2917 1.14029C22.4026 1.23414 22.4924 1.35041 22.5552 1.48145L23.7517 3.87437C23.7661 3.90093 23.7857 3.92439 23.8092 3.94339C23.8301 3.96121 23.8565 3.97135 23.884 3.97216L26.5128 4.3518C26.7037 4.38056 26.8832 4.46224 27.0305 4.58764C27.1748 4.71247 27.2841 4.87295 27.3468 5.05357C27.4078 5.23764 27.4181 5.43437 27.3756 5.62304Z" fill="#FFD77E"/>
</g>
<mask id="mask2_75_126" style="mask-type:luminance" maskUnits="userSpaceOnUse" x="31" y="0" width="12" height="12">
<path d="M31.2 0.900391H42.7044V11.9504H31.2V0.900391Z" fill="white"/>
</mask>
<g mask="url(#mask2_75_126)">
<path d="M42.6756 5.62304C42.6296 5.81229 42.5297 5.98413 42.388 6.11773L40.4898 7.96994C40.4706 7.99013 40.455 8.01348 40.4438 8.03897C40.4382 8.06552 40.4382 8.09295 40.4438 8.1195L40.8924 10.7425C40.9298 10.9358 40.9097 11.136 40.8349 11.3177C40.7656 11.4976 40.6433 11.6521 40.484 11.7607C40.3293 11.8748 40.1463 11.9445 39.9548 11.962H39.8801C39.7115 11.9623 39.5454 11.9208 39.3969 11.8412L37.0385 10.6102C37.014 10.5961 36.9862 10.5886 36.9579 10.5886C36.9297 10.5886 36.9019 10.5961 36.8774 10.6102L34.519 11.8469C34.3421 11.9395 34.143 11.9813 33.9438 11.9677C33.7503 11.9512 33.5652 11.8816 33.4088 11.7664C33.2511 11.6537 33.1293 11.498 33.0579 11.3177C32.9852 11.1352 32.9652 10.9358 33.0004 10.7425L33.4491 8.12525C33.4575 8.09906 33.4575 8.07091 33.4491 8.04472C33.4401 8.01938 33.4265 7.99596 33.4088 7.9757L31.5106 6.11198C31.3727 5.97862 31.275 5.80921 31.2287 5.62304C31.1728 5.43538 31.1728 5.23548 31.2287 5.04782C31.292 4.86312 31.4059 4.69991 31.5574 4.57684C31.709 4.45377 31.8921 4.37579 32.0858 4.3518L34.6743 3.97216C34.7001 3.9715 34.7247 3.96125 34.7433 3.94339C34.7653 3.9266 34.783 3.90494 34.7951 3.88012L36.0031 1.4757C36.0853 1.30313 36.2153 1.1576 36.377 1.05578C36.4998 0.978198 36.6377 0.927497 36.7816 0.907012C36.9254 0.886527 37.072 0.896722 37.2116 0.936928C37.3513 0.977135 37.4808 1.04644 37.5917 1.14029C37.7027 1.23414 37.7925 1.35041 37.8553 1.48145L39.0517 3.87437C39.0662 3.90093 39.0857 3.92439 39.1093 3.94339C39.1302 3.96121 39.1566 3.97135 39.184 3.97216L41.8128 4.3518C42.0038 4.38056 42.1832 4.46224 42.3305 4.58764C42.4749 4.71247 42.5842 4.87295 42.6469 5.05357C42.7078 5.23764 42.7182 5.43437 42.6756 5.62304Z" fill="#FFD77E"/>
</g>
<mask id="mask3_75_126" style="mask-type:luminance" maskUnits="userSpaceOnUse" x="46" y="0" width="13" height="12">
<path d="M46.5 0.900391H58.0044V11.9504H46.5V0.900391Z" fill="white"/>
</mask>
<g mask="url(#mask3_75_126)">
<path d="M57.9757 5.62304C57.9297 5.81229 57.8298 5.98413 57.6881 6.11773L55.7898 7.96994C55.7706 7.99013 55.7551 8.01348 55.7438 8.03897C55.7382 8.06552 55.7382 8.09295 55.7438 8.1195L56.1925 10.7425C56.2299 10.9358 56.2098 11.136 56.135 11.3177C56.0657 11.4976 55.9433 11.6521 55.7841 11.7607C55.6294 11.8748 55.4464 11.9445 55.2549 11.962H55.1801C55.0115 11.9623 54.8455 11.9208 54.6969 11.8412L52.3385 10.6102C52.314 10.5961 52.2863 10.5886 52.258 10.5886C52.2297 10.5886 52.2019 10.5961 52.1775 10.6102L49.819 11.8469C49.6421 11.9395 49.443 11.9813 49.2438 11.9677C49.0503 11.9512 48.8652 11.8816 48.7089 11.7664C48.5511 11.6537 48.4293 11.498 48.358 11.3177C48.2852 11.1352 48.2653 10.9358 48.3005 10.7425L48.7491 8.12525C48.7575 8.09906 48.7575 8.07091 48.7491 8.04472C48.7402 8.01938 48.7265 7.99596 48.7089 7.9757L46.8106 6.11198C46.6727 5.97862 46.5751 5.80921 46.5288 5.62304C46.4728 5.43538 46.4728 5.23548 46.5288 5.04782C46.592 4.86312 46.7059 4.69991 46.8575 4.57684C47.009 4.45377 47.1921 4.37579 47.3859 4.3518L49.9744 3.97216C50.0001 3.9715 50.0248 3.96125 50.0434 3.94339C50.0653 3.9266 50.083 3.90494 50.0951 3.88012L51.3031 1.4757C51.3854 1.30313 51.5154 1.1576 51.677 1.05578C51.7999 0.978198 51.9378 0.927497 52.0816 0.907012C52.2255 0.886527 52.372 0.896722 52.5117 0.936928C52.6513 0.977135 52.7809 1.04644 52.8918 1.14029C53.0027 1.23414 53.0925 1.35041 53.1553 1.48145L54.3518 3.87437C54.3662 3.90093 54.3858 3.92439 54.4093 3.94339C54.4302 3.96121 54.4566 3.97135 54.4841 3.97216L57.1128 4.3518C57.3038 4.38056 57.4833 4.46224 57.6305 4.58764C57.7749 4.71247 57.8842 4.87295 57.9469 5.05357C58.0079 5.23764 58.0182 5.43437 57.9757 5.62304Z" fill="#FFD77E"/>
</g>
<mask id="mask4_75_126" style="mask-type:luminance" maskUnits="userSpaceOnUse" x="61" y="0" width="13" height="12">
<path d="M61.8 0.900391H73.3045V11.9504H61.8V0.900391Z" fill="white"/>
</mask>
<g mask="url(#mask4_75_126)">
<path d="M73.2757 5.62304C73.2297 5.81229 73.1298 5.98413 72.9881 6.11773L71.0899 7.96994C71.0707 7.99013 71.0551 8.01348 71.0439 8.03897C71.0383 8.06552 71.0383 8.09295 71.0439 8.1195L71.4925 10.7425C71.5299 10.9358 71.5098 11.136 71.435 11.3177C71.3657 11.4976 71.2434 11.6521 71.0841 11.7607C70.9294 11.8748 70.7464 11.9445 70.5549 11.962H70.4802C70.3116 11.9623 70.1455 11.9208 69.997 11.8412L67.6386 10.6102C67.6141 10.5961 67.5863 10.5886 67.558 10.5886C67.5298 10.5886 67.502 10.5961 67.4775 10.6102L65.1191 11.8469C64.9422 11.9395 64.7431 11.9813 64.5439 11.9677C64.3504 11.9512 64.1653 11.8816 64.0089 11.7664C63.8512 11.6537 63.7294 11.498 63.658 11.3177C63.5852 11.1352 63.5653 10.9358 63.6005 10.7425L64.0492 8.12525C64.0575 8.09906 64.0575 8.07091 64.0492 8.04472C64.0402 8.01938 64.0266 7.99596 64.0089 7.9757L62.1107 6.11198C61.9728 5.97862 61.8751 5.80921 61.8288 5.62304C61.7729 5.43538 61.7729 5.23548 61.8288 5.04782C61.8921 4.86312 62.006 4.69991 62.1575 4.57684C62.3091 4.45377 62.4922 4.37579 62.6859 4.3518L65.2744 3.97216C65.3002 3.9715 65.3248 3.96125 65.3434 3.94339C65.3654 3.9266 65.3831 3.90494 65.3952 3.88012L66.6032 1.4757C66.6854 1.30313 66.8154 1.1576 66.9771 1.05578C67.0999 0.978198 67.2378 0.927497 67.3817 0.907012C67.5255 0.886527 67.6721 0.896722 67.8117 0.936928C67.9514 0.977135 68.0809 1.04644 68.1918 1.14029C68.3028 1.23414 68.3926 1.35041 68.4554 1.48145L69.6518 3.87437C69.6663 3.90093 69.6858 3.92439 69.7094 3.94339C69.7303 3.96121 69.7567 3.97135 69.7841 3.97216L72.4129 4.3518C72.6039 4.38056 72.7833 4.46224 72.9306 4.58764C73.075 4.71247 73.1843 4.87295 73.247 5.05357C73.3079 5.23764 73.3183 5.43437 73.2757 5.62304Z" fill="#FFD77E"/>
</g>
<mask id="mask5_75_126" style="mask-type:luminance" maskUnits="userSpaceOnUse" x="15" y="15" width="13" height="12">
<path d="M15.8999 15.3501H27.4043V26.4001H15.8999V15.3501Z" fill="white"/>
</mask>
<g mask="url(#mask5_75_126)">
<path d="M27.3756 20.0727C27.3296 20.262 27.2297 20.4338 27.088 20.5674L25.1897 22.4197C25.1705 22.4398 25.155 22.4632 25.1437 22.4887C25.1381 22.5152 25.1381 22.5427 25.1437 22.5692L25.5924 25.1922C25.6298 25.3855 25.6097 25.5857 25.5349 25.7674C25.4656 25.9473 25.3432 26.1018 25.184 26.2104C25.0293 26.3245 24.8463 26.3942 24.6548 26.4117H24.58C24.4114 26.412 24.2454 26.3705 24.0968 26.2909L21.7384 25.0599C21.7139 25.0458 21.6862 25.0383 21.6579 25.0383C21.6296 25.0383 21.6018 25.0458 21.5774 25.0599L19.2189 26.2966C19.042 26.3892 18.8429 26.4311 18.6437 26.4174C18.4503 26.401 18.2651 26.3313 18.1088 26.2161C17.9511 26.1035 17.8292 25.9477 17.7579 25.7674C17.6851 25.5849 17.6652 25.3856 17.7004 25.1922L18.149 22.575C18.1574 22.5488 18.1574 22.5206 18.149 22.4944C18.1401 22.4691 18.1264 22.4457 18.1088 22.4254L16.2105 20.5617C16.0726 20.4283 15.975 20.2589 15.9287 20.0727C15.8727 19.8851 15.8727 19.6852 15.9287 19.4975C15.9919 19.3128 16.1058 19.1496 16.2574 19.0266C16.4089 18.9035 16.592 18.8255 16.7858 18.8015L19.3743 18.4219C19.4 18.4212 19.4247 18.411 19.4433 18.3931C19.4652 18.3763 19.4829 18.3546 19.4951 18.3298L20.703 15.9254C20.7853 15.7528 20.9153 15.6073 21.0769 15.5055C21.1998 15.4279 21.3377 15.3772 21.4815 15.3567C21.6254 15.3362 21.7719 15.3464 21.9116 15.3866C22.0512 15.4268 22.1808 15.4961 22.2917 15.59C22.4026 15.6838 22.4924 15.8001 22.5552 15.9312L23.7517 18.3241C23.7661 18.3506 23.7857 18.3741 23.8092 18.3931C23.8301 18.4109 23.8565 18.4211 23.884 18.4219L26.5128 18.8015C26.7037 18.8303 26.8832 18.912 27.0305 19.0373C27.1748 19.1622 27.2841 19.3227 27.3468 19.5033C27.4078 19.6873 27.4181 19.8841 27.3756 20.0727Z" fill="#FFD77E"/>
</g>
<mask id="mask6_75_126" style="mask-type:luminance" maskUnits="userSpaceOnUse" x="31" y="15" width="12" height="12">
<path d="M31.2 15.3501H42.7044V26.4001H31.2V15.3501Z" fill="white"/>
</mask>
<g mask="url(#mask6_75_126)">
<path d="M42.6756 20.0727C42.6296 20.262 42.5297 20.4338 42.388 20.5674L40.4898 22.4197C40.4706 22.4398 40.455 22.4632 40.4438 22.4887C40.4382 22.5152 40.4382 22.5427 40.4438 22.5692L40.8924 25.1922C40.9298 25.3855 40.9097 25.5857 40.8349 25.7674C40.7656 25.9473 40.6433 26.1018 40.484 26.2104C40.3293 26.3245 40.1463 26.3942 39.9548 26.4117H39.8801C39.7115 26.412 39.5454 26.3705 39.3969 26.2909L37.0385 25.0599C37.014 25.0458 36.9862 25.0383 36.9579 25.0383C36.9297 25.0383 36.9019 25.0458 36.8774 25.0599L34.519 26.2966C34.3421 26.3892 34.143 26.4311 33.9438 26.4174C33.7503 26.401 33.5652 26.3313 33.4088 26.2161C33.2511 26.1035 33.1293 25.9477 33.0579 25.7674C32.9852 25.5849 32.9652 25.3856 33.0004 25.1922L33.4491 22.575C33.4575 22.5488 33.4575 22.5206 33.4491 22.4944C33.4401 22.4691 33.4265 22.4457 33.4088 22.4254L31.5106 20.5617C31.3727 20.4283 31.275 20.2589 31.2287 20.0727C31.1728 19.8851 31.1728 19.6852 31.2287 19.4975C31.292 19.3128 31.4059 19.1496 31.5574 19.0266C31.709 18.9035 31.8921 18.8255 32.0858 18.8015L34.6743 18.4219C34.7001 18.4212 34.7247 18.411 34.7433 18.3931C34.7653 18.3763 34.783 18.3546 34.7951 18.3298L36.0031 15.9254C36.0853 15.7528 36.2153 15.6073 36.377 15.5055C36.4998 15.4279 36.6377 15.3772 36.7816 15.3567C36.9254 15.3362 37.072 15.3464 37.2116 15.3866C37.3513 15.4268 37.4808 15.4961 37.5917 15.59C37.7027 15.6838 37.7925 15.8001 37.8553 15.9312L39.0517 18.3241C39.0662 18.3506 39.0857 18.3741 39.1093 18.3931C39.1302 18.4109 39.1566 18.4211 39.184 18.4219L41.8128 18.8015C42.0038 18.8303 42.1832 18.912 42.3305 19.0373C42.4749 19.1622 42.5842 19.3227 42.6469 19.5033C42.7078 19.6873 42.7182 19.8841 42.6756 20.0727Z" fill="#FFD77E"/>
</g>
<mask id="mask7_75_126" style="mask-type:luminance" maskUnits="userSpaceOnUse" x="46" y="15" width="13" height="12">
<path d="M46.5 15.3501H58.0044V26.4001H46.5V15.3501Z" fill="white"/>
</mask>
<g mask="url(#mask7_75_126)">
<path d="M57.9757 20.0727C57.9297 20.262 57.8298 20.4338 57.6881 20.5674L55.7898 22.4197C55.7706 22.4398 55.7551 22.4632 55.7438 22.4887C55.7382 22.5152 55.7382 22.5427 55.7438 22.5692L56.1925 25.1922C56.2299 25.3855 56.2098 25.5857 56.135 25.7674C56.0657 25.9473 55.9433 26.1018 55.7841 26.2104C55.6294 26.3245 55.4464 26.3942 55.2549 26.4117H55.1801C55.0115 26.412 54.8455 26.3705 54.6969 26.2909L52.3385 25.0599C52.314 25.0458 52.2863 25.0383 52.258 25.0383C52.2297 25.0383 52.2019 25.0458 52.1775 25.0599L49.819 26.2966C49.6421 26.3892 49.443 26.4311 49.2438 26.4174C49.0503 26.401 48.8652 26.3313 48.7089 26.2161C48.5511 26.1035 48.4293 25.9477 48.358 25.7674C48.2852 25.5849 48.2653 25.3856 48.3005 25.1922L48.7491 22.575C48.7575 22.5488 48.7575 22.5206 48.7491 22.4944C48.7402 22.4691 48.7265 22.4457 48.7089 22.4254L46.8106 20.5617C46.6727 20.4283 46.5751 20.2589 46.5288 20.0727C46.4728 19.8851 46.4728 19.6852 46.5288 19.4975C46.592 19.3128 46.7059 19.1496 46.8575 19.0266C47.009 18.9035 47.1921 18.8255 47.3859 18.8015L49.9744 18.4219C50.0001 18.4212 50.0248 18.411 50.0434 18.3931C50.0653 18.3763 50.083 18.3546 50.0951 18.3298L51.3031 15.9254C51.3854 15.7528 51.5154 15.6073 51.677 15.5055C51.7999 15.4279 51.9378 15.3772 52.0816 15.3567C52.2255 15.3362 52.372 15.3464 52.5117 15.3866C52.6513 15.4268 52.7809 15.4961 52.8918 15.59C53.0027 15.6838 53.0925 15.8001 53.1553 15.9312L54.3518 18.3241C54.3662 18.3506 54.3858 18.3741 54.4093 18.3931C54.4302 18.4109 54.4566 18.4211 54.4841 18.4219L57.1128 18.8015C57.3038 18.8303 57.4833 18.912 57.6305 19.0373C57.7749 19.1622 57.8842 19.3227 57.9469 19.5033C58.0079 19.6873 58.0182 19.8841 57.9757 20.0727Z" fill="#FFD77E"/>
</g>
<mask id="mask8_75_126" style="mask-type:luminance" maskUnits="userSpaceOnUse" x="61" y="15" width="13" height="12">
<path d="M61.8 15.3501H73.3045V26.4001H61.8V15.3501Z" fill="white"/>
</mask>
<g mask="url(#mask8_75_126)">
<path d="M73.2757 20.0727C73.2297 20.262 73.1298 20.4338 72.9881 20.5674L71.0899 22.4197C71.0707 22.4398 71.0551 22.4632 71.0439 22.4887C71.0383 22.5152 71.0383 22.5427 71.0439 22.5692L71.4925 25.1922C71.5299 25.3855 71.5098 25.5857 71.435 25.7674C71.3657 25.9473 71.2434 26.1018 71.0841 26.2104C70.9294 26.3245 70.7464 26.3942 70.5549 26.4117H70.4802C70.3116 26.412 70.1455 26.3705 69.997 26.2909L67.6386 25.0599C67.6141 25.0458 67.5863 25.0383 67.558 25.0383C67.5298 25.0383 67.502 25.0458 67.4775 25.0599L65.1191 26.2966C64.9422 26.3892 64.7431 26.4311 64.5439 26.4174C64.3504 26.401 64.1653 26.3313 64.0089 26.2161C63.8512 26.1035 63.7294 25.9477 63.658 25.7674C63.5852 25.5849 63.5653 25.3856 63.6005 25.1922L64.0492 22.575C64.0575 22.5488 64.0575 22.5206 64.0492 22.4944C64.0402 22.4691 64.0266 22.4457 64.0089 22.4254L62.1107 20.5617C61.9728 20.4283 61.8751 20.2589 61.8288 20.0727C61.7729 19.8851 61.7729 19.6852 61.8288 19.4975C61.8921 19.3128 62.006 19.1496 62.1575 19.0266C62.3091 18.9035 62.4922 18.8255 62.6859 18.8015L65.2744 18.4219C65.3002 18.4212 65.3248 18.411 65.3434 18.3931C65.3654 18.3763 65.3831 18.3546 65.3952 18.3298L66.6032 15.9254C66.6854 15.7528 66.8154 15.6073 66.9771 15.5055C67.0999 15.4279 67.2378 15.3772 67.3817 15.3567C67.5255 15.3362 67.6721 15.3464 67.8117 15.3866C67.9514 15.4268 68.0809 15.4961 68.1918 15.59C68.3028 15.6838 68.3926 15.8001 68.4554 15.9312L69.6518 18.3241C69.6663 18.3506 69.6858 18.3741 69.7094 18.3931C69.7303 18.4109 69.7567 18.4211 69.7841 18.4219L72.4129 18.8015C72.6039 18.8303 72.7833 18.912 72.9306 19.0373C73.075 19.1622 73.1843 19.3227 73.247 19.5033C73.3079 19.6873 73.3183 19.8841 73.2757 20.0727Z" fill="#FFD77E"/>
</g>
<mask id="mask9_75_126" style="mask-type:luminance" maskUnits="userSpaceOnUse" x="31" y="29" width="12" height="12">
<path d="M31.2 29.8003H42.7044V40.8503H31.2V29.8003Z" fill="white"/>
</mask>
<g mask="url(#mask9_75_126)">
<path d="M42.6756 34.5229C42.6296 34.7122 42.5297 34.884 42.388 35.0176L40.4898 36.8698C40.4706 36.89 40.455 36.9134 40.4438 36.9389C40.4382 36.9654 40.4382 36.9929 40.4438 37.0194L40.8924 39.6424C40.9298 39.8357 40.9097 40.0359 40.8349 40.2176C40.7656 40.3975 40.6433 40.552 40.484 40.6606C40.3293 40.7747 40.1463 40.8444 39.9548 40.8619H39.8801C39.7115 40.8622 39.5454 40.8207 39.3969 40.7411L37.0385 39.5101C37.014 39.496 36.9862 39.4885 36.9579 39.4885C36.9297 39.4885 36.9019 39.496 36.8774 39.5101L34.519 40.7468C34.3421 40.8394 34.143 40.8812 33.9438 40.8676C33.7503 40.8511 33.5652 40.7815 33.4088 40.6663C33.2511 40.5536 33.1293 40.3979 33.0579 40.2176C32.9852 40.0351 32.9652 39.8358 33.0004 39.6424L33.4491 37.0252C33.4575 36.999 33.4575 36.9708 33.4491 36.9446C33.4401 36.9193 33.4265 36.8959 33.4088 36.8756L31.5106 35.0119C31.3727 34.8785 31.275 34.7091 31.2287 34.5229C31.1728 34.3353 31.1728 34.1354 31.2287 33.9477C31.292 33.763 31.4059 33.5998 31.5574 33.4767C31.709 33.3537 31.8921 33.2757 32.0858 33.2517L34.6743 32.8721C34.7001 32.8714 34.7247 32.8611 34.7433 32.8433C34.7653 32.8265 34.783 32.8048 34.7951 32.78L36.0031 30.3756C36.0853 30.203 36.2153 30.0575 36.377 29.9557C36.4998 29.8781 36.6377 29.8274 36.7816 29.8069C36.9254 29.7864 37.072 29.7966 37.2116 29.8368C37.3513 29.877 37.4808 29.9463 37.5917 30.0402C37.7027 30.134 37.7925 30.2503 37.8553 30.3813L39.0517 32.7743C39.0662 32.8008 39.0857 32.8243 39.1093 32.8433C39.1302 32.8611 39.1566 32.8713 39.184 32.8721L41.8128 33.2517C42.0038 33.2805 42.1832 33.3621 42.3305 33.4875C42.4749 33.6124 42.5842 33.7729 42.6469 33.9535C42.7078 34.1375 42.7182 34.3343 42.6756 34.5229Z" fill="#FFD77E"/>
</g>
<mask id="mask10_75_126" style="mask-type:luminance" maskUnits="userSpaceOnUse" x="46" y="29" width="13" height="12">
<path d="M46.5 29.8003H58.0044V40.8503H46.5V29.8003Z" fill="white"/>
</mask>
<g mask="url(#mask10_75_126)">
<path d="M57.9757 34.5229C57.9297 34.7122 57.8298 34.884 57.6881 35.0176L55.7898 36.8698C55.7706 36.89 55.7551 36.9134 55.7438 36.9389C55.7382 36.9654 55.7382 36.9929 55.7438 37.0194L56.1925 39.6424C56.2299 39.8357 56.2098 40.0359 56.135 40.2176C56.0657 40.3975 55.9433 40.552 55.7841 40.6606C55.6294 40.7747 55.4464 40.8444 55.2549 40.8619H55.1801C55.0115 40.8622 54.8455 40.8207 54.6969 40.7411L52.3385 39.5101C52.314 39.496 52.2863 39.4885 52.258 39.4885C52.2297 39.4885 52.2019 39.496 52.1775 39.5101L49.819 40.7468C49.6421 40.8394 49.443 40.8812 49.2438 40.8676C49.0503 40.8511 48.8652 40.7815 48.7089 40.6663C48.5511 40.5536 48.4293 40.3979 48.358 40.2176C48.2852 40.0351 48.2653 39.8358 48.3005 39.6424L48.7491 37.0252C48.7575 36.999 48.7575 36.9708 48.7491 36.9446C48.7402 36.9193 48.7265 36.8959 48.7089 36.8756L46.8106 35.0119C46.6727 34.8785 46.5751 34.7091 46.5288 34.5229C46.4728 34.3353 46.4728 34.1354 46.5288 33.9477C46.592 33.763 46.7059 33.5998 46.8575 33.4767C47.009 33.3537 47.1921 33.2757 47.3859 33.2517L49.9744 32.8721C50.0001 32.8714 50.0248 32.8611 50.0434 32.8433C50.0653 32.8265 50.083 32.8048 50.0951 32.78L51.3031 30.3756C51.3854 30.203 51.5154 30.0575 51.677 29.9557C51.7999 29.8781 51.9378 29.8274 52.0816 29.8069C52.2255 29.7864 52.372 29.7966 52.5117 29.8368C52.6513 29.877 52.7809 29.9463 52.8918 30.0402C53.0027 30.134 53.0925 30.2503 53.1553 30.3813L54.3518 32.7743C54.3662 32.8008 54.3858 32.8243 54.4093 32.8433C54.4302 32.8611 54.4566 32.8713 54.4841 32.8721L57.1128 33.2517C57.3038 33.2805 57.4833 33.3621 57.6305 33.4875C57.7749 33.6124 57.8842 33.7729 57.9469 33.9535C58.0079 34.1375 58.0182 34.3343 57.9757 34.5229Z" fill="#FFD77E"/>
</g>
<mask id="mask11_75_126" style="mask-type:luminance" maskUnits="userSpaceOnUse" x="61" y="29" width="13" height="12">
<path d="M61.8 29.8003H73.3045V40.8503H61.8V29.8003Z" fill="white"/>
</mask>
<g mask="url(#mask11_75_126)">
<path d="M73.2757 34.5229C73.2297 34.7122 73.1298 34.884 72.9881 35.0176L71.0899 36.8698C71.0707 36.89 71.0551 36.9134 71.0439 36.9389C71.0383 36.9654 71.0383 36.9929 71.0439 37.0194L71.4925 39.6424C71.5299 39.8357 71.5098 40.0359 71.435 40.2176C71.3657 40.3975 71.2434 40.552 71.0841 40.6606C70.9294 40.7747 70.7464 40.8444 70.5549 40.8619H70.4802C70.3116 40.8622 70.1455 40.8207 69.997 40.7411L67.6386 39.5101C67.6141 39.496 67.5863 39.4885 67.558 39.4885C67.5298 39.4885 67.502 39.496 67.4775 39.5101L65.1191 40.7468C64.9422 40.8394 64.7431 40.8812 64.5439 40.8676C64.3504 40.8511 64.1653 40.7815 64.0089 40.6663C63.8512 40.5536 63.7294 40.3979 63.658 40.2176C63.5852 40.0351 63.5653 39.8358 63.6005 39.6424L64.0492 37.0252C64.0575 36.999 64.0575 36.9708 64.0492 36.9446C64.0402 36.9193 64.0266 36.8959 64.0089 36.8756L62.1107 35.0119C61.9728 34.8785 61.8751 34.7091 61.8288 34.5229C61.7729 34.3353 61.7729 34.1354 61.8288 33.9477C61.8921 33.763 62.006 33.5998 62.1575 33.4767C62.3091 33.3537 62.4922 33.2757 62.6859 33.2517L65.2744 32.8721C65.3002 32.8714 65.3248 32.8611 65.3434 32.8433C65.3654 32.8265 65.3831 32.8048 65.3952 32.78L66.6032 30.3756C66.6854 30.203 66.8154 30.0575 66.9771 29.9557C67.0999 29.8781 67.2378 29.8274 67.3817 29.8069C67.5255 29.7864 67.6721 29.7966 67.8117 29.8368C67.9514 29.877 68.0809 29.9463 68.1918 30.0402C68.3028 30.134 68.3926 30.2503 68.4554 30.3813L69.6518 32.7743C69.6663 32.8008 69.6858 32.8243 69.7094 32.8433C69.7303 32.8611 69.7567 32.8713 69.7841 32.8721L72.4129 33.2517C72.6039 33.2805 72.7833 33.3621 72.9306 33.4875C73.075 33.6124 73.1843 33.7729 73.247 33.9535C73.3079 34.1375 73.3183 34.3343 73.2757 34.5229Z" fill="#FFD77E"/>
</g>
<mask id="mask12_75_126" style="mask-type:luminance" maskUnits="userSpaceOnUse" x="46" y="44" width="13" height="12">
<path d="M46.5 44.2502H58.0044V55.3002H46.5V44.2502Z" fill="white"/>
</mask>
<g mask="url(#mask12_75_126)">
<path d="M57.9757 48.9729C57.9297 49.1621 57.8298 49.334 57.6881 49.4676L55.7898 51.3198C55.7706 51.34 55.7551 51.3633 55.7438 51.3888C55.7382 51.4154 55.7382 51.4428 55.7438 51.4694L56.1925 54.0924C56.2299 54.2856 56.2098 54.4858 56.135 54.6676C56.0657 54.8474 55.9433 55.0019 55.7841 55.1105C55.6294 55.2247 55.4464 55.2943 55.2549 55.3118H55.1801C55.0115 55.3122 54.8455 55.2707 54.6969 55.191L52.3385 53.9601C52.314 53.9459 52.2863 53.9385 52.258 53.9385C52.2297 53.9385 52.2019 53.9459 52.1775 53.9601L49.819 55.1968C49.6421 55.2894 49.443 55.3312 49.2438 55.3176C49.0503 55.3011 48.8652 55.2314 48.7089 55.1163C48.5511 55.0036 48.4293 54.8478 48.358 54.6676C48.2852 54.485 48.2653 54.2857 48.3005 54.0924L48.7491 51.4751C48.7575 51.4489 48.7575 51.4208 48.7491 51.3946C48.7402 51.3692 48.7265 51.3458 48.7089 51.3255L46.8106 49.4618C46.6727 49.3285 46.5751 49.1591 46.5288 48.9729C46.4728 48.7852 46.4728 48.5853 46.5288 48.3977C46.592 48.213 46.7059 48.0498 46.8575 47.9267C47.009 47.8036 47.1921 47.7256 47.3859 47.7017L49.9744 47.322C50.0001 47.3214 50.0248 47.3111 50.0434 47.2932C50.0653 47.2765 50.083 47.2548 50.0951 47.23L51.3031 44.8255C51.3854 44.653 51.5154 44.5075 51.677 44.4056C51.7999 44.3281 51.9378 44.2774 52.0816 44.2569C52.2255 44.2364 52.372 44.2466 52.5117 44.2868C52.6513 44.327 52.7809 44.3963 52.8918 44.4901C53.0027 44.584 53.0925 44.7003 53.1553 44.8313L54.3518 47.2242C54.3662 47.2508 54.3858 47.2742 54.4093 47.2932C54.4302 47.3111 54.4566 47.3212 54.4841 47.322L57.1128 47.7017C57.3038 47.7304 57.4833 47.8121 57.6305 47.9375C57.7749 48.0623 57.8842 48.2228 57.9469 48.4034C58.0079 48.5875 58.0182 48.7842 57.9757 48.9729Z" fill="#FFD77E"/>
</g>
<mask id="mask13_75_126" style="mask-type:luminance" maskUnits="userSpaceOnUse" x="61" y="44" width="13" height="12">
<path d="M61.8 44.2502H73.3045V55.3002H61.8V44.2502Z" fill="white"/>
</mask>
<g mask="url(#mask13_75_126)">
<path d="M73.2757 48.9729C73.2297 49.1621 73.1298 49.334 72.9881 49.4676L71.0899 51.3198C71.0707 51.34 71.0551 51.3633 71.0439 51.3888C71.0383 51.4154 71.0383 51.4428 71.0439 51.4694L71.4925 54.0924C71.5299 54.2856 71.5098 54.4858 71.435 54.6676C71.3657 54.8474 71.2434 55.0019 71.0841 55.1105C70.9294 55.2247 70.7464 55.2943 70.5549 55.3118H70.4802C70.3116 55.3122 70.1455 55.2707 69.997 55.191L67.6386 53.9601C67.6141 53.9459 67.5863 53.9385 67.558 53.9385C67.5298 53.9385 67.502 53.9459 67.4775 53.9601L65.1191 55.1968C64.9422 55.2894 64.7431 55.3312 64.5439 55.3176C64.3504 55.3011 64.1653 55.2314 64.0089 55.1163C63.8512 55.0036 63.7294 54.8478 63.658 54.6676C63.5852 54.485 63.5653 54.2857 63.6005 54.0924L64.0492 51.4751C64.0575 51.4489 64.0575 51.4208 64.0492 51.3946C64.0402 51.3692 64.0266 51.3458 64.0089 51.3255L62.1107 49.4618C61.9728 49.3285 61.8751 49.1591 61.8288 48.9729C61.7729 48.7852 61.7729 48.5853 61.8288 48.3977C61.8921 48.213 62.006 48.0498 62.1575 47.9267C62.3091 47.8036 62.4922 47.7256 62.6859 47.7017L65.2744 47.322C65.3002 47.3214 65.3248 47.3111 65.3434 47.2932C65.3654 47.2765 65.3831 47.2548 65.3952 47.23L66.6032 44.8255C66.6854 44.653 66.8154 44.5075 66.9771 44.4056C67.0999 44.3281 67.2378 44.2774 67.3817 44.2569C67.5255 44.2364 67.6721 44.2466 67.8117 44.2868C67.9514 44.327 68.0809 44.3963 68.1918 44.4901C68.3028 44.584 68.3926 44.7003 68.4554 44.8313L69.6518 47.2242C69.6663 47.2508 69.6858 47.2742 69.7094 47.2932C69.7303 47.3111 69.7567 47.3212 69.7841 47.322L72.4129 47.7017C72.6039 47.7304 72.7833 47.8121 72.9306 47.9375C73.075 48.0623 73.1843 48.2228 73.247 48.4034C73.3079 48.5875 73.3183 48.7842 73.2757 48.9729Z" fill="#FFD77E"/>
</g>
<mask id="mask14_75_126" style="mask-type:luminance" maskUnits="userSpaceOnUse" x="61" y="58" width="13" height="12">
<path d="M61.8 58.7002H73.3045V69.7502H61.8V58.7002Z" fill="white"/>
</mask>
<g mask="url(#mask14_75_126)">
<path d="M73.2757 63.4228C73.2297 63.6121 73.1298 63.7839 72.9881 63.9175L71.0899 65.7697C71.0707 65.7899 71.0551 65.8133 71.0439 65.8388C71.0383 65.8653 71.0383 65.8928 71.0439 65.9193L71.4925 68.5423C71.5299 68.7356 71.5098 68.9358 71.435 69.1175C71.3657 69.2974 71.2434 69.4519 71.0841 69.5605C70.9294 69.6746 70.7464 69.7443 70.5549 69.7618H70.4802C70.3116 69.7621 70.1455 69.7206 69.997 69.641L67.6386 68.41C67.6141 68.3959 67.5863 68.3884 67.558 68.3884C67.5298 68.3884 67.502 68.3959 67.4775 68.41L65.1191 69.6467C64.9422 69.7393 64.7431 69.7811 64.5439 69.7675C64.3504 69.7511 64.1653 69.6814 64.0089 69.5662C63.8512 69.4536 63.7294 69.2978 63.658 69.1175C63.5852 68.935 63.5653 68.7357 63.6005 68.5423L64.0492 65.9251C64.0575 65.8989 64.0575 65.8707 64.0492 65.8445C64.0402 65.8192 64.0266 65.7958 64.0089 65.7755L62.1107 63.9118C61.9728 63.7784 61.8751 63.609 61.8288 63.4228C61.7729 63.2352 61.7729 63.0353 61.8288 62.8476C61.8921 62.6629 62.006 62.4997 62.1575 62.3766C62.3091 62.2536 62.4922 62.1756 62.6859 62.1516L65.2744 61.772C65.3002 61.7713 65.3248 61.7611 65.3434 61.7432C65.3654 61.7264 65.3831 61.7047 65.3952 61.6799L66.6032 59.2755C66.6854 59.1029 66.8154 58.9574 66.9771 58.8556C67.0999 58.778 67.2378 58.7273 67.3817 58.7068C67.5255 58.6863 67.6721 58.6965 67.8117 58.7367C67.9514 58.7769 68.0809 58.8462 68.1918 58.9401C68.3028 59.0339 68.3926 59.1502 68.4554 59.2813L69.6518 61.6742C69.6663 61.7007 69.6858 61.7242 69.7094 61.7432C69.7303 61.761 69.7567 61.7712 69.7841 61.772L72.4129 62.1516C72.6039 62.1804 72.7833 62.262 72.9306 62.3874C73.075 62.5123 73.1843 62.6728 73.247 62.8534C73.3079 63.0374 73.3183 63.2342 73.2757 63.4228Z" fill="#FFD77E"/>
</g>
</svg>
